<?xml version="1.0" encoding="utf-8"?>
<!-- Generator: Adobe Illustrator 15.0.0, SVG Export Plug-In  -->
<!DOCTYPE svg PUBLIC "-//W3C//DTD SVG 1.1//EN" "http://www.w3.org/Graphics/SVG/1.1/DTD/svg11.dtd" [
	<!ENTITY ns_flows "http://ns.adobe.com/Flows/1.0/">
]>
<svg version="1.1"
	 xmlns="http://www.w3.org/2000/svg" xmlns:xlink="http://www.w3.org/1999/xlink" xmlns:a="http://ns.adobe.com/AdobeSVGViewerExtensions/3.0/"
	 x="0px" y="0px" width="126px" height="124px" viewBox="0 0 126 124" overflow="visible" enable-background="new 0 0 126 124"
	 xml:space="preserve">
<defs>
</defs>
<polygon fill-rule="evenodd" clip-rule="evenodd" fill="#522423" points="121.1,86.9 122.9,88.5 123.4,89.7 121.1,86.9 "/>
<polygon fill-rule="evenodd" clip-rule="evenodd" fill="#E3A7AA" points="99.5,97.6 99.8,97.2 100.2,96.7 100.5,96.3 100.8,95.8 
	101.1,95.4 101.4,95 101.6,94.6 101.9,94.1 102.4,93.3 102.9,92.5 103.2,92.1 103.5,91.8 103.7,91.4 104,91 104.3,90.7 104.6,90.3 
	104.9,90 105.2,89.7 105.5,89.4 105.9,89.1 106.3,88.8 106.7,88.6 107.1,88.3 107.5,88.1 108,87.9 108.5,87.7 109,87.5 109.5,87.3 
	110.1,87.2 110.8,87.1 111.2,87 111.6,86.9 112,86.9 112.4,86.9 112.9,86.8 113.3,86.8 113.7,86.9 114.2,86.9 114.6,86.9 115,87 
	115.4,87 115.9,87.1 116.3,87.2 116.7,87.3 117.1,87.4 117.5,87.6 117.9,87.8 118.2,87.9 118.6,88.1 119,88.3 119.3,88.6 
	119.6,88.8 119.9,89.1 120.2,89.4 120.5,89.7 120.8,90 121,90.3 121.2,90.7 121.4,91.1 121.6,91.5 121.8,91.9 121.9,92.3 
	122.1,93.3 122.3,94.2 122.3,95 122.2,95.7 122,96.3 121.7,96.9 121.4,97.3 121,97.7 120.5,98 120,98.2 119.5,98.3 118.9,98.4 
	118.3,98.4 117.6,98.4 117,98.3 116.3,98.1 115.7,97.9 115.1,97.7 114.4,97.4 113.9,97.1 113.3,96.7 112.8,96.3 112.4,95.9 
	112,95.4 111.6,95 111.4,94.5 111.2,94 111.1,93.5 111.2,92.9 111.3,92.4 111.5,91.9 111.9,91.4 112.2,91 112.5,90.7 112.7,90.5 
	112.9,90.3 113.1,90.2 113.3,90.1 113.5,90.1 113.6,90.1 113.8,90.1 113.9,90.2 114,90.3 114.1,90.4 114.1,90.5 114.2,90.7 
	114.3,90.9 114.3,91.1 114.4,91.3 114.4,91.6 114.4,91.8 114.5,92.1 114.5,92.6 114.6,93.1 114.6,93.6 114.6,94.1 114.7,94.3 
	114.7,94.4 114.8,94.6 114.8,94.7 115,95.1 115.2,95.4 115.4,95.7 115.6,96 115.8,96.2 116,96.4 116.2,96.5 116.4,96.6 116.6,96.6 
	116.8,96.7 117,96.7 117.2,96.6 117.4,96.6 117.5,96.5 117.7,96.4 117.9,96.2 118,96.1 118.2,95.9 118.3,95.7 118.4,95.5 
	118.5,95.2 118.6,95 118.6,94.7 118.7,94.5 118.7,94.2 118.7,93.9 118.7,93.6 118.7,93.3 118.6,93 118.5,92.7 118.4,92.4 
	118.2,92.1 117.9,91.6 117.6,91.2 117.2,90.8 116.8,90.5 116.4,90.2 115.9,90 115.5,89.8 115,89.7 114.5,89.6 113.9,89.6 
	113.4,89.6 112.8,89.7 112.3,89.8 111.7,89.9 111.1,90.1 110.6,90.3 110,90.5 109.4,90.7 108.9,91 108.3,91.3 107.8,91.6 
	107.3,91.9 106.8,92.3 106.3,92.6 105.8,93 105.4,93.3 105,93.7 104.6,94.1 104.2,94.4 103.9,94.8 103.6,95.2 103.4,95.6 
	103.2,95.9 103,96.2 102.8,96.6 102.6,96.9 102.6,97.1 102.5,97.3 102.4,97.4 102.3,97.6 102.3,97.8 102.2,98 102.2,98.2 
	102.1,98.4 99.5,97.6 "/>
<polygon fill-rule="evenodd" clip-rule="evenodd" fill="#E3A7AA" points="116,87.6 115.9,87.6 115.8,87.6 115.8,87.6 115.8,87.6 
	115.8,87.6 115.8,87.6 115.8,87.6 115.8,87.6 115.8,87.6 115.7,87.5 115.8,87.3 115.9,87.1 115.9,86.8 116.1,86.6 116.2,86.4 
	116.3,86.2 116.4,86 116.6,85.8 116.7,85.6 116.9,85.5 117,85.3 117.2,85.1 117.4,84.9 117.6,84.8 117.8,84.6 118,84.5 118.2,84.4 
	118.4,84.2 118.6,84.1 118.8,84 119,83.9 119.2,83.8 119.5,83.7 119.7,83.6 119.9,83.5 120.1,83.4 120.3,83.4 120.5,83.3 
	120.7,83.2 120.9,83.2 121.1,83.1 121.3,83.1 121.2,82.7 121.1,82.4 120.9,82.1 120.7,81.9 120.5,81.7 120.3,81.6 120,81.5 
	119.7,81.5 119.4,81.5 119.1,81.6 118.8,81.6 118.4,81.8 118.1,81.9 117.7,82.1 117.3,82.3 117,82.5 116.6,82.7 116.3,83 
	115.9,83.3 115.6,83.5 115.2,83.8 114.9,84.1 114.6,84.5 114.3,84.8 114.1,85.1 113.8,85.4 113.6,85.7 113.4,86 113.2,86.3 
	113.1,86.6 113,86.8 112.9,87.1 116,87.6 "/>
<polygon fill-rule="evenodd" clip-rule="evenodd" fill="#522423" points="49,92.8 48.9,92.8 48.9,93 48.7,93.2 48.6,93.6 48.4,94 
	48.2,94.4 47.9,94.9 47.7,95.5 47.6,95.8 47.5,96.1 47.3,96.4 47.2,96.7 47.1,97 47,97.3 46.9,97.6 46.8,98 46.7,98.3 46.6,98.6 
	46.6,98.9 46.5,99.2 46.5,99.5 46.4,99.8 46.4,100.1 46.4,100.4 46.4,101.1 46.4,101.8 46.4,102.7 46.4,103.6 46.4,104.6 
	46.4,105.7 46.4,106.7 46.4,107.7 46.4,108.7 46.4,109.6 46.4,110.5 46.4,111.2 46.4,111.8 46.4,112.3 46.4,112.6 46.4,112.7 
	46.4,112.7 46.5,112.9 46.6,113.1 46.8,113.3 46.9,113.7 47.1,114 47.4,114.5 47.6,114.9 47.9,115.4 48.2,115.8 48.5,116.3 
	48.8,116.8 48.9,117 49.1,117.2 49.2,117.4 49.4,117.6 49.5,117.8 49.7,118 49.8,118.1 50,118.3 50.1,118.4 50.2,118.6 50.4,118.7 
	50.5,118.8 50.7,119.1 50.9,119.3 51,119.6 51.2,119.8 51.3,119.9 51.4,120 51.5,120.2 51.6,120.3 51.7,120.4 51.8,120.5 
	51.9,120.6 52.1,120.7 52.2,120.8 52.4,120.9 52.6,121 52.8,121.1 53,121.2 53.2,121.3 53.5,121.4 53.8,121.5 54,121.6 54.4,121.7 
	54.7,121.8 55.1,121.9 55.5,121.9 55.8,122 56.2,122.1 56.6,122.2 56.9,122.3 57.3,122.3 57.6,122.4 57.9,122.4 58.3,122.5 
	58.6,122.5 58.9,122.5 59.2,122.6 59.5,122.6 59.8,122.6 60.1,122.6 60.4,122.6 60.6,122.6 60.9,122.6 61.2,122.6 61.4,122.6 
	61.6,122.5 61.9,122.5 62.1,122.5 62.3,122.4 62.5,122.4 62.7,122.3 62.9,122.3 63.1,122.2 63.3,122.1 63.4,122 63.6,121.9 
	63.7,121.9 63.9,121.8 64,121.6 64.2,121.5 64.4,121.4 64.7,121.1 65.1,120.7 65.4,120.3 65.8,119.9 66.2,119.6 66.6,119.2 
	66.8,119 67,118.8 67.2,118.6 67.4,118.4 67.6,118.3 67.8,118.1 68.1,118 68.3,117.8 68.5,117.7 68.7,117.6 68.9,117.5 69.1,117.4 
	69.3,117.4 69.5,117.3 69.7,117.3 69.9,117.3 70.3,117.3 70.8,117.2 71.4,117.2 72.1,117.2 72.8,117.2 73.6,117.1 74.4,117.1 
	75.1,117.1 75.9,117.1 76.7,117 77.4,117 78.1,117.1 78.4,117.1 78.7,117.1 79,117.1 79.3,117.1 79.5,117.1 79.7,117.2 79.9,117.2 
	80.1,117.3 80.2,117.3 80.4,117.4 80.6,117.5 80.8,117.6 81.2,117.8 81.7,118 82.2,118.3 82.8,118.6 83.4,118.9 84,119.2 
	84.6,119.5 85.3,119.8 85.6,120 85.9,120.1 86.2,120.2 86.5,120.3 86.8,120.5 87.1,120.5 87.4,120.6 87.7,120.7 88,120.8 
	88.2,120.8 88.5,120.8 88.7,120.8 89,120.8 89.2,120.8 89.5,120.9 89.8,120.9 90.4,121 91.1,121.1 91.9,121.2 92.6,121.3 
	93.4,121.4 94.3,121.5 95.1,121.6 96,121.8 96.4,121.8 96.8,121.8 97.2,121.9 97.7,121.9 98.1,121.9 98.5,121.9 98.9,122 99.4,122 
	99.8,121.9 100.2,121.9 100.6,121.9 101,121.9 101.3,121.8 101.7,121.8 102,121.7 102.4,121.6 102.7,121.6 103,121.5 103.3,121.4 
	103.6,121.4 103.9,121.3 104.2,121.2 104.5,121.1 104.7,121.1 104.9,121 105.2,120.9 105.4,120.8 105.6,120.7 105.8,120.6 
	106,120.5 106.2,120.4 106.3,120.3 106.5,120.2 106.6,120.1 106.8,120 106.9,119.8 107,119.7 107.1,119.6 107.2,119.5 107.3,119.3 
	107.4,119.2 107.5,119.1 107.5,118.9 107.6,118.8 107.6,118.7 107.7,118.5 107.7,118.3 107.7,118.2 107.7,118 107.8,117.8 
	107.8,117.6 107.8,117.4 107.8,117.2 107.8,117 107.8,116.8 107.8,116.5 107.7,116.1 107.7,115.6 107.7,115.1 107.6,114.6 
	107.5,114.1 107.4,113.6 107.3,113.1 107.3,112.6 107.2,112.1 107.1,111.7 107,111.4 107,111.1 106.9,110.8 106.8,110.5 
	106.6,109.8 106.4,109 106.1,108.1 105.9,107.2 105.6,106.3 105.3,105.4 105,104.5 104.7,103.6 104.4,102.8 104.2,102 104,101.4 
	103.8,100.8 103.6,100.3 103.5,99.9 103.4,99.6 103.3,99.2 103.1,98.7 103,98.2 102.9,97.9 102.8,97.7 102.7,97.4 102.6,97.1 
	102.5,96.7 102.3,96.4 102.2,96.1 102,95.8 101.9,95.5 101.7,95.1 101.5,94.8 101.3,94.5 101.1,94.2 100.9,93.9 100.7,93.6 
	100.4,93.3 100.2,93 99.9,92.7 99.6,92.4 99.3,92.2 99,91.9 98.6,91.7 98.3,91.5 97.9,91.3 97.5,91.1 97.1,90.9 96.7,90.7 
	96.2,90.6 95.8,90.4 95.3,90.3 94.8,90.1 94.3,90 93.9,89.9 93.4,89.8 92.9,89.7 92.4,89.6 91.9,89.5 91.4,89.4 91,89.3 90.5,89.2 
	89.6,89.1 88.8,89 88.1,88.9 87.4,88.8 86.9,88.8 86.5,88.7 86.3,88.7 86.2,88.7 49,92.8 "/>
<polygon fill-rule="evenodd" clip-rule="evenodd" fill="#522423" points="7.6,8.7 7.5,8.8 7.3,9 7.2,9.2 7,9.4 6.9,9.7 6.7,10 
	6.6,10.1 6.5,10.3 6.5,10.5 6.4,10.7 6.3,10.9 6.3,11.1 6.2,11.3 6.1,11.6 6.1,11.8 6,12.1 6,12.3 5.9,12.6 5.9,12.9 5.9,13.2 
	5.9,13.5 5.9,13.8 5.9,14.4 5.8,15.1 5.8,15.7 5.8,16.4 5.7,17 5.7,17.6 5.6,18.2 5.6,18.7 5.5,19.2 5.5,19.7 5.4,20.1 5.4,20.4 
	5.4,20.7 5.3,20.9 5.3,21.1 5.3,21.1 5.4,21.2 5.8,21.5 6,21.8 6.3,22 6.6,22.2 6.9,22.5 7.1,22.6 7.3,22.8 7.5,22.9 7.7,23 
	7.9,23.1 8.1,23.3 8.3,23.4 8.5,23.5 8.7,23.6 8.9,23.6 9.1,23.7 9.3,23.8 9.5,23.8 9.7,23.9 9.9,23.9 10.1,23.9 10.3,23.9 
	10.4,23.9 10.6,23.9 10.8,24 11.2,24 11.5,24.1 12.2,24.2 12.8,24.4 13.1,24.5 13.4,24.5 13.6,24.6 13.7,24.6 13.9,24.6 14,24.6 
	14.2,24.6 14.3,24.6 14.5,24.6 14.6,24.6 14.7,24.6 14.9,24.6 15,24.5 15.1,24.5 15.4,24.4 15.7,24.2 16.1,24.1 16.5,23.9 
	16.9,23.7 17.3,23.6 17.8,23.4 18.2,23.2 18.6,23 19.1,22.8 19.5,22.6 19.8,22.4 20.2,22.2 20.5,22 20.7,21.9 20.8,21.8 20.9,21.7 
	21,21.7 21.3,21.5 21.5,21.3 21.9,21 22.2,20.7 22.9,20.1 23.6,19.5 24.2,18.9 24.8,18.5 25.1,18.1 25.3,18 27,14.4 28.4,13.5 
	29.5,14.9 37.9,11.2 35.7,8.4 31.2,3.1 31.1,3.1 31,3 30.7,2.8 30.4,2.6 30,2.4 29.6,2.1 29.2,1.8 28.7,1.6 28.2,1.3 27.7,1 
	27.2,0.7 26.8,0.5 26.6,0.4 26.4,0.3 26.2,0.2 26,0.1 25.9,0.1 25.7,0 25.6,0 25.5,0 25.1,0 24.6,0 24,0.1 23.3,0.2 22.5,0.3 
	21.9,0.4 21.5,0.4 21.3,0.5 21,0.5 20.8,0.6 20.5,0.6 20.2,0.7 19.7,0.8 19.3,0.9 18.7,1.1 18.2,1.2 17.6,1.4 17,1.6 16.4,1.7 
	15.8,1.9 15.5,2 15.2,2.2 14.9,2.3 14.7,2.4 14.4,2.5 14.2,2.6 14,2.7 13.8,2.9 13.6,3 13.4,3.1 13.3,3.2 13.2,3.4 13.1,3.5 
	12.9,3.7 12.8,3.8 12.6,4 12.4,4.1 12.2,4.3 12,4.4 11.8,4.6 11.4,5 10.9,5.3 10.4,5.7 9.9,6 9.5,6.4 9,6.8 8.8,7 8.6,7.1 8.4,7.3 
	8.3,7.5 8.1,7.7 8,7.8 7.9,8 7.7,8.1 7.7,8.3 7.6,8.4 7.6,8.6 7.6,8.7 "/>
<polygon fill-rule="evenodd" clip-rule="evenodd" fill="#E3A7AA" points="52.1,88.5 51.8,89.2 51.5,89.9 51.2,90.6 51,91.4 
	50.8,92.1 50.5,92.9 50.3,93.7 50.1,94.5 50,95.3 49.8,96.2 49.6,97 49.5,97.8 49.4,98.7 49.3,99.6 49.2,100.4 49.2,101.3 
	49.1,102.2 49.1,103.1 49.1,103.9 49.1,104.8 49.1,105.7 49.1,106.5 49.2,107.3 49.3,108.2 49.4,109 49.5,109.8 49.7,110.6 
	49.8,111.4 50,112.1 50.3,112.8 50.5,113.5 50.7,114.2 50.9,114.6 51,114.9 51.2,115.2 51.4,115.6 51.6,115.9 51.7,116.2 
	51.9,116.5 52.1,116.8 52.3,117 52.5,117.3 52.8,117.5 53,117.8 53.2,118 53.5,118.2 53.7,118.4 54,118.6 54.3,118.7 54.5,118.9 
	54.8,119 55.1,119.1 55.4,119.2 55.7,119.3 56,119.4 56.4,119.5 56.7,119.5 57,119.5 57.4,119.5 57.7,119.5 58.1,119.5 58.5,119.4 
	58.9,119.3 59.3,119.2 59.5,119.1 59.8,119 60.1,118.9 60.4,118.8 60.6,118.7 60.9,118.6 61.1,118.5 61.4,118.4 61.9,118.1 
	62.4,117.9 62.8,117.6 63.3,117.4 63.8,117.1 64.2,116.9 64.5,116.8 64.7,116.6 65,116.5 65.3,116.4 65.5,116.3 65.8,116.2 
	66.1,116.1 66.4,116 66.6,116 66.9,115.9 67.3,115.8 67.6,115.8 68,115.7 68.4,115.7 68.9,115.6 69.3,115.6 69.7,115.5 70.2,115.5 
	70.6,115.5 71,115.4 71.5,115.4 71.9,115.4 72.3,115.4 72.8,115.4 73.2,115.4 73.7,115.4 74.1,115.4 74.5,115.4 75,115.5 
	75.4,115.5 75.9,115.5 76.3,115.5 77.2,115.6 78.1,115.7 78.9,115.8 79.8,116 80.6,116.1 81.5,116.2 82,116.3 82.5,116.5 
	83.1,116.6 83.6,116.7 84.7,117 85.9,117.2 87,117.5 88.2,117.8 88.8,117.9 89.4,118.1 90,118.2 90.7,118.3 91.3,118.4 91.9,118.5 
	92.5,118.6 93.1,118.7 93.7,118.8 94.3,118.8 94.9,118.8 95.5,118.8 96,118.8 96.6,118.8 97.2,118.8 97.8,118.7 98.3,118.6 
	98.9,118.5 99.4,118.3 99.9,118.2 100.4,118 100.8,117.8 101.2,117.5 101.5,117.3 101.8,117 102.1,116.7 102.3,116.4 102.5,116 
	102.7,115.7 102.9,115.3 103,114.9 103.1,114.4 103.2,114 103.2,113.6 103.3,113.1 103.3,112.7 103.3,112.2 103.3,111.7 
	103.2,111.2 103.2,110.7 103.1,110.3 103.1,109.8 103,109.3 102.9,108.8 102.8,108.3 102.7,107.8 102.6,107.3 102.5,106.8 
	102.3,105.9 102.1,105 101.9,104.3 101.7,103.5 101.5,102.8 101.3,102.1 101.1,101.4 100.8,100.8 100.6,100.1 100.3,99.5 100,98.9 
	99.8,98.3 99.4,97.7 99.1,97.2 98.8,96.6 98.4,96.1 98,95.6 97.6,95.1 97.2,94.7 96.7,94.2 96.3,93.8 95.8,93.4 95.3,93 94.8,92.6 
	94.2,92.2 93.7,91.9 93.1,91.6 92.4,91.3 91.8,91 91.1,90.7 90.4,90.4 89.7,90.2 89,89.9 88.2,89.7 52.1,88.5 "/>
<polygon fill-rule="evenodd" clip-rule="evenodd" fill="#522423" points="27.1,12.9 26.9,13 26.5,13.4 26,13.9 25.2,14.6 24.3,15.4 
	23.2,16.4 22.1,17.4 20.9,18.5 20.3,19.1 19.7,19.7 19.1,20.3 18.5,20.9 17.9,21.5 17.3,22.1 16.7,22.7 16.2,23.2 15.6,23.8 
	15.1,24.4 14.6,24.9 14.2,25.4 13.8,25.9 13.4,26.4 13.1,26.8 12.8,27.2 12.5,27.6 12.3,28 12,28.5 11.7,29 11.5,29.5 11.2,30.1 
	10.9,30.6 10.7,31.2 10.4,31.8 10.1,32.5 9.9,33.1 9.6,33.8 9.4,34.4 9.1,35.1 8.8,35.8 8.6,36.5 8.4,37.1 8.1,37.8 7.9,38.5 
	7.7,39.2 7.5,39.9 7.3,40.5 7.1,41.2 6.9,41.8 6.8,42.4 6.6,43 6.5,43.6 6.4,44.2 6.2,44.8 6.1,45.3 6.1,45.8 6,46.2 5.8,47.2 
	5.7,48.3 5.5,49.5 5.4,50.7 5.3,51.4 5.3,52.1 5.2,52.8 5.1,53.5 5.1,54.2 5,54.9 5,55.6 5,56.3 4.9,57.1 4.9,57.8 4.9,58.5 
	4.9,59.2 4.9,59.8 4.9,60.5 5,61.2 5,61.8 5.1,62.4 5.2,63 5.3,63.6 5.4,64.1 5.5,64.6 5.6,65.1 5.8,65.5 6,65.9 6.4,66.7 6.7,67.5 
	7.1,68.2 7.5,69 7.9,69.8 8.3,70.5 8.8,71.3 9.2,72.1 9.7,72.8 10.1,73.6 10.4,74 10.6,74.4 10.9,74.7 11.1,75.1 11.4,75.5 
	11.7,75.9 12,76.3 12.2,76.6 12.5,77 12.8,77.4 13.1,77.8 13.5,78.2 13.8,78.6 14.1,78.9 14.5,79.3 14.8,79.7 15.2,80.1 15.6,80.5 
	16,80.8 16.3,81.2 16.7,81.6 17.2,81.9 17.6,82.3 18,82.7 18.4,83 18.9,83.4 19.3,83.7 19.7,84 20.2,84.4 20.6,84.7 21.1,85 
	21.5,85.3 22,85.6 22.5,85.9 22.9,86.2 23.4,86.5 23.9,86.8 24.3,87 24.8,87.3 25.2,87.5 25.7,87.8 26.1,88 26.6,88.2 27.1,88.4 
	27.3,88.4 27.8,88.5 28.8,88.7 30,88.9 31.5,89.2 33.2,89.5 35.1,89.9 37.1,90.2 39.1,90.6 41.2,91 43.4,91.4 45.4,91.8 47.3,92.2 
	49.2,92.5 50.8,92.9 52.2,93.1 52.8,93.3 53.5,93.3 54.2,93.4 54.9,93.5 55.6,93.5 56.3,93.6 57.1,93.6 57.8,93.6 58.6,93.6 
	59.4,93.6 60.2,93.5 61,93.5 61.8,93.4 62.7,93.4 63.5,93.3 64.3,93.2 66,93 67.8,92.9 69.5,92.7 71.2,92.5 72.9,92.3 74.7,92.1 
	75.5,92 76.3,91.9 77.2,91.8 78,91.8 78.8,91.7 79.6,91.6 80.4,91.5 81.1,91.4 81.8,91.3 82.5,91.2 83.2,91 83.9,90.9 84.5,90.7 
	85.1,90.6 85.7,90.4 86.3,90.2 86.9,90 87.4,89.8 88,89.6 88.6,89.4 89.1,89.2 89.6,88.9 90.1,88.7 90.7,88.4 91.2,88.2 91.7,87.9 
	92.2,87.6 92.7,87.4 93.8,86.8 94.8,86.2 95.9,85.6 97.1,85 97.6,84.6 98.2,84.3 98.7,84 99.2,83.6 99.8,83.2 100.3,82.9 
	100.8,82.5 101.3,82.1 101.7,81.7 102.2,81.3 102.6,80.9 103.1,80.5 103.5,80.1 103.9,79.7 104.3,79.3 104.7,78.9 105.1,78.4 
	105.4,78 105.8,77.6 106.1,77.2 106.5,76.8 106.8,76.4 107.1,76 107.4,75.6 107.6,75.2 107.9,74.8 108.2,74.5 108.4,74.1 
	108.7,73.7 108.9,73.4 109.1,73.1 109.3,72.7 109.5,72.4 109.6,72.1 109.8,71.7 110,71.3 110.1,71 110.3,70.6 110.4,70.2 
	110.6,69.7 110.7,69.3 110.8,68.9 111,68.4 111.1,68 111.2,67.5 111.3,67.1 111.4,66.6 111.5,66.1 111.7,65.1 111.8,64.2 112,63.2 
	112.1,62.2 112.3,61.3 112.4,60.3 112.5,59.4 112.7,58.5 112.7,58 112.8,57.5 112.8,56.9 112.8,56.4 112.8,55.7 112.8,55.1 
	112.8,54.4 112.7,53.7 112.7,53 112.6,52.3 112.5,51.6 112.4,50.8 112.3,50.1 112.2,49.3 112.1,48.5 112,47.8 111.9,47 111.7,46.2 
	111.6,45.5 111.4,44.8 111.3,44 111.1,43.3 110.9,42.7 110.8,42 110.6,41.4 110.4,40.8 110.2,40.2 110,39.7 109.8,39.2 109.7,38.8 
	109.5,38.4 109.3,38.1 109.1,37.7 108.9,37.3 108.7,36.9 108.4,36.4 107.9,35.4 107.4,34.2 106.7,33 106.1,31.6 105.7,30.9 
	105.4,30.2 105,29.5 104.6,28.8 104.2,28.1 103.8,27.4 103.3,26.7 102.9,26 102.4,25.3 102,24.6 101.5,23.9 101,23.3 100.4,22.6 
	99.9,22 99.4,21.4 98.8,20.9 98.2,20.4 97.6,19.9 97,19.4 96.4,19 95,18.2 93.5,17.4 92.7,16.9 91.9,16.5 91.1,16 90.2,15.5 
	89.3,15 88.4,14.5 87.5,14 86.5,13.6 85.6,13.1 84.6,12.6 83.7,12.1 82.7,11.6 81.7,11.2 80.7,10.7 79.8,10.3 78.8,9.9 77.9,9.5 
	76.9,9.1 76,8.8 75.1,8.4 74.1,8.1 73.3,7.8 72.4,7.6 71.6,7.4 70.8,7.2 70,7 69.2,6.9 68.5,6.8 67.8,6.7 66.9,6.7 66,6.6 65,6.6 
	63.9,6.6 62.7,6.6 61.5,6.6 60.2,6.6 58.9,6.6 57.5,6.7 56.1,6.7 54.6,6.8 53.1,6.9 51.6,7 50.1,7.2 48.5,7.3 47,7.5 45.4,7.7 
	43.9,7.9 42.4,8.1 40.9,8.4 39.4,8.7 37.9,9 36.5,9.3 35.1,9.6 33.8,10 32.5,10.4 31.3,10.9 30.1,11.3 29,11.8 28,12.4 27.1,12.9 
	"/>
<polygon fill-rule="evenodd" clip-rule="evenodd" fill="#E3A7AA" points="56.7,9.4 55.7,9.3 54.7,9.3 53.6,9.3 52.6,9.4 51.6,9.4 
	50.5,9.5 49.5,9.5 48.5,9.6 47.5,9.7 46.4,9.9 45.4,10 44.4,10.2 43.4,10.4 42.4,10.6 41.4,10.8 40.4,11 39.4,11.3 38.4,11.6 
	37.4,11.9 36.5,12.2 35.5,12.5 34.6,12.9 33.7,13.3 32.8,13.7 31.9,14.1 31,14.6 30.2,15 29.3,15.5 28.5,16 27.7,16.6 26.9,17.1 
	26.1,17.7 24.8,18.8 23.5,20 22.2,21.3 21,22.6 19.8,24.1 18.7,25.6 17.6,27.1 16.5,28.8 15.6,30.4 14.6,32.2 13.8,33.9 13,35.8 
	12.2,37.6 11.6,39.5 11,41.4 10.4,43.3 10,45.2 9.6,47.1 9.3,49.1 9.1,51 9,53 9,54.9 9,56.8 9.2,58.7 9.5,60.6 9.8,62.4 10.3,64.2 
	10.8,65.9 11.5,67.6 12.3,69.3 13.2,70.9 14.2,72.4 15.3,73.8 16.3,75 17.5,76.3 18.7,77.4 19.9,78.5 21.2,79.6 22.6,80.6 24,81.5 
	25.5,82.4 26.9,83.2 28.5,84 30,84.7 31.6,85.4 33.2,86 34.9,86.6 36.5,87.2 38.2,87.7 39.9,88.1 41.6,88.5 43.4,88.9 45.1,89.2 
	46.8,89.5 48.5,89.8 50.3,90 52,90.2 53.7,90.3 55.4,90.4 57.1,90.5 58.7,90.5 60.4,90.5 62,90.5 63.6,90.4 64.9,90.4 66.2,90.3 
	67.5,90.2 68.8,90.1 70,90 71.3,89.9 72.5,89.7 73.7,89.6 75,89.4 76.2,89.2 77.3,89 78.5,88.8 79.7,88.5 80.9,88.2 82,87.9 
	83.1,87.6 84.3,87.2 85.4,86.8 86.5,86.4 87.6,85.9 88.6,85.5 89.7,84.9 90.8,84.4 91.8,83.8 92.9,83.2 93.9,82.5 94.9,81.8 
	95.9,81.1 96.9,80.3 97.9,79.4 98.9,78.6 99.9,77.6 100.9,76.6 101.9,75.5 102.8,74.4 103.6,73.3 104.4,72.2 105.1,71.1 105.7,69.9 
	106.3,68.8 106.8,67.7 107.2,66.5 107.6,65.3 107.9,64.1 108.2,62.9 108.4,61.7 108.5,60.5 108.7,59.3 108.7,58 108.7,56.8 
	108.7,55.5 108.7,54.3 108.5,53 108.4,51.7 108.2,50.4 108,49.1 107.8,47.8 107.5,46.5 107.2,45.2 106.9,43.9 106.6,42.5 
	106.2,41.2 105.8,39.8 105.4,38.5 104.8,36.6 104.1,34.9 103.3,33.2 102.4,31.6 101.4,30 100.3,28.5 99.1,27 97.9,25.7 96.6,24.3 
	95.2,23.1 93.8,21.9 92.3,20.7 90.8,19.6 89.2,18.6 87.5,17.6 85.9,16.7 84.1,15.9 82.4,15.1 80.6,14.3 78.8,13.6 77,13 75.1,12.4 
	73.3,11.9 71.4,11.4 69.6,11 67.7,10.6 65.8,10.3 64,10 62.1,9.8 60.3,9.6 58.5,9.4 56.7,9.4 "/>
<polygon fill-rule="evenodd" clip-rule="evenodd" fill="#E09094" points="105.4,38.5 104.8,36.8 104.2,35.2 103.5,33.7 102.7,32.2 
	101.8,30.7 100.9,29.3 99.9,28 98.8,26.7 97.7,25.5 96.5,24.3 95.3,23.1 94,22 92.7,21 91.3,20 89.9,19 88.4,18.1 86.9,17.3 
	85.4,16.5 83.8,15.7 82.2,15 80.6,14.3 79,13.7 77.3,13.1 75.6,12.6 74,12.1 72.3,11.6 70.6,11.2 68.9,10.8 67.2,10.5 65.5,10.2 
	63.9,10 62.2,9.8 63.4,10.2 64.6,10.6 65.8,11.1 67,11.6 68.2,12.1 69.4,12.6 70.5,13.1 71.7,13.7 72.8,14.3 73.9,15 75,15.6 
	76,16.3 77.1,17 78.1,17.7 79.1,18.5 80.1,19.2 81,20.1 81.9,20.9 82.8,21.8 83.7,22.6 84.5,23.5 85.3,24.5 86,25.5 86.8,26.4 
	87.4,27.5 88.1,28.5 88.7,29.6 89.3,30.7 89.8,31.8 90.3,33 90.7,34.2 91.1,35.4 91.5,36.8 91.9,38.1 92.3,39.5 92.6,40.8 93,42.1 
	93.2,43.4 93.5,44.8 93.8,46.1 94,47.4 94.1,48.7 94.3,49.9 94.4,51.2 94.4,52.5 94.5,53.7 94.5,55 94.4,56.2 94.3,57.4 94.1,58.7 
	93.9,59.9 93.6,61.1 93.3,62.2 92.9,63.4 92.5,64.6 92,65.7 91.4,66.9 90.8,68 90.1,69.1 89.4,70.3 88.6,71.4 87.6,72.4 86.7,73.5 
	85.6,74.6 84.6,75.5 83.7,76.4 82.7,77.2 81.7,78 80.6,78.7 79.6,79.4 78.6,80.1 77.6,80.7 76.5,81.3 75.4,81.9 74.4,82.4 
	73.3,82.9 72.2,83.3 71.1,83.8 70,84.2 68.9,84.5 67.7,84.9 66.6,85.2 65.4,85.5 64.2,85.7 63.1,85.9 61.9,86.2 60.7,86.4 
	59.5,86.5 58.2,86.7 57,86.8 55.7,86.9 54.5,87.1 53.2,87.2 51.9,87.2 50.6,87.3 49.3,87.4 48.5,87.4 47.7,87.4 46.9,87.4 46,87.5 
	45.2,87.5 44.4,87.4 43.5,87.4 42.7,87.4 41.8,87.4 40.9,87.3 40.1,87.3 39.2,87.2 38.3,87.1 37.5,87.1 36.6,87 35.7,86.9 
	36.6,87.2 37.4,87.4 38.3,87.7 39.2,87.9 40.1,88.1 40.9,88.3 41.8,88.6 42.7,88.7 43.6,88.9 44.5,89.1 45.4,89.3 46.3,89.4 
	47.2,89.6 48,89.7 48.9,89.8 49.8,89.9 50.7,90 51.6,90.1 52.5,90.2 53.4,90.3 54.3,90.3 55.1,90.4 56,90.4 56.9,90.5 57.7,90.5 
	58.6,90.5 59.4,90.5 60.3,90.5 61.1,90.5 61.9,90.5 62.8,90.5 63.6,90.4 64.9,90.4 66.2,90.3 67.5,90.2 68.8,90.1 70,90 71.3,89.9 
	72.5,89.7 73.7,89.6 75,89.4 76.2,89.2 77.3,89 78.5,88.8 79.7,88.5 80.9,88.2 82,87.9 83.1,87.6 84.3,87.2 85.4,86.8 86.5,86.4 
	87.6,85.9 88.6,85.5 89.7,84.9 90.8,84.4 91.8,83.8 92.9,83.2 93.9,82.5 94.9,81.8 95.9,81.1 96.9,80.3 97.9,79.4 98.9,78.6 
	99.9,77.6 100.9,76.6 101.9,75.5 102.8,74.4 103.6,73.3 104.4,72.2 105.1,71.1 105.7,69.9 106.3,68.8 106.8,67.7 107.2,66.5 
	107.6,65.3 107.9,64.1 108.2,62.9 108.4,61.7 108.5,60.5 108.7,59.3 108.7,58 108.7,56.8 108.7,55.5 108.7,54.3 108.5,53 
	108.4,51.7 108.2,50.4 108,49.1 107.8,47.8 107.5,46.5 107.2,45.2 106.9,43.9 106.6,42.5 106.2,41.2 105.8,39.8 105.4,38.5 "/>
<polygon fill-rule="evenodd" clip-rule="evenodd" fill="#522423" points="40.4,42.8 40.2,42.9 39.8,43.1 39.2,43.4 38.4,43.8 38,44 
	37.5,44.3 37,44.5 36.4,44.8 35.8,45.2 35.2,45.5 34.6,45.9 33.9,46.2 33.3,46.6 32.6,47 32,47.4 31.3,47.9 30.6,48.3 30,48.8 
	29.3,49.2 28.7,49.7 28.1,50.2 27.5,50.7 27,51.2 26.4,51.7 25.9,52.2 25.5,52.7 25.1,53.2 24.7,53.7 24.4,54.2 24,54.7 23.7,55.2 
	23.4,55.7 23.1,56.2 22.8,56.6 22.5,57.1 22.3,57.5 22,58 21.8,58.4 21.6,58.9 21.4,59.3 21.2,59.7 21,60.1 20.8,60.5 20.7,60.9 
	20.6,61.3 20.5,61.7 20.4,62.1 20.3,62.5 20.3,62.8 20.2,63.2 20.2,63.6 20.2,63.9 20.2,64.3 20.3,64.6 20.3,65 20.4,65.3 
	20.5,65.6 20.6,66 20.8,66.3 20.9,66.6 21.1,66.9 21.3,67.3 21.6,67.7 21.8,68.1 22.1,68.6 22.4,69 22.7,69.5 23.1,70 23.5,70.5 
	23.9,71 24.3,71.6 24.8,72.1 25.3,72.6 25.8,73.2 26.3,73.7 26.9,74.3 27.5,74.8 28.1,75.3 28.8,75.9 29.5,76.4 30.2,76.9 31,77.4 
	31.7,77.8 32.6,78.3 33.4,78.7 34.3,79.1 35.2,79.5 36.2,79.8 37.2,80.2 38.2,80.4 39.3,80.7 40.4,80.9 41.5,81.1 42.6,81.2 
	43.8,81.4 44.9,81.5 46.1,81.7 47.2,81.8 48.4,81.9 49.6,81.9 50.7,82 51.9,82.1 53,82.1 54.2,82.2 55.3,82.2 56.4,82.2 57.5,82.2 
	58.5,82.2 59.6,82.2 60.6,82.1 61.6,82.1 62.6,82 63.5,82 64.4,81.9 65.3,81.8 66.1,81.8 66.9,81.7 67.6,81.6 68.3,81.5 69,81.4 
	69.6,81.3 70.1,81.1 70.6,81 71.1,80.9 71.9,80.6 72.8,80.3 73.7,80.1 74.7,79.7 75.1,79.6 75.6,79.4 76.1,79.2 76.6,79 77.1,78.8 
	77.6,78.6 78,78.4 78.5,78.2 79,77.9 79.5,77.7 80,77.5 80.4,77.2 80.9,77 81.4,76.7 81.8,76.4 82.3,76.1 82.7,75.8 83.2,75.5 
	83.6,75.2 84,74.9 84.4,74.5 84.8,74.2 85.1,73.8 85.5,73.4 86.2,72.6 87,71.8 87.8,71 88.6,70.1 89,69.7 89.4,69.3 89.8,68.8 
	90.2,68.4 90.6,67.9 91,67.5 91.3,67 91.7,66.5 92,66.1 92.3,65.6 92.6,65.1 92.9,64.7 93.1,64.2 93.3,63.7 93.5,63.3 93.7,62.8 
	93.8,62.3 93.9,61.9 94,61.4 94,61 94,60.5 93.9,60 93.8,59.6 93.6,59.1 93.5,58.7 93.3,58.2 93.1,57.7 93,57.3 92.7,56.2 
	92.4,55.2 92.2,54.7 92,54.2 91.9,53.6 91.7,53.1 91.5,52.6 91.3,52.1 91.1,51.6 90.9,51.1 90.7,50.6 90.4,50.1 90.2,49.6 
	89.9,49.2 89.6,48.8 89.3,48.3 89,47.9 88.6,47.6 88.2,47.2 87.9,46.9 87.4,46.6 87,46.3 86.5,46.1 86,45.9 85.4,45.7 84.9,45.5 
	84.3,45.4 83.6,45.2 82.9,45 82.2,44.8 80.6,44.3 78.8,43.7 77.8,43.4 76.8,43.1 75.8,42.8 74.6,42.5 73.5,42.2 72.3,41.9 71,41.6 
	69.7,41.4 68.3,41.2 66.9,41 65.4,40.8 63.8,40.6 62.2,40.5 60.5,40.5 58.8,40.5 57,40.5 55.2,40.6 53.2,40.7 51.3,40.9 49.2,41.1 
	47.1,41.4 44.9,41.8 42.7,42.3 40.4,42.8 "/>
<polygon fill-rule="evenodd" clip-rule="evenodd" fill="#EBC5CB" points="39.7,46.2 39.6,46.3 39.2,46.5 38.5,46.8 37.7,47.3 
	37.2,47.6 36.6,47.9 36.1,48.2 35.5,48.6 34.9,48.9 34.2,49.3 33.6,49.8 32.9,50.2 32.3,50.7 31.6,51.2 30.9,51.7 30.3,52.2 
	29.6,52.8 29,53.4 28.4,53.9 27.8,54.5 27.3,55.2 26.8,55.8 26.3,56.4 25.9,57.1 25.5,57.8 25.2,58.4 24.9,59.1 24.7,59.8 
	24.5,60.5 24.5,61.2 24.5,62 24.5,62.7 24.6,63.4 24.8,64.1 25,64.8 25.2,65.6 25.5,66.3 25.9,67 26.3,67.7 26.7,68.4 27.2,69.1 
	27.8,69.7 28.3,70.4 28.9,71 29.6,71.7 30.2,72.3 30.9,72.9 31.6,73.4 32.4,74 33.1,74.5 33.9,75 34.7,75.5 35.6,75.9 36.4,76.4 
	37.3,76.8 38.1,77.1 39,77.4 39.9,77.7 40.7,78 41.6,78.2 42.5,78.4 43.6,78.5 44.6,78.6 45.8,78.8 47,78.8 48.3,78.9 49.7,78.9 
	51.1,78.9 52.5,78.9 54,78.9 55.5,78.9 57,78.8 58.6,78.7 60.1,78.6 61.7,78.4 63.2,78.3 64.8,78.1 66.3,77.9 67.9,77.6 69.3,77.4 
	70.8,77.1 72.2,76.8 73.6,76.5 74.9,76.2 76.2,75.8 77.4,75.4 78.6,75 79.6,74.6 80.6,74.2 81.5,73.7 82.3,73.2 83,72.7 83.6,72.2 
	84.2,71.7 84.8,71.2 85.4,70.6 86,70.1 86.5,69.6 87,69 87.5,68.4 88,67.9 88.4,67.3 88.8,66.8 89.2,66.2 89.6,65.6 89.9,65 
	90.2,64.5 90.4,63.9 90.7,63.3 90.9,62.8 91,62.2 91.2,61.6 91.3,61 91.3,60.5 91.4,59.9 91.4,59.4 91.3,58.8 91.2,58.3 91.1,57.7 
	91,57.2 90.7,56.6 90.5,56.1 90.2,55.6 89.9,55.1 89.5,54.5 89.1,54 88.6,53.4 88.1,52.7 87.5,52.1 86.8,51.4 86.1,50.7 85.3,50 
	84.5,49.4 83.5,48.7 82.5,48 81.5,47.4 80.3,46.7 79.1,46.1 77.7,45.6 76.3,45 74.8,44.6 73.2,44.1 71.6,43.7 69.8,43.4 67.9,43.2 
	65.9,43 63.8,42.9 61.6,42.8 59.3,42.9 56.8,43 54.3,43.3 51.6,43.6 48.9,44.1 45.9,44.7 42.9,45.4 39.7,46.2 "/>
<polygon fill-rule="evenodd" clip-rule="evenodd" fill="#522423" points="40.6,56.4 40.6,56.5 40.4,56.7 40.1,56.9 39.7,57.3 
	39.2,57.8 38.7,58.3 38.1,58.8 37.6,59.4 37.3,59.7 37,60 36.7,60.4 36.5,60.7 36.2,61 35.9,61.3 35.7,61.6 35.5,61.9 35.3,62.2 
	35.1,62.5 34.9,62.8 34.8,63.1 34.7,63.4 34.6,63.6 34.5,63.8 34.5,64 34.5,64.2 34.6,64.4 34.6,64.6 34.6,64.8 34.7,65 34.8,65.1 
	34.9,65.3 34.9,65.5 35,65.6 35.1,65.8 35.3,65.9 35.4,66 35.5,66.1 35.6,66.3 35.7,66.4 35.9,66.5 36,66.6 36.1,66.7 36.3,66.8 
	36.4,66.8 36.6,67 36.8,67.1 37.1,67.2 37.2,67.3 42,66.8 44,60.8 44,60.6 43.9,60 43.8,59.7 43.7,59.3 43.6,59 43.5,58.8 
	43.4,58.6 43.4,58.4 43.3,58.2 43.1,58 43,57.8 42.9,57.6 42.8,57.4 42.6,57.2 42.5,57 42.3,56.9 42.1,56.7 42,56.6 41.8,56.5 
	41.6,56.5 41.4,56.4 41.1,56.4 40.9,56.4 40.6,56.4 "/>
<polygon fill-rule="evenodd" clip-rule="evenodd" fill="#522423" points="71.6,55.5 71.6,55.6 71.8,55.8 72.2,56 72.6,56.4 
	73.1,56.8 73.6,57.3 74.2,57.8 74.8,58.4 75.1,58.6 75.4,58.9 75.7,59.2 76,59.5 76.3,59.8 76.5,60.1 76.8,60.5 77,60.7 77.3,61 
	77.5,61.3 77.6,61.6 77.8,61.9 77.9,62.1 78,62.4 78.1,62.6 78.1,62.8 78.1,63 78.1,63.2 78.1,63.4 78,63.6 78,63.7 77.9,63.9 
	77.8,64.1 77.8,64.2 77.7,64.4 77.6,64.5 77.5,64.7 77.4,64.8 77.2,65 77.1,65.1 77,65.2 76.9,65.3 76.8,65.4 76.7,65.5 76.5,65.6 
	76.4,65.7 76.2,65.9 76,66 75.7,66.1 75.6,66.2 70.8,65.9 68.4,60.1 68.4,59.9 68.5,59.3 68.6,59 68.7,58.5 68.7,58.3 68.8,58.1 
	68.9,57.9 69,57.7 69.1,57.4 69.2,57.2 69.3,57 69.4,56.8 69.5,56.6 69.6,56.4 69.8,56.2 69.9,56.1 70.1,55.9 70.3,55.8 70.4,55.7 
	70.6,55.6 70.9,55.6 71.1,55.5 71.3,55.5 71.6,55.5 "/>
<polygon fill-rule="evenodd" clip-rule="evenodd" fill="#522423" points="38.3,33.9 38.3,34.1 38.3,34.2 38.3,34.3 38.3,34.5 
	38.3,34.6 38.3,34.7 38.2,34.9 38.2,35 38.1,35.1 38.1,35.2 38,35.3 38,35.5 37.9,35.6 37.8,35.7 37.8,35.8 37.7,35.9 37.6,35.9 
	37.5,36 37.5,36.1 37.4,36.2 37.3,36.3 37.2,36.3 37.1,36.4 37,36.4 36.9,36.5 36.8,36.5 36.7,36.6 36.6,36.6 36.5,36.6 36.4,36.6 
	36.3,36.6 36.2,36.7 36.1,36.6 35.9,36.6 35.8,36.6 35.7,36.6 35.6,36.6 35.5,36.5 35.4,36.5 35.3,36.4 35.2,36.4 35.1,36.3 
	35,36.3 34.9,36.2 34.9,36.1 34.8,36 34.7,35.9 34.6,35.9 34.6,35.8 34.5,35.7 34.4,35.6 34.4,35.5 34.3,35.3 34.3,35.2 34.2,35.1 
	34.2,35 34.1,34.9 34.1,34.7 34.1,34.6 34,34.5 34,34.3 34,34.2 34,34.1 34,33.9 34,33.8 34,33.7 34,33.5 34,33.4 34.1,33.2 
	34.1,33.1 34.1,33 34.2,32.9 34.2,32.8 34.3,32.6 34.3,32.5 34.4,32.4 34.4,32.3 34.5,32.2 34.6,32.1 34.6,32 34.7,31.9 34.8,31.8 
	34.9,31.8 34.9,31.7 35,31.6 35.1,31.5 35.2,31.5 35.3,31.4 35.4,31.4 35.5,31.3 35.6,31.3 35.7,31.3 35.8,31.2 35.9,31.2 
	36.1,31.2 36.2,31.2 36.3,31.2 36.4,31.2 36.5,31.2 36.6,31.3 36.7,31.3 36.8,31.3 36.9,31.4 37,31.4 37.1,31.5 37.2,31.5 
	37.3,31.6 37.4,31.7 37.5,31.8 37.5,31.8 37.6,31.9 37.7,32 37.8,32.1 37.8,32.2 37.9,32.3 38,32.4 38,32.5 38.1,32.6 38.1,32.8 
	38.2,32.9 38.2,33 38.3,33.1 38.3,33.2 38.3,33.4 38.3,33.5 38.3,33.7 38.3,33.8 38.3,33.9 "/>
<polygon fill-rule="evenodd" clip-rule="evenodd" fill="#522423" points="84.7,36.5 84.7,36.6 84.7,36.7 84.7,36.9 84.6,37 
	84.6,37.1 84.6,37.2 84.6,37.3 84.5,37.4 84.5,37.5 84.5,37.6 84.4,37.7 84.4,37.8 84.3,37.9 84.3,38 84.2,38.1 84.1,38.1 
	84.1,38.2 84,38.3 83.9,38.4 83.9,38.4 83.8,38.5 83.7,38.5 83.6,38.6 83.5,38.6 83.5,38.7 83.4,38.7 83.3,38.7 83.2,38.8 
	83.1,38.8 83,38.8 82.9,38.8 82.8,38.8 82.7,38.8 82.6,38.8 82.5,38.8 82.5,38.8 82.4,38.7 82.3,38.7 82.2,38.7 82.1,38.6 82,38.6 
	81.9,38.5 81.9,38.5 81.8,38.4 81.7,38.4 81.7,38.3 81.6,38.2 81.5,38.1 81.5,38.1 81.4,38 81.3,37.9 81.3,37.8 81.2,37.7 
	81.2,37.6 81.2,37.5 81.1,37.4 81.1,37.3 81.1,37.2 81,37.1 81,37 81,36.9 81,36.7 81,36.6 81,36.5 81,36.4 81,36.3 81,36.2 81,36 
	81,35.9 81.1,35.8 81.1,35.7 81.1,35.6 81.2,35.5 81.2,35.4 81.2,35.3 81.3,35.2 81.3,35.1 81.4,35 81.5,35 81.5,34.9 81.6,34.8 
	81.7,34.7 81.7,34.7 81.8,34.6 81.9,34.5 81.9,34.5 82,34.4 82.1,34.4 82.2,34.3 82.3,34.3 82.4,34.3 82.5,34.2 82.5,34.2 
	82.6,34.2 82.7,34.2 82.8,34.2 82.9,34.2 83,34.2 83.1,34.2 83.2,34.2 83.3,34.3 83.4,34.3 83.5,34.3 83.5,34.4 83.6,34.4 
	83.7,34.5 83.8,34.5 83.9,34.6 83.9,34.7 84,34.7 84.1,34.8 84.1,34.9 84.2,35 84.3,35 84.3,35.1 84.4,35.2 84.4,35.3 84.5,35.4 
	84.5,35.5 84.5,35.6 84.6,35.7 84.6,35.8 84.6,35.9 84.6,36 84.7,36.2 84.7,36.3 84.7,36.4 84.7,36.5 "/>
<polygon fill-rule="evenodd" clip-rule="evenodd" fill="#E3A7AA" points="36.2,12.1 36.1,12 35.9,11.6 35.7,11.3 35.5,11 35.2,10.7 
	34.9,10.3 34.6,9.9 34.2,9.4 33.8,8.9 33.4,8.4 32.9,7.9 32.4,7.4 31.9,6.9 31.4,6.4 30.8,5.9 30.3,5.4 29.7,4.9 29.1,4.4 28.4,4 
	27.8,3.6 27.2,3.2 26.5,2.8 25.8,2.5 25.2,2.3 24.5,2.1 23.8,1.9 23.1,1.8 22.4,1.8 21.7,1.9 21,2 20.4,2.1 19.7,2.3 19.1,2.5 
	18.4,2.7 17.8,2.9 17.2,3.1 16.7,3.4 16.1,3.6 15.6,3.9 15.1,4.2 14.6,4.4 14.1,4.7 13.6,5 13.2,5.3 12.8,5.7 12.4,6 12,6.3 
	11.7,6.7 11.3,7 11,7.4 10.8,7.7 10.5,8.1 10.3,8.5 10.1,8.9 9.9,9.2 9.7,9.6 9.6,10 9.4,10.4 9.4,10.8 9.3,11.3 9.2,11.7 9.2,12.1 
	9.2,12.5 9.2,13 9.2,13.4 9.1,13.9 9,14.8 8.9,15.8 8.8,16.3 8.8,16.8 8.7,17.3 8.7,17.8 8.7,18.2 8.7,18.7 8.7,19.1 8.7,19.5 
	8.7,20 8.8,20.4 8.8,20.7 9,21.1 9.1,21.4 9.3,21.7 9.5,22 9.7,22.2 10,22.4 10.3,22.6 10.7,22.7 11.1,22.8 11.5,22.9 12,22.9 
	12.6,22.9 13.2,22.8 13.8,22.7 14.4,22.5 15,22.4 15.6,22.2 16.2,22.1 16.7,21.9 17.3,21.7 17.8,21.4 18.3,21.2 18.8,21 19.3,20.7 
	19.8,20.5 20.2,20.2 20.6,19.9 21.1,19.6 21.5,19.3 21.9,18.9 22.2,18.6 22.6,18.3 22.9,17.9 23.2,17.6 23.5,17.2 23.8,16.8 
	24.1,16.5 24.3,16.1 24.6,15.7 24.8,15.3 25,14.9 25.1,14.5 25.3,14.1 25.4,13.6 25.5,13.2 25.7,13.2 26.1,13.2 26.4,13.2 
	26.8,13.2 27,13.3 27.2,13.3 27.4,13.3 27.6,13.4 27.8,13.4 28,13.5 28.2,13.5 28.5,13.6 28.7,13.7 28.9,13.7 29.1,13.8 29.3,13.9 
	29.6,14.1 29.8,14.2 30,14.3 30.2,14.5 30.4,14.6 30.6,14.8 30.7,15 30.9,15.2 36.2,12.1 "/>
<polygon fill-rule="evenodd" clip-rule="evenodd" fill="#522423" points="25.5,15.2 25.5,15.1 25.5,14.8 25.5,14.3 25.5,13.8 
	25.5,13.2 25.5,12.6 25.5,12 25.5,11.5 25.5,11.1 25.5,10.6 25.5,10.1 25.5,9.7 25.5,9.3 25.5,9 25.5,8.8 25.5,8.7 27.2,11.5 
	27.2,13.8 25.5,15.2 "/>
<polygon fill-rule="evenodd" clip-rule="evenodd" fill="#522423" points="27.2,15.2 31.5,12.9 33.4,13.2 29.8,15.2 27.2,15.2 "/>
<polygon fill-rule="evenodd" clip-rule="evenodd" fill="#522423" points="113.7,16.5 113.8,16.6 114,16.8 114.1,17 114.2,17.2 
	114.3,17.5 114.4,17.8 114.4,18 114.5,18.2 114.5,18.4 114.6,18.6 114.6,18.8 114.7,19 114.7,19.3 114.7,19.5 114.8,19.7 114.8,20 
	114.8,20.3 114.8,20.5 114.8,20.8 114.7,21.1 114.7,21.4 114.7,21.7 114.6,22.4 114.5,23 114.4,23.6 114.4,24.3 114.3,24.9 
	114.3,25.5 114.3,26.1 114.2,26.6 114.2,27.1 114.2,27.6 114.2,28 114.2,28.4 114.2,28.7 114.2,28.9 114.2,29 114.2,29 114,29.1 
	113.6,29.4 113.4,29.6 113.1,29.8 112.7,30 112.3,30.2 112.1,30.3 111.9,30.4 111.7,30.5 111.5,30.6 111.3,30.7 111.1,30.8 
	110.9,30.9 110.7,30.9 110.4,31 110.2,31 110,31.1 109.8,31.1 109.6,31.1 109.4,31.2 109.2,31.2 109,31.1 108.8,31.1 108.7,31.1 
	108.5,31.1 108.3,31.1 108,31.1 107.6,31.1 106.9,31.2 106.3,31.2 105.9,31.2 105.6,31.3 105.5,31.3 105.3,31.3 105.2,31.3 
	105,31.3 104.9,31.2 104.7,31.2 104.6,31.2 104.5,31.2 104.3,31.1 104.2,31.1 104.1,31 103.9,31 103.4,30.6 102.7,30.2 101.9,29.7 
	101.1,29.2 100.7,29 100.3,28.7 99.9,28.4 99.6,28.2 99.3,28 99,27.7 98.8,27.6 98.7,27.5 98.6,27.4 98.5,27.3 98.3,27.1 98.1,26.8 
	97.8,26.6 97.5,26.2 96.9,25.5 96.3,24.8 95.8,24.2 95.3,23.6 95,23.2 94.9,23.1 93.7,19.2 92.5,18.2 91.1,19.4 83.3,14.6 86,12.1 
	91.2,7.5 91.2,7.4 91.4,7.4 91.7,7.3 92,7.1 92.4,6.9 92.9,6.7 93.4,6.5 93.9,6.3 94.4,6.1 94.9,5.9 95.4,5.7 95.9,5.5 96.1,5.5 
	96.3,5.4 96.5,5.3 96.7,5.3 96.9,5.3 97,5.2 97.1,5.2 97.2,5.2 97.6,5.3 98.1,5.4 98.8,5.6 99.4,5.7 100.1,5.9 100.8,6.1 101.1,6.2 
	101.4,6.3 101.6,6.4 101.8,6.5 102.1,6.6 102.4,6.7 102.8,6.9 103.3,7.1 103.8,7.3 104.3,7.5 104.9,7.7 105.5,8 106,8.3 106.6,8.6 
	106.9,8.7 107.1,8.9 107.4,9 107.6,9.2 107.8,9.3 108.1,9.5 108.3,9.6 108.4,9.8 108.6,9.9 108.7,10.1 108.9,10.2 109,10.4 
	109,10.5 109.2,10.7 109.3,10.8 109.4,11 109.6,11.2 109.8,11.4 109.9,11.6 110.1,11.8 110.5,12.2 110.9,12.6 111.3,13 111.8,13.5 
	112.2,13.9 112.6,14.3 112.7,14.5 112.9,14.8 113.1,15 113.2,15.1 113.3,15.3 113.5,15.5 113.5,15.7 113.6,15.9 113.7,16 
	113.7,16.2 113.7,16.3 113.7,16.5 "/>
<polygon fill-rule="evenodd" clip-rule="evenodd" fill="#E3A7AA" points="84.9,15.6 85,15.5 85.3,15.2 85.5,15 85.8,14.7 86.1,14.4 
	86.5,14 86.9,13.7 87.3,13.3 87.8,12.9 88.2,12.4 88.8,12 89.3,11.6 89.9,11.1 90.5,10.7 91.1,10.3 91.8,9.9 92.4,9.5 93.1,9.1 
	93.8,8.8 94.4,8.4 95.1,8.1 95.8,7.9 96.5,7.7 97.2,7.5 97.9,7.4 98.6,7.4 99.3,7.4 100,7.5 100.7,7.6 101.4,7.8 102,8.1 102.6,8.4 
	103.2,8.6 103.8,8.9 104.4,9.2 105,9.5 105.5,9.9 106,10.2 106.5,10.5 107,10.9 107.4,11.2 107.8,11.6 108.3,11.9 108.6,12.3 
	109,12.7 109.3,13.1 109.7,13.4 110,13.8 110.2,14.2 110.5,14.6 110.7,15 110.9,15.4 111.1,15.8 111.2,16.2 111.4,16.7 111.5,17.1 
	111.6,17.5 111.6,17.9 111.7,18.3 111.7,18.7 111.6,19.1 111.6,19.6 111.5,20 111.5,20.4 111.5,20.9 111.4,21.4 111.4,22.3 
	111.4,23.3 111.4,23.8 111.3,24.3 111.3,24.8 111.3,25.2 111.2,25.7 111.2,26.2 111.1,26.6 111.1,27 111,27.4 110.8,27.8 
	110.7,28.2 110.5,28.5 110.4,28.8 110.2,29.1 109.9,29.3 109.6,29.5 109.3,29.7 109,29.8 108.6,29.9 108.2,29.9 107.8,29.9 
	107.3,29.9 106.7,29.7 106.1,29.6 105.5,29.4 104.9,29.2 104.4,28.9 103.8,28.7 103.3,28.4 102.8,28.1 102.2,27.9 101.8,27.6 
	101.3,27.3 100.8,27 100.4,26.6 100,26.3 99.6,26 99.2,25.6 98.8,25.2 98.4,24.9 98.1,24.5 97.8,24.1 97.5,23.7 97.2,23.3 
	96.9,22.9 96.7,22.5 96.5,22.1 96.3,21.7 96.1,21.3 95.9,20.9 95.7,20.5 95.6,20 95.5,19.6 95.4,19.2 95.3,18.7 95.3,18.3 
	95.2,18.3 95.1,18.3 94.9,18.2 94.7,18.2 94.4,18.2 94,18.2 93.9,18.1 93.7,18.1 93.5,18.1 93.2,18.2 93,18.2 92.8,18.2 92.6,18.2 
	92.3,18.2 92.1,18.3 91.9,18.3 91.7,18.4 91.4,18.5 91.2,18.5 91,18.6 90.7,18.7 90.5,18.9 90.3,19 90.1,19.1 89.9,19.3 89.7,19.5 
	84.9,15.6 "/>
<polygon fill-rule="evenodd" clip-rule="evenodd" fill="#522423" points="95,20.3 95,20.2 95.1,19.9 95.1,19.4 95.2,18.9 95.3,18.3 
	95.4,17.7 95.5,17.1 95.5,16.6 95.6,16.2 95.7,15.7 95.7,15.3 95.8,14.8 95.9,14.4 95.9,14.1 95.9,13.9 95.9,13.9 93.9,16.4 
	93.5,18.6 95,20.3 "/>
<polygon fill-rule="evenodd" clip-rule="evenodd" fill="#522423" points="93.3,20 89.5,17.2 87.5,17.2 90.8,19.7 93.3,20 "/>
<polygon fill-rule="evenodd" clip-rule="evenodd" fill="#522423" points="112.2,18.9 112.2,18.6 112.2,18.4 112.1,18.2 112.1,17.9 
	112.1,17.7 112,17.4 111.9,17.2 111.8,17 111.7,16.8 111.6,16.5 111.4,16.3 111.3,16.1 111.1,15.9 110.9,15.7 110.8,15.5 
	110.6,15.3 110.4,15.1 110.2,15 110,14.8 109.8,14.6 109.6,14.5 109.3,14.3 109.1,14.2 108.9,14 108.7,13.9 108.4,13.8 108.2,13.7 
	108,13.6 107.8,13.5 107.5,13.4 107.3,13.4 107.1,13.3 107.3,13.5 107.5,13.8 107.8,14 108,14.2 108.2,14.5 108.4,14.7 108.6,15 
	108.8,15.2 109.2,15.7 109.6,16.2 110,16.8 110.4,17.3 110.8,17.8 111.2,18.4 111.5,18.9 111.9,19.4 112.3,19.9 112.7,20.4 
	112.9,20.7 113.1,20.9 113.3,21.1 113.5,21.4 113.4,21.1 113.2,20.8 113.1,20.6 112.9,20.3 112.8,20.1 112.6,19.8 112.4,19.6 
	112.2,19.4 112,19.2 111.8,19 111.7,18.8 111.4,18.6 111.2,18.4 111,18.2 110.8,18.1 110.6,17.9 110.4,17.7 110.1,17.6 109.9,17.4 
	109.7,17.3 109.2,17 108.7,16.7 108.2,16.5 107.7,16.2 107.2,16 106.7,15.7 107.2,16.2 107.7,16.6 108.2,17 108.7,17.4 109.2,17.9 
	109.7,18.3 109.9,18.6 110.1,18.8 110.4,19.1 110.6,19.3 110.8,19.5 111.1,19.8 111.3,20.1 111.5,20.3 111.7,20.6 111.9,20.9 
	112,21.1 112.2,21.4 112.4,21.7 112.5,22 112.7,22.3 112.8,22.6 112.9,22.9 113,23.2 113.1,23.5 113.1,23.8 112.8,23.5 112.4,23.1 
	112.1,22.8 111.7,22.4 111.3,22.1 110.9,21.8 110.5,21.5 110.1,21.3 109.7,21 109.3,20.7 108.9,20.5 108.5,20.2 108,20 107.6,19.8 
	107.2,19.5 106.7,19.3 107,19.5 107.2,19.7 107.5,19.9 107.7,20.1 107.9,20.3 108.2,20.5 108.4,20.7 108.6,20.9 108.8,21.1 
	109,21.4 109.2,21.6 109.5,21.8 109.7,22 109.8,22.3 110,22.5 110.2,22.7 110.4,23 110.6,23.2 110.8,23.5 111,23.7 111.1,24 
	111.3,24.2 111.4,24.5 111.6,24.7 111.8,25 111.9,25.3 112,25.5 112.2,25.8 112.3,26.1 112.5,26.3 112.6,26.6 112.7,26.9 
	112.6,26.6 112.5,26.4 112.3,26.2 112.2,26 112,25.8 111.8,25.6 111.7,25.4 111.5,25.1 111.3,24.9 111.1,24.7 110.9,24.5 
	110.7,24.4 110.4,24.2 110.2,24 110,23.8 109.7,23.6 109.5,23.5 109.2,23.3 109,23.1 108.8,23 108.5,22.8 108.2,22.7 108,22.5 
	107.7,22.4 107.5,22.3 107.2,22.2 106.9,22.1 106.7,21.9 106.4,21.8 106.2,21.8 105.9,21.7 105.6,21.6 106.1,21.9 106.6,22.2 
	106.8,22.4 107.1,22.6 107.4,22.8 107.6,23 107.9,23.2 108.1,23.5 108.4,23.7 108.6,23.9 108.9,24.2 109.1,24.4 109.4,24.6 
	109.6,24.9 109.8,25.2 110,25.4 110.2,25.7 110.4,26 110.6,26.2 110.8,26.5 110.9,26.8 111.1,27.1 111.2,27.4 111.3,27.7 
	111.4,27.9 111.5,28.2 111.5,28.5 111.6,28.8 111.6,29.1 111.6,29.4 111.5,29.2 111.4,29.1 111.3,28.9 111.2,28.7 111.1,28.6 
	111,28.4 110.8,28.3 110.7,28.2 110.6,28 110.5,27.9 110.3,27.8 110.2,27.6 110.1,27.5 109.9,27.4 109.8,27.3 109.6,27.2 
	109.4,27.1 109.3,27 109.1,26.9 109,26.8 108.8,26.7 108.6,26.6 108.4,26.6 108.3,26.5 108.1,26.4 107.9,26.4 107.7,26.3 
	107.6,26.2 107.2,26.1 106.8,26.1 107.1,26.3 107.3,26.5 107.5,26.7 107.8,27 108,27.2 108.2,27.5 108.4,27.7 108.6,28 109,28.5 
	109.3,29 109.5,29.3 109.7,29.6 109.9,29.8 110.1,30.1 112.2,18.9 "/>
<polygon fill-rule="evenodd" clip-rule="evenodd" fill="#522423" points="18.9,20.9 19.5,20.8 20.1,20.6 20.7,20.3 21.3,20 
	21.8,19.6 22.4,19.2 22.9,18.7 23.3,18.2 23.8,17.7 24.2,17.1 24.6,16.6 24.9,16 25.2,15.3 25.5,14.7 25.7,14.1 25.9,13.4 
	26.1,12.8 26.2,12.1 26.2,11.5 26.2,10.9 26.2,10.3 26.1,9.7 25.9,9.1 25.7,8.6 25.4,8.2 25.1,7.7 24.7,7.3 24.2,7 23.6,6.7 23,6.5 
	22.4,6.3 21.6,6.2 21.8,6.3 22,6.5 22.1,6.7 22.3,6.8 22.5,7 22.6,7.2 22.8,7.4 22.9,7.6 23.1,7.8 23.2,7.9 23.4,8.1 23.5,8.3 
	23.6,8.5 23.7,8.7 23.9,8.9 24,9.1 24.1,9.3 24.2,9.5 24.3,9.7 24.4,10 24.5,10.2 24.5,10.4 24.6,10.6 24.7,10.8 24.7,11 24.8,11.2 
	24.8,11.5 24.9,11.7 24.9,11.9 24.9,12.1 24.9,12.4 24.9,12.6 24.7,12.4 24.5,12.2 24.2,12 24,11.8 23.5,11.5 23,11.1 22.5,10.8 
	22,10.4 21.8,10.3 21.6,10.1 21.3,9.9 21.1,9.7 21.3,10 21.6,10.4 21.8,10.7 22.1,11 22.3,11.4 22.5,11.7 22.8,12.1 23,12.5 
	23.1,12.6 23.2,12.8 23.3,13 23.4,13.2 23.5,13.4 23.6,13.6 23.6,13.8 23.7,14 23.8,14.2 23.8,14.4 23.9,14.6 23.9,14.8 24,15 
	24,15.2 24,15.4 24,15.7 23.9,15.4 23.7,15.2 23.5,14.9 23.4,14.7 23.2,14.5 23,14.3 22.8,14.1 22.5,13.9 22.3,13.7 22.1,13.6 
	21.8,13.4 21.6,13.3 21.4,13.1 21.1,13 20.8,12.9 20.6,12.8 20.7,12.9 20.8,13.1 20.9,13.2 21,13.4 21.1,13.5 21.2,13.7 21.3,13.9 
	21.4,14 21.6,14.4 21.7,14.7 21.9,15 22,15.4 22.1,15.7 22.2,16.1 22.4,16.4 22.5,16.8 22.7,17.5 22.9,18.2 22.8,18 22.8,17.9 
	22.7,17.8 22.6,17.7 22.5,17.6 22.5,17.5 22.4,17.4 22.3,17.2 22.2,17.2 22.1,17.1 22,17 21.9,16.9 21.8,16.8 21.7,16.7 21.6,16.6 
	21.5,16.5 21.4,16.5 21.3,16.4 21.2,16.4 21,16.3 20.9,16.2 20.8,16.2 20.7,16.1 20.5,16.1 20.4,16 20.3,16 20.1,16 20,15.9 
	19.7,15.9 19.4,15.9 19.6,16.2 19.8,16.6 20.1,16.9 20.3,17.3 20.4,17.5 20.5,17.7 20.5,17.9 20.6,18.1 20.7,18.3 20.7,18.5 
	20.8,18.7 20.8,18.9 20.9,19.1 20.9,19.3 20.9,19.5 20.9,19.7 20.9,19.9 20.8,20.1 20.8,20.2 20.7,20.4 20.6,20.6 20.5,20.7 
	20.4,20.8 20.2,21 20.1,21.1 19.9,21.2 19.6,21.3 19.4,21.4 18.9,20.9 "/>
<polygon fill-rule="evenodd" clip-rule="evenodd" fill="#522423" points="97.4,29.6 97.7,30 98,30.3 98.3,30.6 98.7,31 99,31.3 
	99.3,31.6 99.7,32 100,32.3 100.8,32.9 101.5,33.6 102.2,34.2 102.9,34.9 103.2,35.2 103.6,35.5 103.9,35.8 104.2,36.2 104.6,36.5 
	104.9,36.9 105.2,37.2 105.5,37.6 105.7,38 106,38.4 106.2,38.8 106.5,39.2 106.7,39.6 106.9,40 107.1,40.4 107.3,40.9 107,40.7 
	106.7,40.6 106.4,40.4 106.1,40.3 105.8,40.1 105.5,39.9 105.2,39.7 105,39.6 104.4,39.2 103.8,38.8 103.3,38.4 102.7,38 
	102.1,37.7 101.6,37.3 101,36.9 100.4,36.5 100.1,36.3 99.8,36.2 99.5,36 99.3,35.8 99,35.7 98.7,35.5 98.4,35.4 98.1,35.2 
	98.4,35.6 98.7,35.9 99,36.3 99.4,36.6 99.7,36.9 100,37.2 100.4,37.6 100.7,37.9 101.4,38.5 102.1,39 102.8,39.6 103.4,40.2 
	103.8,40.5 104.1,40.8 104.4,41.1 104.7,41.4 105,41.7 105.4,42 105.7,42.4 106,42.7 106.2,43 106.5,43.4 106.8,43.7 107.1,44.1 
	107.3,44.5 107.6,44.9 107.8,45.3 108,45.7 107.5,45.4 107.1,45.1 106.6,44.8 106.2,44.5 105.7,44.2 105.3,43.9 104.9,43.6 
	104.4,43.3 104,43 103.5,42.7 103.1,42.5 102.6,42.2 102.1,41.9 101.6,41.7 101.4,41.6 101.1,41.5 100.9,41.3 100.6,41.2 
	100.9,41.4 101.2,41.6 101.5,41.7 101.8,41.9 102.2,42.1 102.5,42.4 102.8,42.6 103.1,42.8 103.4,43.1 103.7,43.4 104.1,43.6 
	104.4,43.9 104.7,44.2 105,44.5 105.3,44.8 105.6,45.1 105.8,45.4 106.1,45.8 106.4,46.1 106.6,46.4 106.9,46.8 107.1,47.1 
	107.3,47.4 107.5,47.8 107.7,48.1 107.9,48.4 108,48.8 108.2,49.1 108.3,49.4 108.4,49.8 108.5,50.1 108.5,50.4 108.3,50.3 
	108.1,50.1 107.8,50 107.6,49.9 107.1,49.6 106.6,49.2 106.1,48.9 105.6,48.6 105.1,48.2 104.6,47.9 104.2,47.5 103.7,47.2 
	103.2,46.9 102.7,46.5 102.5,46.4 102.2,46.2 102,46.1 101.7,45.9 101.5,45.8 101.2,45.7 101,45.6 100.7,45.4 101,45.7 101.3,45.9 
	101.6,46.2 101.9,46.5 102.5,47.1 103.2,47.7 104,48.3 104.7,49 105.1,49.3 105.4,49.7 105.8,50 106.1,50.4 106.5,50.7 106.8,51.1 
	107.2,51.5 107.5,51.9 107.8,52.2 108,52.6 108.3,53 108.5,53.4 108.8,53.8 109,54.1 109.1,54.5 109.3,54.9 109.4,55.3 109.5,55.7 
	109.5,56.1 109.5,56.4 109.2,56.1 108.8,55.7 108.4,55.4 108,55.1 107.6,54.7 107.2,54.4 106.8,54.1 106.4,53.8 106,53.5 
	105.6,53.2 105.2,52.9 104.8,52.6 104.4,52.3 104,52 103.6,51.7 103.2,51.4 103.6,51.8 104.1,52.3 104.6,52.7 105,53.2 105.6,53.6 
	106,54.1 106.3,54.3 106.5,54.6 106.8,54.8 107,55.1 107.3,55.3 107.5,55.6 107.7,55.8 107.9,56.1 108.1,56.4 108.3,56.6 
	108.5,56.9 108.7,57.2 108.8,57.5 109,57.7 109.1,58 109.2,58.3 109.3,58.6 109.4,58.9 109.5,59.2 109.6,59.5 109,59.1 108.5,58.7 
	108,58.3 107.4,57.9 106.9,57.5 106.4,57.1 105.9,56.7 105.4,56.3 104.9,55.8 104.4,55.4 103.9,55 103.3,54.7 102.8,54.3 
	102.2,53.9 101.9,53.7 101.7,53.5 101.4,53.4 101.1,53.2 101.5,53.4 101.9,53.7 102.2,53.9 102.6,54.2 103,54.5 103.3,54.7 
	103.6,55 103.9,55.3 104.2,55.6 104.5,55.8 104.8,56.1 105,56.4 105.3,56.7 105.5,57 105.8,57.3 106,57.7 106.2,58 106.5,58.3 
	106.7,58.6 106.9,58.9 107.3,59.6 107.7,60.3 108.1,61 108.6,61.7 109,62.4 109.4,63.2 109.1,63 108.9,62.8 108.6,62.6 108.3,62.5 
	108.1,62.3 107.9,62.1 107.6,61.9 107.4,61.7 107,61.3 106.6,60.9 106.1,60.5 105.7,60.1 105.5,59.9 105.3,59.7 105.1,59.5 
	104.9,59.3 104.7,59.1 104.4,58.9 104.2,58.8 104,58.6 103.7,58.4 103.5,58.3 103.2,58.1 102.9,58 102.6,57.9 102.3,57.8 102,57.7 
	101.6,57.6 101.9,57.7 102.3,57.9 102.6,58.1 102.9,58.3 103.2,58.6 103.4,58.8 103.7,59.1 104,59.3 104.2,59.6 104.5,59.8 
	104.7,60.1 104.9,60.4 105.2,60.7 105.4,61 105.6,61.4 105.8,61.7 106,62 106.1,62.3 106.3,62.7 106.5,63 106.6,63.4 106.7,63.7 
	106.9,64 107,64.4 107.1,64.7 107.2,65.1 107.3,65.4 107.4,65.8 107.4,66.1 107.5,66.5 107.5,66.8 107.6,67.2 107.6,67 107.5,66.7 
	107.5,66.5 107.4,66.3 107.3,66.1 107.2,65.8 107.1,65.6 107,65.4 106.9,65.2 106.7,65 106.5,64.7 106.4,64.5 106.2,64.3 106,64.1 
	105.8,63.9 105.6,63.7 105.4,63.5 105.2,63.3 105,63.1 104.7,62.9 104.5,62.7 104.3,62.6 104.1,62.4 103.8,62.2 103.6,62.1 
	103.4,61.9 103.2,61.8 102.9,61.7 102.7,61.5 102.5,61.4 102.3,61.3 102.1,61.2 102.3,61.4 102.5,61.7 102.7,61.9 102.9,62.2 
	103,62.4 103.2,62.7 103.4,63 103.6,63.2 103.7,63.5 103.9,63.8 104,64.1 104.2,64.3 104.5,64.9 104.8,65.5 105,66.1 105.3,66.7 
	105.5,67.2 105.7,67.8 106,68.4 106.2,69 106.3,69.6 106.5,70.2 105.9,69.9 105.4,69.5 104.8,69.2 104.3,68.8 103.7,68.5 
	103.2,68.1 102.9,67.9 102.7,67.7 102.4,67.5 102.2,67.3 102.5,68 102.8,68.7 103.1,69.4 103.4,70.2 103.6,70.5 103.7,70.9 
	103.8,71.2 103.9,71.5 104,71.7 104,71.8 104,71.9 104,72.1 104,72.2 104.1,72.3 104.1,72.4 104,72.5 103.9,72.1 103.7,71.8 
	103.5,71.5 103.2,71.1 103,70.8 102.7,70.5 102.5,70.1 102.2,69.8 101.9,69.5 101.6,69.2 101.4,68.9 101.1,68.6 100.8,68.3 
	100.5,68 100.2,67.7 99.9,67.5 100.1,67.8 100.3,68.1 100.5,68.5 100.7,68.8 100.9,69.2 101.1,69.5 101.2,69.9 101.4,70.2 
	101.6,70.6 101.7,71 101.9,71.3 102,71.7 102.1,72.1 102.2,72.5 102.3,72.9 102.4,73.2 102.5,73.6 102.6,74 102.7,74.4 102.7,74.8 
	102.8,75.2 102.8,75.6 102.8,76 102.8,76.4 102.8,76.8 102.8,77.2 102.8,77.5 102.7,77.9 102.7,78.3 102.6,78.7 102.5,79.1 
	102.4,79.5 103.4,78 104.3,76.6 104.7,75.9 105.2,75.2 105.6,74.5 106.1,73.8 106.5,73.1 106.9,72.4 107.3,71.7 107.7,71 
	108.1,70.3 108.4,69.5 108.8,68.8 109.1,68.1 109.4,67.3 109.7,66.6 110,65.8 110.2,65.1 110.5,64.3 110.7,63.5 110.8,62.7 
	111,61.9 111.1,61.1 111.2,60.3 111.3,59.4 111.3,58.6 111.3,57.7 111.3,56.8 111.2,55.9 111.1,55 111,54 110.9,52.9 110.7,51.9 
	110.6,50.9 110.4,49.8 110.2,48.8 110.1,48.3 110,47.8 109.9,47.3 109.8,46.7 109.6,46.2 109.5,45.7 109.4,45.2 109.2,44.7 
	109.1,44.2 109,43.7 108.8,43.2 108.7,42.7 108.5,42.2 108.3,41.7 108.1,41.2 108,40.7 107.8,40.2 107.6,39.7 107.4,39.3 
	107.2,38.8 106.9,38.1 106.6,37.4 106.4,37 106.3,36.7 106.1,36.3 105.9,36 105.8,35.7 105.6,35.3 105.4,35 105.2,34.7 105,34.4 
	104.7,34.1 104.5,33.8 104.3,33.5 104.1,33.3 103.9,33.2 103.7,33 103.5,32.9 103.3,32.7 103.1,32.6 102.9,32.4 102.7,32.3 
	102.4,32.2 102.2,32.1 101.9,32 101.7,31.9 101.2,31.6 100.7,31.4 100.2,31.2 99.7,31 99.5,30.9 99.2,30.8 99,30.7 98.8,30.6 
	98.6,30.5 98.4,30.4 98.2,30.3 98,30.2 97.8,30 97.7,29.9 97.5,29.8 97.4,29.6 "/>
<polygon fill-rule="evenodd" clip-rule="evenodd" fill="#522423" points="109.5,56.4 109.5,56.4 109.3,56.2 109,55.9 108.7,55.5 
	108.2,55 107.7,54.4 107.1,53.8 106.4,53.1 106,52.8 105.7,52.4 105.3,52.1 104.9,51.7 104.4,51.4 104,51 103.6,50.7 103.2,50.3 
	102.7,50 102.3,49.7 101.8,49.3 101.3,49 100.9,48.7 100.4,48.4 99.9,48.2 99.4,47.9 99.5,48 99.8,48.1 100.3,48.4 100.9,48.7 
	101.6,49.1 102.4,49.6 102.9,49.9 103.3,50.1 103.8,50.4 104.3,50.7 104.7,51 105.2,51.4 105.7,51.7 106.2,52.1 106.7,52.4 
	107.1,52.8 107.6,53.1 108,53.5 108.4,53.9 108.8,54.3 109.2,54.7 109.6,55.1 109.9,55.4 110.2,55.8 110.4,56.2 110.6,56.6 
	109.5,56.4 "/>
<polygon fill-rule="evenodd" clip-rule="evenodd" fill="#E09094" points="99.9,118.2 100.4,118 100.8,117.8 101.2,117.5 
	101.5,117.3 101.8,117 102.1,116.7 102.3,116.4 102.5,116 102.7,115.7 102.9,115.3 103,114.9 103.1,114.4 103.2,114 103.2,113.6 
	103.3,113.1 103.3,112.7 103.3,112.2 103.3,111.7 103.2,111.2 103.2,110.7 103.1,110.3 103.1,109.8 103,109.3 102.9,108.8 
	102.8,108.3 102.7,107.8 102.6,107.3 102.5,106.8 102.3,105.9 102.1,105 101.9,104.3 101.7,103.5 101.5,102.8 101.3,102.1 
	101.1,101.4 100.8,100.8 100.6,100.1 100.3,99.5 100,98.9 99.8,98.3 99.4,97.7 99.1,97.2 98.8,96.6 98.4,96.1 98,95.6 97.6,95.1 
	97.2,94.7 96.7,94.2 96.3,93.8 95.8,93.4 95.3,93 94.8,92.6 94.2,92.2 93.7,91.9 93.1,91.6 92.4,91.3 91.8,91 91.1,90.7 90.4,90.4 
	89.7,90.2 89,89.9 88.2,89.7 85.2,89.6 84.1,92.4 84.6,92.6 85.1,92.9 85.6,93.2 86,93.5 86.4,93.9 86.8,94.3 87.2,94.7 87.5,95.1 
	87.8,95.6 88.1,96.1 88.4,96.7 88.6,97.2 88.8,97.8 89,98.4 89.2,99 89.3,99.6 89.4,100.2 89.5,100.8 89.5,101.4 89.5,102 
	89.5,102.6 89.4,103.2 89.3,103.7 89.2,104.3 89,104.8 88.8,105.4 88.6,105.9 88.3,106.4 88,106.8 87.7,107.2 87.3,107.6 86.8,108 
	86.5,108.2 86.1,108.4 85.7,108.6 85.3,108.8 84.9,109 84.4,109.1 84,109.2 83.5,109.3 83,109.4 82.5,109.5 82,109.6 81.4,109.7 
	80.9,109.7 80.4,109.8 79.8,109.8 79.3,109.8 78.7,109.8 78.2,109.9 77.6,109.9 77.1,109.9 76,109.9 74.9,109.9 74.4,109.9 
	73.9,109.9 73.4,110 73,110 72.5,110 72.1,110 71.6,110.1 71.2,110.1 70.8,110.2 70.4,110.2 69.9,110.3 69.4,110.3 68.9,110.4 
	68.4,110.4 67.9,110.5 67.4,110.5 66.9,110.6 66.4,110.7 65.9,110.8 65.4,110.9 65.2,111 65,111 64.7,111.1 64.5,111.2 64.3,111.2 
	64.1,111.3 63.9,111.4 63.7,111.5 63.6,111.6 63.4,111.7 63.3,111.8 63.1,111.9 63,112 62.9,112.1 62.7,112.2 62.6,112.4 
	62.5,112.5 62.4,112.6 62.3,112.8 62.2,112.9 62,113.2 61.8,113.5 61.6,113.8 61.5,114.1 61.3,114.3 61.1,114.6 61,114.7 
	60.9,114.8 60.8,114.9 60.7,115.1 60.6,115.2 60.5,115.2 60.3,115.3 60.2,115.4 59.8,115.6 59.5,115.8 59.1,116 58.7,116.1 
	58.4,116.2 58.1,116.3 57.7,116.4 57.4,116.5 57.1,116.6 56.7,116.6 56.4,116.6 56.1,116.6 55.8,116.6 55.5,116.6 55.2,116.5 
	54.9,116.5 54.6,116.4 54.4,116.3 54.1,116.2 53.8,116.1 53.5,116 53.3,115.9 53,115.8 52.7,115.6 52.5,115.4 52.2,115.3 52,115.1 
	51.7,114.9 51.5,114.7 51.2,114.5 51,114.3 50.7,114.1 50.7,114.2 50.7,114.2 50.9,114.6 51,114.9 51.2,115.2 51.4,115.6 
	51.6,115.9 51.7,116.2 51.9,116.5 52.1,116.8 52.3,117 52.5,117.3 52.8,117.5 53,117.8 53.2,118 53.5,118.2 53.7,118.4 54,118.6 
	54.3,118.7 54.5,118.9 54.8,119 55.1,119.1 55.4,119.2 55.7,119.3 56,119.4 56.4,119.5 56.7,119.5 57,119.5 57.4,119.5 57.7,119.5 
	58.1,119.5 58.5,119.4 58.9,119.3 59.3,119.2 59.5,119.1 59.8,119 60.1,118.9 60.4,118.8 60.6,118.7 60.9,118.6 61.1,118.5 
	61.4,118.4 61.9,118.1 62.4,117.9 62.8,117.6 63.3,117.4 63.8,117.1 64.2,116.9 64.5,116.8 64.7,116.6 65,116.5 65.3,116.4 
	65.5,116.3 65.8,116.2 66.1,116.1 66.4,116 66.6,116 66.9,115.9 67.3,115.8 67.6,115.8 68,115.7 68.4,115.7 68.9,115.6 69.3,115.6 
	69.7,115.5 70.2,115.5 70.6,115.5 71,115.4 71.5,115.4 71.9,115.4 72.3,115.4 72.8,115.4 73.2,115.4 73.7,115.4 74.1,115.4 
	74.5,115.4 75,115.5 75.4,115.5 75.9,115.5 76.3,115.5 77.2,115.6 78.1,115.7 78.9,115.8 79.8,116 80.6,116.1 81.5,116.2 82,116.3 
	82.5,116.5 83.1,116.6 83.6,116.7 84.7,117 85.9,117.2 87,117.5 88.2,117.8 88.8,117.9 89.4,118.1 90,118.2 90.7,118.3 91.3,118.4 
	91.9,118.5 92.5,118.6 93.1,118.7 93.7,118.8 94.3,118.8 94.9,118.8 95.5,118.8 96,118.8 96.6,118.8 97.2,118.8 97.8,118.7 
	98.3,118.6 98.9,118.5 99.4,118.3 99.9,118.2 "/>
<polygon fill-rule="evenodd" clip-rule="evenodd" fill="#522423" points="106.5,70.2 106.5,70.1 106.3,69.9 106.1,69.6 105.8,69.2 
	105.5,68.7 105.1,68.1 104.6,67.4 104.1,66.8 103.8,66.4 103.6,66.1 103.3,65.7 103,65.4 102.7,65.1 102.4,64.7 102.1,64.4 
	101.8,64.1 101.5,63.8 101.2,63.5 100.9,63.2 100.6,63 100.3,62.8 100,62.5 99.7,62.4 99.4,62.2 99.5,62.3 99.7,62.5 100,62.9 
	100.4,63.4 100.9,63.9 101.4,64.6 102,65.3 102.5,66.1 102.8,66.5 103.1,66.9 103.4,67.3 103.7,67.7 104,68.1 104.3,68.5 
	104.6,68.9 104.8,69.3 105,69.7 105.3,70.1 105.4,70.4 105.6,70.7 105.8,71.1 105.9,71.4 106,71.6 106.1,71.9 106.1,72.1 
	106.1,72.3 106.2,72.4 106.2,72.5 106.3,72.6 106.3,72.7 106.3,72.7 106.3,72.7 106.4,72.7 106.4,72.6 106.4,72.6 106.4,72.5 
	106.4,72.3 106.5,72 106.5,71.7 106.5,71.4 106.5,71.1 106.5,70.8 106.5,70.6 106.5,70.4 106.5,70.2 106.5,70.2 "/>
<polygon fill-rule="evenodd" clip-rule="evenodd" fill="#522423" points="83.1,47.9 82.9,47.7 82.6,47.5 82.3,47.4 82,47.2 81.8,47 
	81.5,46.9 81.2,46.7 80.9,46.6 80.6,46.4 80.3,46.3 80,46.2 79.7,46.1 79.4,46 79.1,45.9 78.7,45.8 78.4,45.7 78.1,45.6 77.8,45.6 
	77.4,45.5 77.1,45.5 76.8,45.4 76.5,45.4 76.1,45.4 75.8,45.3 75.5,45.3 75.1,45.3 74.8,45.3 74.5,45.3 74.1,45.3 73.8,45.3 
	73.5,45.3 73.2,45.4 73.7,45.4 74.2,45.5 74.7,45.6 75.2,45.7 75.7,45.8 76.2,45.9 76.7,46 77.2,46.2 77.7,46.3 78.2,46.5 
	78.7,46.7 79.2,46.9 79.6,47.1 80.1,47.3 80.6,47.5 81.1,47.7 81.6,48 82,48.2 82.5,48.5 82.9,48.8 83.4,49 83.8,49.3 84.2,49.6 
	84.7,49.9 85.1,50.2 85.5,50.5 85.9,50.8 86.3,51.2 86.6,51.5 87,51.8 87.4,52.2 87.7,52.5 83.1,47.9 "/>
<polygon fill-rule="evenodd" clip-rule="evenodd" fill="#522423" points="88.7,53 88.5,52.8 88.2,52.6 88,52.3 87.7,52.1 87.4,51.9 
	87.1,51.7 86.8,51.5 86.4,51.3 86.1,51.2 85.7,51 85.4,50.8 85,50.7 84.6,50.5 84.3,50.4 83.9,50.3 83.5,50.2 83.1,50.1 82.7,50 
	82.3,49.9 81.9,49.8 81.5,49.7 81.1,49.7 80.7,49.6 80.3,49.6 79.9,49.5 79.6,49.5 79.2,49.4 78.8,49.4 78.5,49.4 78.1,49.4 
	77.8,49.4 77.4,49.4 78.3,49.6 79.2,49.9 79.6,50 80.1,50.1 80.5,50.2 81,50.4 81.4,50.5 81.8,50.6 82.3,50.8 82.7,50.9 83.2,51.1 
	83.6,51.2 84,51.4 84.5,51.6 84.9,51.7 85.3,51.9 85.7,52.1 86.1,52.3 86.5,52.5 87,52.7 87.4,52.9 87.8,53.1 88.2,53.3 88.5,53.6 
	88.9,53.8 89.3,54 89.7,54.3 90,54.5 90.4,54.8 90.8,55.1 88.7,53 "/>
<polygon fill-rule="evenodd" clip-rule="evenodd" fill="#522423" points="91.3,56.6 90.8,56.3 90.3,56 89.9,55.7 89.4,55.4 
	88.9,55.1 88.4,54.8 87.9,54.6 87.4,54.3 87.2,54.2 86.9,54.1 86.7,54 86.4,53.9 86.2,53.8 85.9,53.7 85.7,53.6 85.4,53.5 
	85.2,53.4 84.9,53.4 84.6,53.3 84.4,53.2 84.1,53.2 83.9,53.1 83.6,53.1 83.4,53.1 84,53.5 84.6,53.8 85.2,54.2 85.8,54.6 86.4,55 
	87,55.4 87.6,55.8 88.2,56.2 88.8,56.6 89.4,57 90,57.4 90.6,57.8 91.1,58.3 91.7,58.7 92.2,59.2 92.8,59.7 91.3,56.6 "/>
<polygon fill-rule="evenodd" clip-rule="evenodd" fill="#522423" points="91.3,59.7 90.8,59.4 90.3,59.1 89.8,58.9 89.3,58.7 
	88.7,58.4 88.2,58.2 87.7,58 87.1,57.8 86.9,57.7 86.6,57.6 86.3,57.6 86,57.5 85.8,57.4 85.5,57.4 85.2,57.3 84.9,57.2 84.7,57.2 
	84.4,57.2 84.1,57.1 83.8,57.1 83.6,57.1 83.3,57.1 83,57.1 82.7,57.1 83.4,57.3 84.1,57.6 84.8,57.8 85.5,58.1 86.2,58.4 87,58.7 
	87.3,58.9 87.7,59 88,59.2 88.4,59.4 88.7,59.5 89.1,59.7 89.4,59.9 89.7,60.1 90.1,60.3 90.4,60.5 90.7,60.7 91,60.9 91.4,61.1 
	91.7,61.3 92,61.5 92.2,61.8 92.5,62 92.8,62.2 93.1,62.5 93.3,62.7 91.3,59.7 "/>
<polygon fill-rule="evenodd" clip-rule="evenodd" fill="#522423" points="91.3,63.2 91.1,63 91,62.9 90.8,62.7 90.7,62.6 90.5,62.4 
	90.4,62.3 90.2,62.1 90,62 89.9,61.9 89.7,61.8 89.5,61.7 89.3,61.6 89.1,61.5 88.9,61.4 88.7,61.3 88.6,61.2 88.1,61.1 87.7,60.9 
	87.3,60.8 86.9,60.7 86.5,60.6 86.1,60.5 85.7,60.3 85.3,60.2 85.6,60.5 86,60.7 86.3,61 86.7,61.2 87.4,61.7 88.1,62.2 88.8,62.7 
	89.5,63.2 89.8,63.5 90.1,63.7 90.5,64 90.8,64.2 91.3,63.2 "/>
<polygon fill-rule="evenodd" clip-rule="evenodd" fill="#522423" points="90.3,66.8 89.8,66.3 89.3,65.8 88.7,65.3 88.2,64.9 
	87.9,64.6 87.7,64.4 87.4,64.1 87.1,63.9 86.8,63.7 86.5,63.5 86.2,63.2 85.9,63 85.6,62.8 85.3,62.6 85,62.5 84.7,62.3 84.4,62.1 
	84.1,62 83.8,61.8 83.4,61.7 83.1,61.6 82.8,61.5 82.4,61.4 82.1,61.3 81.8,61.2 81.4,61.2 81.1,61.2 80.7,61.2 81,61.3 81.3,61.4 
	81.6,61.5 81.9,61.6 82.2,61.8 82.5,61.9 82.8,62.1 83.1,62.3 83.4,62.5 83.7,62.7 83.9,63 84.2,63.2 84.5,63.4 84.7,63.7 85,64 
	85.3,64.2 85.5,64.5 85.7,64.8 86,65.1 86.2,65.4 86.4,65.7 86.6,66 86.8,66.3 87,66.6 87.2,66.9 87.4,67.2 87.6,67.4 87.7,67.7 
	87.9,68 88,68.3 88.1,68.6 88.2,68.8 90.3,66.8 "/>
<polygon fill-rule="evenodd" clip-rule="evenodd" fill="#522423" points="87.2,69.8 87.1,69.7 86.9,69.5 86.8,69.4 86.6,69.2 
	86.4,68.9 86.1,68.6 85.7,68.3 85.4,68 85.1,67.8 84.7,67.5 84.4,67.3 84,67.1 83.7,66.8 83.3,66.6 82.9,66.4 82.5,66.3 82.1,66.1 
	81.8,65.9 82,66.3 82.3,66.6 82.6,66.9 82.9,67.2 83.3,67.6 83.6,67.9 83.9,68.2 84.2,68.5 84.9,69.1 85.5,69.7 85.8,70 86.1,70.3 
	86.4,70.6 86.7,70.9 87.2,69.8 "/>
<polygon fill-rule="evenodd" clip-rule="evenodd" fill="#522423" points="62.7,114.2 62.8,114.2 63,114.2 63.2,114.3 63.6,114.4 
	64.1,114.4 64.6,114.5 65.3,114.6 66,114.7 66.8,114.8 67.6,114.9 68.5,115 69.4,115.1 69.9,115.1 70.4,115.1 70.9,115.2 
	71.4,115.2 71.9,115.2 72.4,115.2 72.9,115.2 73.4,115.2 74,115.2 74.5,115.2 75.1,115.2 75.7,115.2 76.3,115.1 76.9,115.1 
	77.5,115 78.1,115 78.8,114.9 79.4,114.8 80.1,114.7 80.7,114.7 81.3,114.6 82,114.5 82.6,114.4 83.2,114.3 83.9,114.2 84.5,114 
	85.1,113.9 85.6,113.8 86.2,113.7 86.7,113.6 87.3,113.4 87.8,113.3 88.2,113.2 88.7,113 89.1,112.9 89.5,112.7 89.9,112.6 
	90.2,112.5 90.5,112.3 90.8,112.2 91,112 91.1,112 91.2,111.9 91.2,111.9 91.1,112 91,112.1 90.9,112.2 90.7,112.3 90.2,112.7 
	89.6,113.1 88.9,113.6 88.1,114.1 87.3,114.7 86.6,115.2 85.8,115.8 85.1,116.2 84.5,116.7 84,117 83.7,117.2 83.6,117.3 
	83.4,117.3 82.8,117.3 81.9,117.3 80.6,117.4 79.9,117.4 79.2,117.4 78.4,117.4 77.5,117.4 76.7,117.4 75.8,117.3 74.9,117.3 
	73.9,117.3 73,117.2 72.1,117.1 71.1,117.1 70.2,117 69.3,116.9 68.5,116.7 67.6,116.6 66.9,116.4 66.1,116.2 65.4,116 64.8,115.8 
	64.2,115.5 63.7,115.2 63.3,114.9 63,114.6 62.7,114.2 "/>
<polygon fill-rule="evenodd" clip-rule="evenodd" fill="#522423" points="101,98.4 100.4,98 99.9,97.6 99.3,97.2 98.7,96.7 
	98.1,96.3 97.5,95.8 97.2,95.6 96.9,95.4 96.6,95.2 96.3,94.9 95.9,94.7 95.6,94.5 95.3,94.4 94.9,94.2 94.6,94 94.3,93.8 
	93.9,93.7 93.6,93.6 93.2,93.4 92.9,93.3 92.6,93.2 92.2,93.1 91.8,93.1 91.5,93 91.1,93 90.8,93 91.2,93.1 91.7,93.3 92.1,93.4 
	92.5,93.6 93,93.8 93.4,94 93.8,94.2 94.2,94.5 94.6,94.7 95,94.9 95.4,95.2 95.8,95.5 96.2,95.7 96.6,96 96.9,96.3 97.3,96.6 
	97.7,96.9 98.1,97.2 98.4,97.5 98.8,97.8 99.1,98.1 99.5,98.5 99.8,98.8 100.1,99.1 100.8,99.8 101.4,100.4 102.1,101.1 
	102.7,101.7 102.5,101.5 102.3,101.2 102,101 101.8,100.8 101.5,100.5 101.3,100.3 101,100.1 100.7,99.9 100.4,99.7 100.1,99.5 
	99.7,99.3 99.4,99.1 99.1,98.9 98.7,98.7 98.4,98.5 98,98.3 97.7,98.2 97.3,98 97,97.9 96.6,97.7 96.2,97.6 95.9,97.5 95.5,97.4 
	95.2,97.3 94.8,97.2 94.5,97.1 94.1,97.1 93.8,97 93.5,97 93.1,97 92.8,96.9 92.5,97 93.3,97.4 94.1,97.9 94.9,98.3 95.6,98.8 
	96.4,99.3 97.1,99.7 97.4,100 97.8,100.2 98.1,100.4 98.4,100.7 98.8,100.9 99.1,101.2 99.4,101.4 99.7,101.7 100.1,102 
	100.4,102.3 100.7,102.5 101,102.8 101.3,103.1 101.6,103.4 101.9,103.7 102.3,104 102.6,104.3 102.9,104.7 103.2,105 103.5,105.4 
	103.2,105.2 102.8,105 102.5,104.9 102.2,104.7 101.9,104.5 101.6,104.3 101.4,104.1 101.1,103.9 100.5,103.6 100,103.2 99.4,102.8 
	98.9,102.5 98.6,102.3 98.3,102.1 98.1,102 97.8,101.8 97.5,101.7 97.2,101.5 96.9,101.4 96.6,101.3 96.3,101.2 95.9,101.1 
	95.6,101 95.3,100.9 94.9,100.9 94.6,100.8 94.2,100.8 93.8,100.8 94.2,100.8 94.5,100.9 94.9,101 95.3,101.1 95.6,101.3 96,101.4 
	96.4,101.6 96.7,101.8 97.1,102.1 97.5,102.3 97.9,102.6 98.2,102.8 98.6,103.1 99,103.4 99.3,103.7 99.7,104.1 100.1,104.4 
	100.4,104.7 100.8,105 101.1,105.4 101.8,106.1 102.5,106.7 103.1,107.4 103.7,108 104.3,108.6 104.9,109.2 104.6,109.1 104.3,109 
	104,108.9 103.7,108.7 103.4,108.6 103.1,108.5 102.8,108.3 102.5,108.2 102.2,108 101.9,107.9 101.6,107.7 101.3,107.5 
	100.7,107.2 100.1,106.8 99.6,106.4 99,106.1 98.4,105.7 97.8,105.3 97.2,105 96.7,104.6 96.4,104.5 96.1,104.3 95.8,104.2 
	95.5,104.1 95.8,104.4 96.2,104.7 96.5,105 96.8,105.3 97.5,105.9 98.2,106.5 98.8,107 99.5,107.6 100.2,108.1 100.8,108.7 
	101.1,109 101.5,109.3 101.8,109.6 102.1,109.9 102.4,110.2 102.7,110.5 103,110.8 103.3,111.1 103.6,111.5 103.8,111.8 
	104.1,112.1 104.4,112.5 104.6,112.9 104.9,113.2 105.1,113.6 105.4,114.1 105.1,113.8 104.8,113.5 104.6,113.3 104.3,113.1 
	104,112.8 103.8,112.6 103.5,112.4 103.2,112.2 102.9,112 102.6,111.8 102.3,111.6 102,111.4 101.7,111.2 101.4,111 101.1,110.8 
	100.7,110.7 100.4,110.5 100.1,110.3 99.8,110.2 99.4,110 99.1,109.9 98.8,109.7 98.5,109.6 98.1,109.5 97.5,109.2 96.8,109 
	96.1,108.7 95.5,108.5 96.1,109 96.7,109.5 97.3,109.9 97.9,110.4 98.4,110.9 99,111.4 99.5,111.9 100.1,112.4 100.6,112.9 
	101.1,113.4 101.6,113.9 102.1,114.4 102.6,115 103,115.5 103.5,116.1 104,116.7 103.5,116.4 102.9,116.2 102.4,115.9 101.9,115.6 
	101.4,115.4 100.8,115.1 100.3,114.8 99.8,114.6 99.2,114.3 98.7,114.1 98.1,113.8 97.6,113.6 97.1,113.4 96.5,113.1 96,112.9 
	95.5,112.6 95.9,112.8 96.3,113.1 96.7,113.3 97.1,113.5 97.4,113.7 97.7,114 98,114.2 98.3,114.5 98.6,114.7 98.9,115 99.1,115.2 
	99.3,115.5 99.5,115.8 99.7,116 99.9,116.3 100.1,116.6 100.3,116.9 100.5,117.2 100.7,117.5 100.8,117.8 101.2,118.4 101.5,119 
	101.8,119.6 102.2,120.3 102.4,120.6 102.6,120.9 102.8,121.2 103,121.6 103.3,121.4 103.7,121.2 104,121 104.2,120.8 104.5,120.5 
	104.7,120.3 105,120 105.2,119.8 105.4,119.5 105.5,119.2 105.7,119 105.9,118.7 106,118.4 106.1,118.1 106.2,117.8 106.3,117.5 
	106.4,117.2 106.4,116.9 106.5,116.6 106.5,116.2 106.5,115.9 106.5,115.6 106.5,115.2 106.5,114.9 106.5,114.6 106.5,114.2 
	106.4,113.9 106.4,113.5 106.3,113.2 106.2,112.9 106.1,112.5 106.1,112.2 101,98.4 "/>
<polygon fill-rule="evenodd" clip-rule="evenodd" fill="#522423" points="102.5,97.2 102.6,97.1 102.7,96.7 103,96.2 103.4,95.6 
	103.6,95.3 103.8,95 104,94.7 104.3,94.3 104.5,94 104.7,93.8 104.9,93.6 105,93.5 105.1,93.4 105.2,93.3 105.7,92.9 106.3,92.4 
	106.6,92.2 106.9,91.9 107.2,91.7 107.6,91.5 107.9,91.2 108.2,91 108.5,90.8 108.8,90.6 109,90.6 109.1,90.5 109.2,90.4 
	109.4,90.4 109.5,90.3 109.6,90.3 109.7,90.3 109.8,90.2 110,90.2 110.2,90.2 110.5,90.1 110.7,90 111.2,89.8 111.8,89.7 
	112.4,89.5 112.9,89.4 113.1,89.3 113.3,89.3 113.5,89.2 113.7,89.2 113.9,89.2 114.1,89.2 114.3,89.3 114.5,89.3 114.8,89.3 
	115.1,89.3 115.3,89.4 115.6,89.4 115.9,89.5 116.1,89.5 116.4,89.6 116.6,89.7 116.8,89.7 117,89.8 117.1,89.8 117.3,89.9 
	117.5,90.1 117.8,90.3 118.1,90.5 118.4,90.8 118.5,90.9 118.7,91 118.8,91.2 118.9,91.3 119,91.4 119.1,91.6 119.1,91.6 
	119.1,91.7 119.1,91.7 119.1,91.8 119.1,91.9 119.1,92.1 119.1,92.3 119,92.5 119,93.1 118.9,93.7 118.8,94.2 118.7,94.7 118.6,95 
	118.6,95.2 118.3,96.4 118.2,96.4 118.1,96.5 117.9,96.6 117.7,96.7 117.6,96.7 117.5,96.8 117.3,96.8 117.2,96.9 117.1,96.9 
	117,96.9 116.9,96.9 116.9,96.9 116.8,96.9 116.8,96.9 116.5,96.8 116.3,96.7 116,96.6 115.7,96.5 115.5,96.4 115.2,96.3 
	115.1,96.2 115.1,96.2 113.5,94.3 113.9,92.6 114.4,91.6 114.3,91.6 114.2,91.4 114,91.3 113.9,91.3 113.8,91.2 113.6,91.1 
	113.5,91 113.3,90.9 113.2,90.9 113.2,90.9 113.1,90.8 113,90.8 112.9,90.8 112.9,90.8 112.8,90.8 112.7,90.8 112.7,90.8 
	112.6,90.9 112.6,90.9 112.5,90.9 112.3,91.1 112.1,91.3 112,91.4 111.8,91.6 111.7,91.7 111.6,91.8 111.6,91.9 111.5,92 
	111.4,92.1 111.4,92.3 111.4,92.4 111.3,92.6 111.3,92.8 111.3,93.1 111.3,93.2 111.3,93.3 111.3,93.4 111.3,93.6 111.3,93.7 
	111.3,93.9 111.3,94 111.4,94.1 111.4,94.3 111.5,94.4 111.5,94.6 111.6,94.7 111.6,94.9 111.7,95 111.8,95.2 111.9,95.3 112,95.5 
	112.1,95.6 112.2,95.8 112.4,95.9 112.5,96.1 112.7,96.2 112.8,96.3 113,96.4 113.2,96.6 113.4,96.7 113.6,96.8 113.9,96.9 
	114.3,97.1 114.7,97.2 115,97.4 115.3,97.5 115.8,97.8 116.1,98 116.3,98 116.5,98.1 116.5,98.1 116.6,98.1 116.7,98.1 116.8,98.2 
	116.9,98.2 117,98.2 117.1,98.2 117.2,98.1 117.5,98.1 117.8,98.1 118.1,98 118.4,97.9 118.6,97.8 118.8,97.8 119,97.7 119.2,97.6 
	119.4,97.5 119.5,97.4 119.7,97.3 119.8,97.2 119.9,97.1 119.9,97 120,96.9 120.1,96.8 120.1,96.7 120.2,96.5 120.2,96.5 
	120.2,96.4 120.2,96.3 120.3,96.2 120.4,96 120.5,95.8 120.8,95.4 121,94.9 121.2,94.7 121.3,94.4 121.4,94.2 121.5,94 121.6,93.9 
	121.6,93.8 121.6,93.7 121.7,93.6 121.7,93.5 121.7,93.4 121.7,93.4 121.7,93.3 121.6,92.9 121.4,92.4 121.3,92 121.2,91.7 
	121.1,91.3 120.9,90.9 120.9,90.7 120.8,90.5 120.7,90.3 120.6,90.1 120.5,89.9 120.3,89.8 120.2,89.6 120.1,89.4 119.9,89.2 
	119.8,89.1 119.7,88.9 119.5,88.8 119.3,88.7 119.2,88.6 119,88.5 118.8,88.4 118,88.1 117.2,87.8 116.8,87.6 116.5,87.5 
	116.1,87.3 115.7,87.2 115.4,87.1 115,87 114.7,86.9 114.4,86.9 114.2,86.8 113.9,86.8 113.8,86.8 113.7,86.8 113.6,86.8 
	113.5,86.8 113.3,86.9 113.1,86.9 112.8,87 112.4,87 111.7,87.1 110.8,87.2 110.4,87.3 110,87.3 109.6,87.4 109.2,87.4 108.9,87.5 
	108.6,87.6 108.5,87.6 108.4,87.6 108.3,87.7 108.3,87.7 108.1,87.8 107.8,88 107.5,88.2 107.2,88.5 106.8,88.8 106.3,89.2 
	105.9,89.6 105.4,90 105.1,90.3 104.9,90.5 104.6,90.8 104.4,91 104.1,91.3 103.9,91.6 103.7,91.8 103.4,92.1 103.2,92.4 103,92.7 
	102.8,92.9 102.6,93.2 102.4,93.5 102.3,93.8 102.1,94 102,94.3 100.4,94.1 101,94.8 100.9,94.8 100.9,94.5 100.9,94.2 100.9,93.8 
	100.9,93.6 100.9,93.4 100.9,93.2 101,93 101,92.9 101,92.8 101,92.7 101,92.6 101.1,92.5 101.1,92.4 101.2,92.3 101.2,92.3 
	101.5,91.9 101.9,91.3 102.5,90.5 103.1,89.7 103.4,89.2 103.7,88.8 103.9,88.5 104.2,88.1 104.5,87.8 104.7,87.5 104.8,87.4 
	104.9,87.3 105,87.2 105,87.2 105.2,87.1 105.4,87 105.6,86.9 105.9,86.7 106.2,86.6 106.5,86.5 106.8,86.4 107.2,86.2 107.9,86 
	108.6,85.8 109.2,85.6 109.6,85.4 109.7,85.4 109.8,85.3 110,85.3 110.1,85.3 110.3,85.3 110.4,85.3 110.6,85.3 110.8,85.3 
	111.2,85.4 111.6,85.4 112,85.5 112.4,85.5 113.2,85.7 113.8,85.8 114.3,85.9 114.5,85.9 114.6,85.9 114.9,86 115.4,86.1 116,86.2 
	116.6,86.3 117.3,86.4 117.6,86.5 117.8,86.5 118.1,86.6 118.3,86.7 118.5,86.7 118.7,86.8 118.9,86.9 119.1,87 119.4,87.1 
	119.6,87.2 119.8,87.3 120.1,87.4 120.3,87.6 120.5,87.7 120.7,87.9 120.9,88 121.1,88.2 121.3,88.3 121.4,88.4 121.5,88.5 
	121.5,88.6 121.6,88.7 121.7,88.9 121.9,89.2 122,89.4 122.1,89.7 122.2,90 122.4,90.4 122.5,90.7 122.6,91.1 122.7,91.4 
	122.9,91.8 123,92.2 123.1,92.5 123.1,92.9 123.2,93.2 123.3,93.5 123.4,93.8 123.4,94 123.4,94.1 123.4,94.2 123.4,94.4 
	123.4,94.5 123.3,94.7 123.3,94.8 123.3,94.9 123.2,95.1 123.1,95.2 123,95.4 123,95.5 122.9,95.6 122.8,95.7 122.7,95.9 122.6,96 
	122.4,96.2 122.2,96.5 122,96.7 121.8,96.9 121.6,97.1 121.4,97.3 121.3,97.4 121.2,97.6 121.1,97.7 121,97.8 120.9,98 120.7,98.2 
	120.6,98.4 120.5,98.6 120.4,98.8 120.2,99 120.1,99.2 119.9,99.4 119.9,99.4 119.8,99.5 119.7,99.6 119.6,99.7 119.5,99.7 
	119.4,99.8 119.3,99.8 119.2,99.9 119.1,99.9 119,99.9 118.9,99.9 118.8,99.9 118.6,99.9 118.3,100 118.1,100 117.8,100.1 
	117.3,100.2 116.8,100.3 116.5,100.3 116.2,100.3 116.1,100.3 116,100.3 115.9,100.3 115.8,100.3 115.6,100.3 115.5,100.3 
	115.4,100.2 115.3,100.2 115.2,100.1 115.1,100.1 115.1,100 115,99.9 114.9,99.8 114.8,99.8 114.7,99.7 114.6,99.6 114.3,99.5 
	114,99.3 113.4,99 112.7,98.7 112.4,98.6 112.1,98.4 112,98.3 111.9,98.3 111.7,98.2 111.6,98.1 111.5,98 111.4,97.9 111.3,97.8 
	111.3,97.7 111.2,97.7 111.2,97.6 111.2,97.5 111.1,97.4 111.1,97.2 111.1,96.9 111.1,96.7 111,96.4 110.9,95.9 110.8,95.3 
	110.7,94.7 110.6,94.2 110.5,93.9 110.5,93.7 110.5,93.5 110.5,93.3 110.5,93.1 110.5,93 110.5,92.8 110.5,92.6 110.5,92.4 
	110.5,92.2 110.6,92 110.6,91.7 110.7,91.6 110.7,91.4 110.8,91.2 110.8,91 110.9,90.9 111,90.8 111,90.7 111.1,90.7 111.1,90.6 
	111.1,90.6 111.3,90.5 111.4,90.4 111.6,90.3 111.8,90.2 112,90.1 112.3,90 112.4,89.9 112.5,89.9 112.7,89.8 112.8,89.8 113,89.8 
	113.1,89.7 113.2,89.7 113.4,89.7 113.5,89.7 113.7,89.7 113.8,89.7 113.9,89.7 114.1,89.8 114.2,89.8 114.3,89.9 114.5,90 
	114.6,90.1 114.7,90.2 114.8,90.3 114.9,90.4 115,90.6 115.1,90.7 115.1,90.8 115.2,91 115.3,91.2 115.4,91.5 115.5,91.7 
	115.6,91.9 115.6,92.2 115.7,92.3 115.7,92.5 115.7,92.7 115.7,92.8 115.7,92.9 115.7,93.1 115.7,93.1 115.2,94.5 115.9,95.5 
	117.1,95.8 117.8,92.1 116.9,90.8 115.9,90.1 115.9,90.1 115.7,90.1 115.5,90 115.3,90 114.9,90 114.5,90 114.3,90 114.1,90.1 
	113.8,90.1 113.6,90.1 113.3,90.2 113.1,90.2 112.8,90.2 112.5,90.3 112.2,90.4 111.9,90.4 111.6,90.5 111.2,90.6 110.9,90.8 
	110.6,90.9 110.3,91 109.9,91.2 109.6,91.3 109.3,91.5 108.9,91.7 108.6,91.9 108.3,92.2 108,92.4 107.6,92.7 107.4,92.9 
	107.1,93.2 106.8,93.4 106.5,93.7 106.3,94 106,94.3 105.8,94.5 105.6,94.8 105.4,95.1 105.2,95.4 105,95.6 104.8,95.9 104.6,96.2 
	104.5,96.4 104.3,96.6 104.2,96.9 104.1,97.1 103.8,97.5 103.7,97.9 103.5,98.2 103.4,98.4 103.4,98.5 103.3,98.6 102.5,97.2 "/>
<polygon fill-rule="evenodd" clip-rule="evenodd" fill="#522423" points="113.2,86.3 113.2,86.3 113.4,86 113.6,85.7 114,85.3 
	114.2,85.1 114.4,84.9 114.6,84.6 114.8,84.4 115.1,84.2 115.3,83.9 115.6,83.7 115.9,83.4 116,83.3 116.2,83.2 116.3,83.1 
	116.5,83 116.8,82.9 117.1,82.7 117.4,82.5 117.7,82.4 117.8,82.4 118,82.3 118.1,82.3 118.3,82.2 118.4,82.2 118.6,82.1 
	118.7,82.1 118.8,82.1 119,82.1 119.1,82.1 119.2,82.1 119.3,82.1 119.5,82.1 119.6,82.1 119.7,82.1 119.8,82.1 119.9,82.1 
	120,82.2 120.1,82.2 120.2,82.3 120.2,82.3 120.3,82.3 120.3,82.4 120.4,82.4 120.4,82.5 120.4,82.5 120.5,82.6 120.5,82.6 
	120.5,82.7 120.5,82.7 120.4,82.8 120.4,82.8 120.4,82.9 120.4,82.9 120.3,83 120.3,83 120.2,83.1 120,83.2 119.9,83.3 119.8,83.4 
	119.5,83.6 119.1,83.8 118.7,84 118.2,84.3 117.9,84.5 117.6,84.7 117.3,84.8 117,85 116.7,85.2 116.4,85.4 116.3,85.6 116.2,85.7 
	116,85.8 115.9,85.9 115.8,86 115.7,86.1 115.6,86.2 115.6,86.3 115.5,86.4 115.5,86.5 115.4,86.6 115.4,86.7 116.2,87 116.3,87 
	116.4,86.8 116.6,86.6 116.9,86.4 117,86.2 117.1,86.1 117.3,85.9 117.5,85.8 117.6,85.7 117.8,85.5 117.9,85.4 118.1,85.3 
	118.3,85.2 118.4,85.1 118.6,85.1 118.7,85 119,84.8 119.3,84.7 119.6,84.6 120,84.5 120.3,84.3 120.7,84.1 120.9,84 121,83.9 
	121.2,83.8 121.4,83.7 121.6,83.6 121.7,83.4 121.9,83.3 122,83.2 122.2,83.1 122.3,82.9 122.4,82.8 122.4,82.7 122.5,82.6 
	122.5,82.6 122.5,82.5 122.5,82.5 122.5,82.4 122.5,82.4 122.5,82.3 122.5,82.3 122.5,82.1 122.4,81.9 122.3,81.8 122.3,81.7 
	122.2,81.6 122.1,81.5 122,81.4 121.9,81.3 121.9,81.3 121.8,81.2 121.7,81.2 121.6,81.2 121.6,81.2 121.5,81.1 121.4,81.1 
	121.3,81.1 121.2,81.1 121.1,81.1 121,81.1 120.8,81.1 120.6,81.1 120.3,81.1 120,81.1 119.8,81.2 119.5,81.2 119.2,81.2 119,81.3 
	118.7,81.3 118.3,81.5 117.8,81.6 117.5,81.7 117.3,81.7 117,81.9 116.6,82 116.1,82.3 115.6,82.5 115.2,82.7 114.8,82.9 114.5,83 
	114.4,83.1 113,85.1 112.2,86.2 113.2,86.3 "/>
<polygon fill-rule="evenodd" clip-rule="evenodd" fill="#522423" points="5.1,38.7 5.1,38.9 4.9,39.3 4.6,39.9 4.3,40.7 3.8,41.7 
	3.4,42.8 2.9,44 2.4,45.3 2.1,45.9 1.9,46.6 1.7,47.2 1.4,47.9 1.2,48.5 1,49.1 0.8,49.8 0.6,50.4 0.4,50.9 0.3,51.5 0.2,52 
	0.1,52.5 0,53 0,53.4 0,53.7 0,54 0.1,54.6 0.2,55.2 0.3,55.8 0.4,56.4 0.5,57.1 0.6,57.7 0.7,58.2 0.7,58.8 0.8,59.3 0.9,59.7 
	0.9,60.1 1,60.5 1,60.8 1,61 1,61.1 1,61.2 1.1,61.1 1.1,60.8 1.2,60.3 1.4,59.7 1.5,59 1.7,58.2 1.9,57.3 2.1,56.3 2.3,55.4 
	2.4,54.4 2.6,53.5 2.8,52.6 2.9,51.8 3,51 3,50.7 3.1,50.4 3.1,50.2 3.1,50 5.1,38.7 "/>
<polygon fill-rule="evenodd" clip-rule="evenodd" fill="#522423" points="1.6,65.3 1.6,65.3 1.5,65.4 1.5,65.7 1.4,65.9 1.4,66.3 
	1.3,66.6 1.3,66.8 1.3,67.1 1.3,67.3 1.3,67.5 1.3,67.7 1.3,68 1.3,68.2 1.4,68.4 1.4,68.7 1.4,68.9 1.5,69.1 1.6,69.4 1.6,69.6 
	1.7,69.8 1.8,70 2,70.2 2.1,70.4 2.2,70.6 2.4,70.7 2.6,70.9 2.8,71 3,71.2 3.1,71.3 3.3,71.5 3.5,71.6 3.6,71.8 3.8,71.9 3.9,72.1 
	4.2,72.4 4.4,72.7 4.7,73 4.9,73.2 5.1,73.5 5.2,73.7 5.3,73.9 5.4,74.1 5.6,74.3 5.6,74.4 1.6,65.3 "/>
<polygon fill-rule="evenodd" clip-rule="evenodd" fill="#522423" points="104.8,98.1 104.8,98 105,97.8 105.2,97.4 105.5,96.9 
	105.7,96.7 105.9,96.4 106.1,96.1 106.3,95.9 106.5,95.7 106.7,95.4 106.8,95.3 106.9,95.3 107,95.2 107.1,95.1 107.4,94.8 
	107.8,94.5 108.2,94.2 108.5,93.9 108.7,93.7 108.9,93.5 109.1,93.3 109.1,93.3 109.1,93.4 109.2,93.6 109.2,93.7 109.2,93.8 
	109.2,94 109.2,94.1 109.2,94.3 109.2,94.5 109.2,94.6 109.2,94.6 109.1,94.7 109.1,94.8 109.1,94.9 109,95 109,95 108.9,95.1 
	108.8,95.2 108.8,95.2 108.7,95.3 108.6,95.3 108.4,95.5 108.1,95.6 107.9,95.8 107.6,96 107.3,96.2 106.9,96.5 106.6,96.7 
	106.3,96.9 105.7,97.4 105.2,97.8 104.9,98 104.8,98.1 "/>
<polygon fill-rule="evenodd" clip-rule="evenodd" fill="#522423" points="124.4,91.5 124.4,91.6 124.5,91.9 124.5,92.2 124.5,92.4 
	124.5,92.7 124.6,93 124.6,93.3 124.6,93.6 124.6,93.7 124.5,93.9 124.5,94 124.5,94.2 124.5,94.4 124.4,94.5 124.4,94.7 
	124.4,94.8 124.3,95 124.3,95.1 124.2,95.2 124.1,95.3 123.8,95.8 123.5,96.3 123.2,96.8 123,97.2 122.7,97.6 122.5,97.9 
	122.4,98.1 122.4,98.1 122.4,98.1 122.7,98.1 122.9,98 123,98 123.2,97.9 123.4,97.9 123.7,97.8 123.9,97.7 124,97.6 124.1,97.5 
	124.2,97.5 124.3,97.4 124.4,97.3 124.5,97.2 124.6,97.1 124.7,97 124.7,97 124.8,96.8 124.9,96.7 124.9,96.6 125.1,96.1 
	125.3,95.6 125.5,95.2 125.6,94.7 125.7,94.4 125.8,94.1 125.9,93.9 125.9,93.8 124.4,91.5 "/>
<polygon fill-rule="evenodd" clip-rule="evenodd" fill="#522423" points="99.1,92.1 99.1,92 99.1,91.9 99.1,91.8 99.2,91.6 
	99.2,91.5 99.3,91.3 99.3,91.2 99.4,91 99.5,90.9 99.5,90.8 99.6,90.8 99.7,90.7 99.7,90.6 99.8,90.5 99.9,90.4 100,90.4 
	100.1,90.3 100.2,90.2 100.3,90.1 100.4,90.1 100.6,90 100.7,89.9 100.8,89.9 100.9,89.8 101.2,89.6 101.4,89.5 101.6,89.3 
	101.8,89.1 102,89 102.1,88.8 102.4,88.5 102.6,88.3 102.8,88.1 102.8,88 99.8,93.1 99.1,92.1 "/>
<polygon fill-rule="evenodd" clip-rule="evenodd" fill="#522423" points="80.1,119 80.2,119.1 80.5,119.3 81.1,119.6 81.7,120 
	82,120.2 82.4,120.4 82.7,120.6 83.1,120.8 83.4,121 83.7,121.1 83.8,121.2 83.9,121.3 84,121.3 84.1,121.3 84.4,121.4 84.7,121.5 
	85,121.6 85.4,121.7 86.3,121.9 87.2,122.2 88.1,122.4 88.9,122.5 89.4,122.7 89.6,122.7 90.6,123.7 90.5,123.7 90.1,123.8 
	89.8,123.8 89.5,123.8 89.2,123.8 88.8,123.8 88.4,123.7 88,123.7 87.8,123.7 87.6,123.7 87.4,123.6 87.1,123.6 86.9,123.5 
	86.7,123.5 86.5,123.4 86.3,123.4 86.1,123.3 85.9,123.2 85.7,123.1 85.5,123 85.1,122.8 84.7,122.6 84.3,122.4 83.8,122.2 
	83.4,121.9 83,121.7 82.5,121.4 82.1,121.1 81.9,121 81.8,120.9 81.6,120.7 81.4,120.6 81.2,120.5 81.1,120.3 80.9,120.2 80.8,120 
	80.6,119.9 80.5,119.8 80.4,119.6 80.3,119.5 80.2,119.4 80.2,119.2 80.1,119.1 80.1,119 "/>
<polygon fill-rule="evenodd" clip-rule="evenodd" fill="#522423" points="93.3,123 93.4,123.1 93.6,123.1 93.9,123.2 94.3,123.2 
	94.7,123.3 95.2,123.3 95.4,123.3 95.6,123.4 95.8,123.4 96,123.4 96.6,123.4 96.9,123.4 97,123.4 97.1,123.4 97,123.5 96.8,123.7 
	96.7,123.7 96.6,123.8 96.5,123.8 96.4,123.9 96.3,124 96.2,124 96.1,124.1 95.9,124.1 95.8,124.1 95.7,124.2 95.5,124.2 
	95.4,124.2 95.2,124.2 95.1,124.2 94.9,124.2 94.8,124.1 94.6,124 94.4,124 94.2,123.9 94.1,123.7 93.9,123.6 93.7,123.4 
	93.5,123.3 93.3,123 "/>
<polygon fill-rule="evenodd" clip-rule="evenodd" fill="#522423" points="46.1,95.5 46,95.6 45.9,95.9 45.8,96 45.8,96.3 45.7,96.5 
	45.6,96.7 45.5,97 45.4,97.3 45.3,97.6 45.2,98 45.2,98.3 45.1,98.6 45.1,98.8 45.1,98.9 45.1,99.1 45.1,99.3 45.1,99.6 45,99.9 
	45,100.3 45,100.7 44.9,101.5 44.9,102.3 44.8,103 44.8,103.5 44.7,103.9 44.7,104 44.7,104 44.6,103.9 44.5,103.9 44.4,103.8 
	44.3,103.7 44.2,103.6 44.1,103.5 44,103.4 44,103.3 43.9,103.2 43.9,103.1 43.9,103 43.8,102.9 43.8,102.8 43.8,102.7 43.7,102.5 
	43.7,102.4 43.7,102.3 43.7,102.1 43.7,102 43.7,101.7 43.7,101.4 43.7,101.1 43.8,100.8 43.8,100.3 43.9,99.8 43.9,99.3 44,98.9 
	44,98.6 44,98.4 44,98.1 44,97.9 44,97.8 44.1,97.6 44.1,97.5 44.1,97.4 44.2,97.3 44.2,97.2 44.3,97.1 44.4,96.9 44.4,96.8 
	44.5,96.7 44.6,96.6 44.7,96.5 44.9,96.4 45.1,96.2 45.2,96 45.4,95.9 45.6,95.8 45.8,95.7 46,95.6 46.1,95.5 "/>
<polygon fill-rule="evenodd" clip-rule="evenodd" fill="#522423" points="92.8,59.7 92.7,59.6 92.5,59.5 92.1,59.3 91.6,59 91,58.7 
	90.3,58.4 89.5,58.1 88.7,57.7 88.3,57.5 87.9,57.3 87.4,57.2 87,57 86.5,56.8 86.1,56.7 85.6,56.5 85.2,56.4 84.8,56.2 84.3,56.1 
	83.9,56 83.5,55.9 83.1,55.8 82.8,55.8 82.4,55.8 82.1,55.7 82.2,55.7 82.4,55.7 82.8,55.7 83.2,55.8 83.5,55.8 83.8,55.8 
	84.1,55.8 84.5,55.9 84.8,55.9 85.2,56 85.6,56 86,56.1 86.4,56.2 86.8,56.3 87.3,56.4 87.7,56.5 88.1,56.7 88.6,56.9 89,57 
	89.5,57.3 89.9,57.5 90.4,57.7 90.8,58 91.2,58.3 91.6,58.6 92,58.9 92.4,59.3 92.8,59.7 "/>
<polygon fill-rule="evenodd" clip-rule="evenodd" fill="#522423" points="84.1,10.5 84.2,10.5 84.4,10.3 84.8,9.9 85.2,9.5 
	85.5,9.3 85.8,9 86.1,8.8 86.4,8.5 86.8,8.3 87.1,8 87.5,7.7 87.9,7.5 88.2,7.2 88.6,7 89,6.8 89.3,6.6 89.7,6.5 90,6.3 90.3,6.2 
	90.6,6 91.2,5.8 91.7,5.6 92,5.5 92.2,5.3 92.4,5.2 92.6,5.1 92.8,5 93.1,4.8 93.3,4.7 93.5,4.6 93.8,4.5 94,4.4 94.3,4.3 94.5,4.2 
	95,4 95.4,3.9 95.6,3.8 95.7,3.7 95.5,3.8 95.1,3.8 94.5,3.9 93.8,4 93,4.1 92.1,4.2 91.7,4.2 91.3,4.3 90.9,4.4 90.6,4.4 90.4,4.5 
	90.3,4.5 90.1,4.6 89.9,4.7 89.7,4.8 89.5,4.9 89.3,5 89.1,5.2 88.8,5.3 88.6,5.5 88.4,5.6 88.2,5.8 87.7,6.1 87.3,6.5 86.8,6.9 
	86.4,7.2 86,7.6 85.6,7.9 85.3,8.2 85,8.5 84.7,8.7 84.5,8.8 84.4,8.9 84.3,9 84.2,9 84.1,9.1 84,9.3 83.8,9.4 83.7,9.6 83.6,9.8 
	83.5,10 83.4,10.1 83.3,10.3 83.3,10.4 83.2,10.5 83.2,10.7 83.1,10.8 83.1,10.9 84.1,10.5 "/>
<polygon fill-rule="evenodd" clip-rule="evenodd" fill="#522423" points="3.6,18.4 3.6,18.6 3.5,19.1 3.4,19.5 3.3,19.9 3.3,20.4 
	3.3,20.8 3.2,21.1 3.2,21.3 3.2,21.5 3.2,21.8 3.2,22 3.3,22.2 3.3,22.5 3.3,22.7 3.4,22.9 3.4,23 3.5,23.2 3.5,23.4 3.6,23.5 
	3.7,23.6 3.8,23.7 3.9,23.8 4.2,23.9 4.4,24.1 4.7,24.2 4.9,24.4 5.4,24.6 5.8,24.9 6.2,25.1 6.4,25.3 6.6,25.5 6.7,25.5 8.4,25.8 
	8.2,25.7 7.9,25.5 7.6,25.3 7.4,25.1 7.1,24.9 6.8,24.6 6.5,24.4 6.2,24.1 6,24 5.9,23.8 5.8,23.7 5.6,23.5 5.5,23.4 5.4,23.3 
	5.3,23.1 5.2,23 5.1,22.8 5.1,22.7 5,22.6 5,22.4 4.9,22.2 4.8,21.9 4.7,21.6 4.6,21.2 4.4,20.5 4.2,19.9 3.9,19.3 3.8,18.8 
	3.6,18.5 3.6,18.4 "/>
<polygon fill-rule="evenodd" clip-rule="evenodd" fill="#522423" points="102.5,76.1 102.2,76.3 101.9,76.5 101.6,76.6 101.3,76.8 
	101,76.9 100.6,77 100.3,77.1 99.9,77.2 99.5,77.3 99.1,77.4 98.7,77.4 98.3,77.5 97.9,77.5 97.5,77.6 97.1,77.6 96.7,77.6 
	96.3,77.6 95.9,77.6 95.5,77.6 95.1,77.6 94.4,77.6 93.7,77.6 93,77.5 92.4,77.5 91.9,77.5 91.5,77.4 91.8,77.6 92,77.8 92.3,77.9 
	92.6,78.1 92.9,78.2 93.2,78.3 93.5,78.4 93.8,78.5 94.1,78.6 94.4,78.7 94.8,78.8 95.1,78.8 95.4,78.9 95.8,78.9 96.1,79 96.4,79 
	96.8,79 97.1,79 97.4,79 97.8,79 98.1,79 98.4,78.9 98.8,78.9 99.1,78.9 99.4,78.8 99.8,78.7 100.1,78.6 100.4,78.6 100.7,78.5 
	101,78.4 101.3,78.2 101.6,78.1 101.3,78.2 101,78.2 100.8,78.3 100.5,78.4 100.3,78.5 100,78.5 99.8,78.6 99.5,78.7 99.3,78.9 
	99,79 98.8,79.1 98.5,79.2 98.1,79.4 97.6,79.7 97.1,79.9 96.6,80.2 96.2,80.4 95.7,80.7 95.4,80.8 95.2,80.9 94.9,81 94.7,81.1 
	94.4,81.2 94.2,81.3 93.9,81.3 93.6,81.4 93.4,81.5 93.2,81.5 93,81.6 92.7,81.6 92.5,81.6 92.3,81.6 92.1,81.6 91.9,81.6 
	91.4,81.6 91,81.6 90.6,81.6 90.2,81.6 89.7,81.6 89.3,81.7 89.1,81.7 88.9,81.7 88.7,81.8 88.5,81.8 88.3,81.8 88.1,81.9 87.9,82 
	87.7,82 87.5,82.1 87.3,82.2 87.1,82.3 86.9,82.4 87.2,82.5 87.4,82.6 87.7,82.7 88,82.7 88.3,82.8 88.6,82.9 88.9,82.9 89.2,82.9 
	89.5,83 89.9,83 90.2,83.1 90.5,83.1 90.9,83.1 91.2,83.1 91.5,83.1 91.9,83.1 92.2,83.1 92.6,83.1 92.9,83.1 93.3,83.1 93.6,83 
	93.9,83 94.2,83 94.6,82.9 94.9,82.8 95.2,82.8 95.5,82.7 95.8,82.6 96,82.5 96.3,82.4 96.6,82.3 96.8,82.2 96.3,82.4 95.9,82.7 
	95.4,82.9 94.9,83.1 94.5,83.3 94,83.4 93.5,83.6 93.1,83.7 92.6,83.9 92.2,84 91.7,84.1 91.2,84.2 90.8,84.3 90.3,84.4 89.9,84.5 
	89.4,84.6 88.5,84.7 87.6,84.9 87.2,85 86.7,85.1 86.3,85.2 85.8,85.3 85.4,85.4 84.9,85.5 84.5,85.6 84,85.7 83.6,85.9 83.2,86 
	82.7,86.2 82.3,86.4 82.6,86.3 83,86.3 83.4,86.3 83.8,86.3 84.1,86.3 84.5,86.3 84.9,86.3 85.2,86.3 85.9,86.4 86.7,86.5 
	87.4,86.6 88.1,86.7 88.4,86.7 88.8,86.7 89.1,86.7 89.5,86.7 89.8,86.7 90.2,86.7 90.5,86.7 90.9,86.7 91.2,86.6 91.5,86.5 
	91.9,86.4 92.2,86.3 92.6,86.2 92.9,86 93.3,85.9 93.6,85.7 102.5,76.1 "/>
<polygon fill-rule="evenodd" clip-rule="evenodd" fill="#522423" points="106.6,74.1 105.8,74.2 105,74.2 104.2,74.3 103.4,74.3 
	102.6,74.4 101.8,74.4 101,74.5 100.2,74.5 99.4,74.5 98.6,74.6 97.8,74.6 97,74.7 96.2,74.7 95.4,74.8 94.6,74.8 93.8,74.9 
	94.1,75.1 94.5,75.3 94.8,75.4 95.2,75.6 95.6,75.7 96,75.9 96.3,76 96.7,76.1 97.1,76.2 97.6,76.3 98,76.3 98.4,76.4 98.8,76.5 
	99.2,76.5 99.7,76.5 100.1,76.5 100.5,76.6 101,76.5 101.4,76.5 101.8,76.5 102.2,76.5 102.7,76.4 103.1,76.4 103.5,76.3 
	103.9,76.2 104.3,76.2 104.7,76.1 105.1,76 105.5,75.8 105.9,75.7 106.2,75.6 106.6,75.5 106.6,74.1 "/>
<polygon fill-rule="evenodd" clip-rule="evenodd" fill="#522423" points="8.7,65.3 8.9,65.7 9.1,66.1 9.3,66.4 9.5,66.8 9.7,67.2 
	10,67.5 10.3,67.8 10.6,68.1 10.9,68.4 11.2,68.7 11.5,69 11.9,69.3 12.2,69.5 12.6,69.8 13,70 13.3,70.3 13.7,70.5 14.1,70.8 
	14.5,71 14.9,71.2 15.7,71.7 16.4,72.1 16.8,72.4 17.2,72.6 17.6,72.9 18,73.1 18.3,73.4 18.7,73.6 19,73.9 19.3,74.2 19,74 
	18.6,73.9 18.3,73.7 17.9,73.6 17.6,73.5 17.2,73.4 16.9,73.3 16.5,73.2 15.8,73 15.2,72.8 14.5,72.6 13.8,72.4 13.5,72.3 
	13.2,72.2 12.8,72 12.5,71.9 12.2,71.8 11.9,71.6 11.6,71.4 11.3,71.3 11.1,71.1 10.8,70.9 10.5,70.7 10.3,70.4 10,70.2 9.8,69.9 
	9.6,69.6 9.4,69.3 8.7,65.3 "/>
<polygon fill-rule="evenodd" clip-rule="evenodd" fill="#522423" points="12.1,73.4 12.7,73.8 13.3,74.2 14,74.6 14.6,75 15.3,75.4 
	15.9,75.8 16.2,76 16.6,76.2 16.9,76.4 17.3,76.6 17.6,76.8 17.9,77 18.3,77.1 18.6,77.3 19,77.4 19.3,77.6 19.7,77.7 20,77.8 
	20.4,77.9 20.7,78 21.1,78.1 21.5,78.2 21.8,78.2 22.2,78.3 22.6,78.3 22.9,78.3 22.6,78.5 22.3,78.6 22,78.7 21.6,78.7 21.2,78.8 
	20.9,78.8 20.5,78.8 20.1,78.7 19.7,78.7 19.3,78.6 18.9,78.5 18.4,78.3 18,78.2 17.6,78 17.2,77.9 16.7,77.7 16.3,77.5 15.9,77.3 
	15.5,77.1 15.1,76.9 14.7,76.6 14.3,76.4 13.9,76.2 13.5,75.9 13.1,75.7 12.7,75.4 12.3,75.2 12,75 11.3,74.5 10.7,74.1 12.1,73.4 
	"/>
<polygon fill-rule="evenodd" clip-rule="evenodd" fill="#522423" points="7.3,59.1 7.5,59.5 7.8,59.9 8,60.2 8.2,60.6 8.4,60.9 
	8.7,61.3 8.9,61.6 9.2,61.9 9.4,62.2 9.7,62.5 10,62.8 10.3,63.1 10.5,63.4 10.8,63.7 11.1,64 11.4,64.2 12,64.8 12.6,65.3 
	13.2,65.8 13.8,66.4 14.4,66.9 15,67.4 15.2,67.7 15.5,68 15.8,68.3 16.1,68.5 15.7,68.5 15.3,68.5 14.8,68.4 14.4,68.3 14,68.2 
	13.7,68 13.3,67.8 12.9,67.6 12.5,67.4 12.2,67.2 11.8,66.9 11.5,66.7 11.2,66.4 10.9,66.1 10.5,65.8 10.2,65.4 9.9,65.1 9.6,64.7 
	9.3,64.4 9,64 8.8,63.7 8.5,63.3 8.2,63 7.9,62.6 7.4,61.9 6.9,61.2 6.4,60.5 6,59.8 7.3,59.1 "/>
<polygon fill-rule="evenodd" clip-rule="evenodd" fill="#522423" points="6.7,47.6 6.9,48.4 7.2,49.3 7.4,50.2 7.7,51 7.8,51.4 
	8,51.9 8.1,52.3 8.3,52.7 8.4,53.1 8.6,53.5 8.8,53.9 8.9,54.3 9.1,54.7 9.3,55.1 9.5,55.5 9.7,55.9 9.9,56.3 10.1,56.7 10.3,57.1 
	10.6,57.5 10.8,57.8 11,58.2 11.3,58.5 11.6,58.9 11.8,59.2 12.1,59.6 12.4,59.9 12.7,60.2 12.4,60.1 12.1,60 11.8,59.8 11.5,59.6 
	11.2,59.4 10.9,59.2 10.6,59 10.3,58.8 10,58.5 9.7,58.3 9.4,58 9.1,57.7 8.8,57.4 8.5,57.1 8.2,56.8 8,56.5 7.7,56.2 7.5,55.9 
	7.3,55.5 7,55.2 6.8,54.9 6.7,54.5 6.5,54.2 6.3,53.8 6.2,53.5 6.1,53.1 6,52.7 6,52.4 5.9,52 5.9,51.7 5.9,51.3 6,51 6.7,47.6 "/>
<polygon fill-rule="evenodd" clip-rule="evenodd" fill="#522423" points="9.4,42.1 9.3,42.8 9.3,43.5 9.3,44.2 9.3,44.9 9.3,45.3 
	9.3,45.7 9.3,46.1 9.4,46.5 9.4,46.9 9.4,47.2 9.5,47.6 9.5,48 9.6,48.4 9.7,48.8 9.7,49.2 9.8,49.5 9.9,49.9 10,50.2 10.2,50.6 
	10.3,50.9 10.4,51.2 10.6,51.6 10.8,51.8 11,52.1 11.2,52.4 11.4,52.6 11.6,52.9 11.9,53.1 11.6,53 11.3,52.9 11,52.7 10.8,52.6 
	10.6,52.4 10.4,52.3 10.2,52.1 10,51.9 9.8,51.7 9.6,51.5 9.5,51.3 9.4,51.1 9.2,50.8 9.1,50.6 9,50.4 8.9,50.1 8.8,49.8 8.8,49.6 
	8.7,49.3 8.6,49 8.6,48.8 8.6,48.5 8.6,48.2 8.5,47.9 8.5,47.6 8.5,47.3 8.5,47 8.6,46.7 8.6,46.4 8.6,46.1 8.7,45.9 8.7,45.6 
	9.4,42.1 "/>
<polygon fill-rule="evenodd" clip-rule="evenodd" fill="#522423" points="8.7,40.8 8.9,41.2 9.1,41.7 9.3,42.1 9.5,42.6 9.7,43 
	9.8,43.4 10,43.8 10.2,44.3 10.4,44.7 10.6,45.1 10.7,45.5 10.9,46 11.1,46.4 11.4,46.8 11.6,47.2 11.8,47.7 11.6,47.5 11.4,47.4 
	11.2,47.3 11,47.1 10.8,47 10.6,46.9 10.4,46.7 10.2,46.6 10,46.4 9.9,46.2 9.7,46.1 9.6,45.9 9.4,45.7 9.3,45.5 9.1,45.3 9,45.1 
	8.9,44.9 8.8,44.7 8.6,44.5 8.6,44.3 8.5,44.1 8.4,43.9 8.3,43.7 8.2,43.4 8.2,43.2 8.1,43 8.1,42.7 8.1,42.5 8,42.2 8,42 8,41.7 
	8,41.5 8.7,40.8 "/>
<polygon fill-rule="evenodd" clip-rule="evenodd" fill="#522423" points="48.8,105.4 48.8,105.7 48.9,106.1 48.9,106.4 49,106.7 
	49.1,107 49.2,107.3 49.3,107.6 49.4,107.9 49.5,108.2 49.7,108.4 49.8,108.7 50,108.9 50.1,109.1 50.3,109.4 50.5,109.6 
	50.7,109.8 50.9,110 51.1,110.2 51.3,110.4 51.6,110.6 51.8,110.8 52,111 52.3,111.2 52.5,111.3 53,111.7 53.5,112.1 54,112.5 
	54.6,112.9 54.3,112.9 54,112.9 53.7,112.9 53.5,112.9 53.2,112.8 53,112.8 52.8,112.7 52.5,112.7 52.3,112.6 52.1,112.5 
	51.9,112.4 51.6,112.3 51.4,112.2 51.2,112 51,111.9 50.8,111.8 50.6,111.6 50.4,111.5 50.2,111.3 50.1,111.1 49.9,111 49.7,110.8 
	49.5,110.6 49.4,110.4 49.2,110.2 49,110 48.9,109.8 48.7,109.6 48.4,109.2 48.1,108.8 48.8,105.4 "/>
<polygon fill-rule="evenodd" clip-rule="evenodd" fill="#522423" points="49.5,112.2 49.6,112.4 49.7,112.7 49.8,112.9 49.9,113.1 
	50.1,113.3 50.2,113.5 50.4,113.7 50.6,113.9 50.7,114.1 50.9,114.3 51.1,114.4 51.3,114.6 51.5,114.7 51.7,114.9 51.9,115 
	52.1,115.1 52.3,115.3 52.6,115.4 52.8,115.5 53,115.6 53.4,115.8 53.9,116 54.3,116.2 54.7,116.4 55.1,116.6 55.5,116.8 
	55.4,116.8 55.2,116.8 55,116.8 54.8,116.9 54.7,116.9 54.5,116.8 54.3,116.8 54.2,116.8 54,116.8 53.8,116.8 53.7,116.7 
	53.5,116.7 53.4,116.7 53.2,116.6 53.1,116.6 52.9,116.5 52.8,116.4 52.6,116.4 52.5,116.3 52.4,116.2 52.2,116.1 52.1,116 
	52,115.9 51.8,115.9 51.7,115.8 51.6,115.6 51.4,115.5 51.3,115.4 51.2,115.3 51.1,115.2 51,115 50.8,114.9 49.5,112.2 "/>
<polygon fill-rule="evenodd" clip-rule="evenodd" fill="#522423" points="54.2,119 54.4,119 54.6,119 54.8,119.1 55,119.1 
	55.2,119.1 55.4,119.1 55.5,119.1 55.7,119.1 55.9,119.1 56.1,119.1 56.3,119.1 56.4,119.1 56.6,119.1 56.8,119.1 57,119.1 
	57.2,119 57.3,119 57.5,118.9 57.7,118.9 57.8,118.8 58,118.8 58.2,118.7 58.3,118.7 58.5,118.6 58.7,118.5 58.8,118.4 59,118.4 
	59.1,118.3 59.3,118.2 59.4,118.1 59.6,117.9 59.7,117.8 59.7,118 59.6,118.2 59.6,118.4 59.5,118.5 59.4,118.7 59.3,118.8 
	59.3,119 59.2,119.1 59.1,119.2 59,119.3 58.9,119.4 58.8,119.4 58.7,119.5 58.5,119.6 58.4,119.6 58.3,119.7 58.1,119.7 58,119.7 
	57.9,119.8 57.7,119.8 57.6,119.8 57.4,119.8 57.2,119.8 57.1,119.8 56.7,119.8 56.4,119.7 56,119.7 55.6,119.6 54.2,119 "/>
<polygon fill-rule="evenodd" clip-rule="evenodd" fill="#522423" points="114.7,64.6 114.7,64.7 114.7,64.8 114.6,65.2 114.6,65.6 
	114.5,66.1 114.4,66.7 114.3,67.3 114.2,68 114.1,68.7 113.9,69.4 113.8,69.8 113.8,70.2 113.7,70.5 113.6,70.9 113.5,71.2 
	113.4,71.6 113.3,71.9 113.2,72.3 113,72.6 112.9,72.9 112.8,73.2 112.7,73.4 112.5,73.7 112.4,73.9 112.3,74.2 112.1,74.4 
	112,74.7 111.8,74.9 111.6,75.2 111.5,75.4 111.1,75.9 110.8,76.3 110.5,76.8 110.1,77.2 109.8,77.5 109.5,77.9 109.3,78.1 
	109,78.4 108.7,78.7 108.6,78.9 105.9,82.3 113.4,78.2 116.1,71.4 114.7,64.6 "/>
<polygon fill-rule="evenodd" clip-rule="evenodd" fill="#522423" points="115.4,57.1 115.4,57.3 115.4,57.7 115.4,58.3 115.4,59.1 
	115.4,59.9 115.4,60.8 115.4,61.7 115.4,62.5 117.4,58.5 115.4,57.1 "/>
<polygon fill-rule="evenodd" clip-rule="evenodd" fill="#522423" points="39.3,92.4 43.4,93.1 42.7,95.2 39.3,92.4 "/>
<polygon fill-rule="evenodd" clip-rule="evenodd" fill="#E8BEC4" points="33.2,19.7 33,19.8 32.5,20 32.1,20.2 31.7,20.3 31.2,20.6 
	30.6,20.8 30,21.1 29.4,21.4 28.7,21.8 28,22.2 27.3,22.6 26.5,23.1 25.8,23.5 25,24.1 24.2,24.6 23.5,25.2 22.7,25.8 22,26.4 
	21.3,27 20.6,27.7 20,28.4 19.4,29.2 18.9,29.9 18.4,30.7 17.9,31.6 17.6,32.4 17.3,33.3 17,34.2 16.9,35.1 16.9,36 16.9,36 
	17,35.8 17,35.6 17.1,35.5 17.3,35.2 17.4,35 17.6,34.7 17.8,34.4 18,34.1 18.3,33.7 18.6,33.3 18.9,32.9 19.3,32.4 19.7,31.9 
	20.1,31.4 20.6,30.9 21.1,30.3 21.7,29.7 22.4,29 23.1,28.3 23.8,27.6 24.6,26.9 25.5,26.1 26.4,25.3 27.3,24.4 28.4,23.5 
	29.5,22.6 30.6,21.7 31.9,20.7 33.2,19.7 "/>
<polygon fill-rule="evenodd" clip-rule="evenodd" fill="#E5D8E0" points="41.3,49.6 41.1,49.7 40.5,49.9 40.1,50 39.6,50.2 39,50.4 
	38.4,50.6 37.8,50.9 37.1,51.2 36.3,51.5 35.6,51.9 34.8,52.3 34,52.7 33.3,53.1 32.5,53.6 31.7,54.1 31,54.7 30.3,55.2 29.6,55.8 
	29,56.5 28.5,57.1 28,57.8 27.6,58.5 27.2,59.3 27,60 26.8,60.8 26.8,61.7 26.8,62.5 27,63.4 27.3,64.3 27.7,65.3 27.7,65.2 
	27.7,64.9 27.7,64.7 27.8,64.5 27.8,64.3 27.8,64 27.9,63.6 28,63.3 28.1,62.9 28.3,62.5 28.4,62 28.6,61.5 28.9,61 29.2,60.5 
	29.5,60 29.9,59.4 30.3,58.8 30.8,58.2 31.3,57.5 31.8,56.9 32.5,56.2 33.2,55.5 33.9,54.8 34.8,54.1 35.7,53.4 36.6,52.6 
	37.7,51.9 38.8,51.1 40,50.4 41.3,49.6 "/>
</svg>
