<?xml version="1.0" encoding="utf-8"?>
<!-- Generator: Adobe Illustrator 15.0.0, SVG Export Plug-In  -->
<!DOCTYPE svg PUBLIC "-//W3C//DTD SVG 1.1//EN" "http://www.w3.org/Graphics/SVG/1.1/DTD/svg11.dtd" [
	<!ENTITY ns_flows "http://ns.adobe.com/Flows/1.0/">
]>
<svg version="1.1"
	 xmlns="http://www.w3.org/2000/svg" xmlns:xlink="http://www.w3.org/1999/xlink" xmlns:a="http://ns.adobe.com/AdobeSVGViewerExtensions/3.0/"
	 x="0px" y="0px" width="97px" height="121px" viewBox="0 0 97 121" overflow="visible" enable-background="new 0 0 97 121"
	 xml:space="preserve">
<defs>
</defs>
<polygon fill-rule="evenodd" clip-rule="evenodd" fill="#E3A7AA" points="33.5,71.3 33.1,71.8 32.7,72.3 32.3,72.8 32,73.3 
	31.6,73.9 31.3,74.4 30.9,75 30.6,75.6 30.3,76.2 30,76.8 29.7,77.4 29.4,78.1 29.2,78.7 28.9,79.4 28.7,80 28.4,80.7 28.2,81.4 
	28,82.1 27.8,82.7 27.6,83.4 27.4,84.1 27.2,84.8 27,85.4 26.9,86.1 26.7,86.8 26.5,87.4 26.4,88.1 26.2,88.7 26,90 25.7,91.2 
	25.6,91.8 25.5,92.5 25.3,93.1 25.2,93.8 25.1,94.4 25,95.1 24.9,95.8 24.9,96.4 24.8,97.1 24.7,97.8 24.7,98.4 24.7,99.1 
	24.7,99.8 24.7,100.5 24.7,101.2 24.7,101.8 24.8,102.5 24.8,103.2 24.9,103.8 25.1,104.5 25.2,105.2 25.4,105.8 25.5,106.4 
	25.7,107.1 26,107.7 26.2,108.3 26.5,108.9 26.9,109.4 27.2,110 27.6,110.5 28,111.1 28.4,111.6 27.8,111.6 27.3,111.7 26.8,111.9 
	26.4,112 26.1,112.2 25.8,112.4 25.6,112.6 25.4,112.9 25.3,113.2 25.2,113.5 25.2,113.8 25.3,114.1 25.3,114.5 25.4,114.8 
	25.6,115.1 25.8,115.5 26,115.8 26.2,116.1 26.5,116.5 26.8,116.8 27.1,117.1 27.5,117.4 27.9,117.6 28.2,117.9 28.6,118.1 
	29,118.3 29.5,118.5 29.9,118.6 30.3,118.7 30.7,118.8 31.2,118.8 31.6,118.8 32,118.8 32.4,118.7 32.8,118.6 33.2,118.5 
	33.7,118.4 34.1,118.2 34.5,118.1 35,117.9 35.4,117.7 35.8,117.4 36.2,117.2 36.6,117 37,116.7 37.4,116.4 37.8,116.1 38.2,115.7 
	38.5,115.4 38.8,115 39.1,114.7 39.4,114.3 39.6,113.9 39.8,113.5 40,113 40.1,112.6 40.3,112.1 40.3,111.7 40.4,111.2 40.4,110.7 
	40.3,110.2 40.2,109.7 40.1,109.2 39.9,108.6 40.3,109.1 40.7,109.5 41.2,109.9 41.7,110.2 42.2,110.5 42.7,110.8 43.3,111 
	43.9,111.2 44.5,111.3 45.1,111.4 45.8,111.5 46.5,111.6 47.1,111.6 47.8,111.6 48.5,111.5 49.2,111.5 49.9,111.4 50.6,111.3 
	51.3,111.2 52,111.1 52.7,110.9 53.4,110.7 54.1,110.5 54.7,110.3 55.4,110.1 56,109.9 56.7,109.7 57.3,109.4 57.9,109.2 
	58.4,108.9 59,108.7 59.5,108.4 59.3,109 59.2,109.6 59.2,110.1 59.1,110.6 59.1,111.1 59.1,111.6 59.1,112.1 59.2,112.5 59.3,113 
	59.4,113.4 59.5,113.8 59.7,114.2 59.9,114.6 60.1,114.9 60.4,115.3 60.6,115.6 60.9,115.9 61.2,116.2 61.5,116.5 61.9,116.7 
	62.2,117 62.6,117.2 63,117.4 63.4,117.6 63.8,117.8 64.2,117.9 64.7,118.1 65.2,118.2 65.6,118.3 66.1,118.5 66.6,118.5 
	67.1,118.6 67.8,118.7 68.4,118.7 68.9,118.6 69.4,118.5 69.9,118.4 70.4,118.2 70.8,118 71.2,117.8 71.6,117.5 71.9,117.2 
	72.2,116.9 72.5,116.6 72.7,116.2 72.9,115.9 73,115.5 73.1,115.1 73.2,114.8 73.2,114.4 73.1,114 73.1,113.7 72.9,113.3 72.8,113 
	72.6,112.7 72.3,112.4 72,112.1 71.7,111.9 71.3,111.7 70.8,111.6 70.3,111.5 69.7,111.4 69.1,111.4 68.5,111.4 69,111.3 
	69.5,111.2 70,111.1 70.5,110.9 71,110.6 71.4,110.4 71.8,110.1 72.1,109.8 72.5,109.4 72.8,109 73.1,108.6 73.4,108.2 73.6,107.7 
	73.9,107.2 74.1,106.8 74.3,106.3 74.5,105.7 74.6,105.2 74.8,104.7 74.9,104.1 75,103.6 75.1,103.1 75.2,102.5 75.3,102 
	75.3,101.4 75.3,100.9 75.4,100.4 75.4,99.9 75.4,99.4 75.4,98.9 75.4,98.4 75.3,98 75.3,97.1 75.2,96.2 75.1,95.2 74.9,94.3 
	74.8,93.4 74.6,92.5 74.5,91.6 74.3,90.7 74.1,89.9 73.8,89 73.6,88.1 73.4,87.3 73.1,86.4 72.8,85.6 72.5,84.8 72.2,83.9 
	71.9,83.1 71.5,82.3 71.2,81.5 70.8,80.7 70.4,79.9 70.1,79.1 69.7,78.3 69.2,77.5 68.8,76.7 68.4,75.9 67.9,75.2 67.5,74.4 
	67,73.7 66.5,72.9 66,72.2 65.5,71.4 33.5,71.3 "/>
<polygon fill-rule="evenodd" clip-rule="evenodd" fill="#E0959A" points="68.5,111.4 69,111.3 69.5,111.2 70,111.1 70.5,110.9 
	71,110.6 71.4,110.4 71.8,110.1 72.1,109.8 72.5,109.4 72.8,109 73.1,108.6 73.4,108.2 73.6,107.7 73.9,107.2 74.1,106.8 
	74.3,106.3 74.5,105.7 74.6,105.2 74.8,104.7 74.9,104.1 75,103.6 75.1,103.1 75.2,102.5 75.3,102 75.3,101.4 75.3,100.9 
	75.4,100.4 75.4,99.9 75.4,99.4 75.4,98.9 75.4,98.4 75.3,98 75.3,97.9 75.3,97.7 75.3,97.5 75.3,97.4 75.3,97.2 75.2,97.1 75.2,97 
	75.2,96.8 68.2,102 68.2,102.5 68.1,102.9 68,103.3 67.9,103.7 67.8,104 67.7,104.4 67.6,104.7 67.5,105 67.4,105.3 67.3,105.6 
	67.2,105.9 67.1,106.2 67,106.4 66.8,106.7 66.7,106.9 66.5,107.2 66.4,107.4 66.2,107.6 66,107.9 65.8,108.1 65.6,108.3 
	65.4,108.5 65.2,108.8 65,109 64.7,109.3 64.4,109.5 64.2,109.8 63.9,110 63.2,110.6 62.5,111.2 62.9,111.3 63.2,111.3 63.6,111.4 
	64.1,111.5 64.5,111.6 64.9,111.7 65.1,111.8 65.4,111.9 65.6,111.9 65.8,112 66,112.1 66.2,112.2 66.4,112.3 66.6,112.4 
	66.8,112.5 67,112.6 67.2,112.7 67.3,112.9 67.5,113 67.6,113.2 67.7,113.3 67.9,113.5 68,113.6 68.1,113.8 68.1,114 68.2,114.2 
	68.2,114.4 68.3,114.6 68.3,114.8 68.3,114.9 68.2,115.1 68.2,115.3 68.2,115.4 68.1,115.6 68.1,115.7 68,115.9 67.9,116 
	67.8,116.2 67.7,116.3 67.6,116.4 67.5,116.6 67.4,116.7 67.3,116.8 67.1,116.9 67,117 66.8,117.1 66.7,117.2 66.5,117.3 
	66.4,117.4 66.2,117.5 66,117.6 65.9,117.7 65.7,117.8 65.5,117.8 65.2,118 64.8,118.1 65.1,118.2 65.4,118.3 65.7,118.3 
	65.9,118.4 66.2,118.5 66.5,118.5 66.8,118.6 67.1,118.6 67.8,118.7 68.4,118.7 68.9,118.6 69.4,118.5 69.9,118.4 70.4,118.2 
	70.8,118 71.2,117.8 71.6,117.5 71.9,117.2 72.2,116.9 72.5,116.6 72.7,116.2 72.9,115.9 73,115.5 73.1,115.1 73.2,114.8 
	73.2,114.4 73.1,114 73.1,113.7 72.9,113.3 72.8,113 72.6,112.7 72.3,112.4 72,112.1 71.7,111.9 71.3,111.7 70.8,111.6 70.3,111.5 
	69.7,111.4 69.1,111.4 68.5,111.4 "/>
<polygon fill-rule="evenodd" clip-rule="evenodd" fill="#512422" points="38,85.7 38.1,85.6 38.5,85.4 38.8,85.3 39.2,85.1 
	39.6,84.9 40.1,84.7 40.6,84.5 41.2,84.3 41.8,84.1 42.4,83.9 43.1,83.6 43.9,83.4 44.6,83.2 45.5,83.1 46.3,82.9 47.2,82.8 
	48.1,82.7 49,82.6 50,82.5 51,82.5 52,82.5 53,82.6 54,82.8 55.1,82.9 56.1,83.2 57.2,83.5 58.2,83.8 59.3,84.3 60.4,84.8 
	61.4,85.3 61.3,85.3 61,85.2 60.8,85.1 60.5,85 60.2,84.9 59.8,84.7 59.4,84.6 58.9,84.5 58.4,84.3 57.9,84.2 57.3,84.1 56.6,84 
	55.9,83.9 55.2,83.7 54.4,83.7 53.6,83.6 52.8,83.5 51.9,83.5 50.9,83.5 49.9,83.5 48.9,83.6 47.8,83.6 46.7,83.8 45.6,83.9 
	44.4,84.1 43.2,84.3 42,84.6 40.7,84.9 39.4,85.3 38,85.7 "/>
<polygon fill-rule="evenodd" clip-rule="evenodd" fill="#512422" points="32.3,73.4 32.3,73.5 32,73.9 31.7,74.6 31.3,75.6 31,76.1 
	30.8,76.7 30.5,77.4 30.2,78.1 29.9,78.8 29.6,79.6 29.2,80.4 28.9,81.3 28.6,82.2 28.3,83.1 27.9,84.1 27.6,85 27.3,86 27,87 
	26.7,88.1 26.4,89.1 26.1,90.2 25.9,91.2 25.6,92.3 25.4,93.4 25.2,94.4 25.1,95.5 24.9,96.6 24.8,97.6 24.8,98.6 24.7,99.6 
	24.7,100.6 24.8,101.5 24.9,102.3 25,103.1 25.1,103.9 25.3,104.7 25.4,105.4 25.6,106 25.9,106.7 26.1,107.3 26.4,107.8 
	26.6,108.4 26.9,108.9 27.2,109.3 27.5,109.7 27.8,110.1 28.1,110.5 28.4,110.8 28.7,111.1 29,111.4 29.3,111.6 29.6,111.9 
	29.8,112 30.1,112.2 30.3,112.3 30.6,112.4 30.8,112.5 30.9,112.6 31.1,112.6 31.2,112.6 31.2,112.6 31,112.6 30.9,112.6 
	30.7,112.5 30.6,112.5 30.4,112.4 30.2,112.3 29.9,112.2 29.7,112.1 29.4,112 29.2,111.9 28.9,111.7 28.6,111.6 28.3,111.4 
	28,111.2 27.7,110.9 27.4,110.7 27.1,110.4 26.8,110.1 26.4,109.8 26.1,109.4 25.8,109.1 25.5,108.7 25.2,108.2 25,107.7 
	24.7,107.2 24.4,106.7 24.2,106.2 23.9,105.6 23.7,104.9 23.5,104.2 23.4,103.5 23.3,102.6 23.3,101.7 23.3,100.8 23.3,99.8 
	23.3,98.7 23.5,97.6 23.6,96.4 23.8,95.3 23.9,94.1 24.2,92.9 24.4,91.6 24.7,90.4 25,89.2 25.4,87.9 25.7,86.7 26.1,85.5 
	26.5,84.3 26.9,83.1 27.3,82 27.7,80.9 28.1,79.9 28.6,78.9 29,77.9 29.5,77 30,76.2 30.4,75.5 30.9,74.8 31.4,74.2 31.9,73.8 
	32.3,73.4 "/>
<polygon fill-rule="evenodd" clip-rule="evenodd" fill="#512422" points="63.3,73.1 63.4,73.2 63.8,73.6 64,73.9 64.3,74.3 
	64.6,74.7 65,75.2 65.4,75.7 65.8,76.3 66.2,77 66.7,77.6 67.2,78.3 67.6,79.1 68.1,79.9 68.7,80.7 69.2,81.6 69.7,82.5 70.1,83.4 
	70.6,84.3 71.1,85.3 71.5,86.3 72,87.3 72.4,88.3 72.7,89.3 73.1,90.3 73.4,91.4 73.6,92.4 73.8,93.4 74,94.5 74.1,95.5 74.1,96.5 
	74.1,97.5 74.1,98.4 74.1,99.4 74.1,100.2 74.1,101.1 74.1,101.9 74,102.7 74,103.4 73.9,104.1 73.8,104.8 73.7,105.4 73.6,106 
	73.5,106.6 73.3,107.1 73.1,107.6 73,108.1 72.7,108.5 72.5,108.9 72.2,109.3 72,109.6 71.7,109.9 71.4,110.2 71,110.4 70.6,110.7 
	70.2,110.8 69.8,111 69.3,111.1 68.8,111.2 68.3,111.2 67.8,111.2 67.2,111.2 66.6,111.2 66.6,111.2 66.7,111.3 66.8,111.3 
	66.9,111.4 67,111.4 67.2,111.5 67.3,111.5 67.5,111.6 67.7,111.6 67.9,111.6 68.1,111.7 68.3,111.7 68.6,111.7 68.8,111.7 
	69.1,111.7 69.4,111.6 69.7,111.5 69.9,111.5 70.2,111.3 70.5,111.2 70.9,111 71.2,110.8 71.5,110.6 71.8,110.4 72.2,110.1 
	72.5,109.7 72.8,109.4 73.2,108.9 73.5,108.5 73.9,108 74.2,107.4 74.5,106.8 74.7,106.1 74.9,105.3 75.1,104.5 75.2,103.6 
	75.3,102.6 75.3,101.6 75.3,100.6 75.3,99.5 75.2,98.4 75.1,97.2 74.9,96 74.7,94.8 74.4,93.6 74.1,92.3 73.8,91.1 73.4,89.8 
	73,88.5 72.5,87.2 72,85.9 71.4,84.6 70.8,83.4 70.2,82.1 69.5,80.9 68.7,79.7 68,78.5 67.1,77.3 66.2,76.2 65.3,75.1 64.3,74.1 
	63.3,73.1 "/>
<polygon fill-rule="evenodd" clip-rule="evenodd" fill="#512422" points="28.3,111.7 28.2,111.7 27.8,111.7 27.5,111.8 27.2,111.9 
	27.1,111.9 26.9,112 26.8,112 26.7,112.1 26.5,112.2 26.4,112.3 26.2,112.4 26.1,112.5 26,112.6 25.9,112.7 25.8,112.8 25.7,113 
	25.6,113.1 25.5,113.3 25.5,113.5 25.5,113.7 25.5,113.9 25.5,114.1 25.5,114.3 25.6,114.6 25.6,114.8 25.7,115.1 25.9,115.3 
	26,115.6 26.2,115.8 26.4,116.1 26.6,116.3 26.8,116.5 27.1,116.8 27.3,117 27.6,117.2 27.9,117.4 28.2,117.6 28.6,117.7 
	28.9,117.9 29.2,118 29.6,118.2 30,118.3 30.4,118.4 30.7,118.5 31.1,118.5 31.6,118.6 32,118.6 32.4,118.6 32.8,118.6 33.2,118.5 
	33.7,118.4 34.1,118.3 34.5,118.2 34.9,118 35.4,117.9 35.8,117.6 36.2,117.4 36.6,117.2 37,116.9 37.3,116.6 37.7,116.4 38,116.1 
	38.3,115.9 38.5,115.6 38.8,115.3 39,115.1 39.2,114.8 39.4,114.5 39.6,114.2 39.7,114 39.9,113.7 40,113.5 40.1,113.2 40.1,112.9 
	40.2,112.7 40.2,112.4 40.3,112.2 40.3,112 40.3,111.7 40.2,111.5 40.2,111.3 40.1,111.1 40.1,110.9 40,110.7 39.9,110.6 
	39.7,110.4 39.6,110.3 39.5,110.1 38.9,109.4 38.9,109.4 39,109.4 39.2,109.5 39.4,109.5 39.5,109.6 39.6,109.7 39.7,109.7 
	39.8,109.8 40,109.9 40.1,110 40.2,110.1 40.3,110.2 40.5,110.3 40.6,110.5 40.7,110.6 40.8,110.8 40.9,111 41,111.1 41.1,111.3 
	41.2,111.6 41.3,111.8 41.4,112 41.4,112.3 41.5,112.5 41.5,112.8 41.5,113.1 41.5,113.5 41.5,113.8 41.4,114.1 41.3,114.5 
	41.2,114.8 41.1,115.2 40.9,115.6 40.7,115.9 40.5,116.3 40.3,116.6 40,117 39.7,117.3 39.4,117.7 39.1,118 38.8,118.3 38.4,118.6 
	38,118.9 37.7,119.2 37.3,119.4 36.9,119.7 36.4,119.9 36,120.1 35.6,120.3 35.1,120.5 34.7,120.6 34.2,120.7 33.8,120.8 
	33.3,120.9 32.9,120.9 32.4,120.9 32,120.8 31.6,120.8 31.1,120.7 30.7,120.5 30.3,120.4 29.9,120.2 29.5,120 29.1,119.8 
	28.7,119.6 28.3,119.4 28,119.2 27.6,119 27.3,118.8 27,118.6 26.7,118.3 26.4,118.1 26.1,117.8 25.9,117.6 25.6,117.4 25.4,117.1 
	25.2,116.9 25,116.6 24.8,116.3 24.6,116.1 24.5,115.8 24.3,115.5 24.2,115.3 24.1,115 24,114.7 23.9,114.5 23.8,114.2 23.8,113.9 
	23.7,113.6 23.7,113.4 23.7,113.1 23.7,112.8 23.8,112.6 23.8,112.3 23.9,112.1 24,111.9 24.1,111.7 24.2,111.5 24.4,111.4 
	24.5,111.3 24.7,111.1 24.9,111 25.1,111 25.3,110.9 25.5,110.8 25.7,110.8 25.9,110.8 26.1,110.7 26.4,110.7 26.6,110.7 
	26.8,110.7 27,110.8 27.2,110.8 27.4,110.8 27.5,110.9 27.7,111 27.8,111 28,111.1 28.1,111.2 28.2,111.3 28.2,111.4 28.3,111.5 
	28.3,111.6 28.3,111.7 "/>
<polygon fill-rule="evenodd" clip-rule="evenodd" fill="#512422" points="59.6,108.3 59.6,108.4 59.5,108.7 59.5,108.8 59.4,109.1 
	59.4,109.3 59.3,109.6 59.3,109.9 59.2,110.3 59.2,110.6 59.2,111 59.2,111.4 59.2,111.8 59.2,112.2 59.3,112.6 59.4,113.1 
	59.5,113.5 59.6,113.9 59.8,114.3 60,114.8 60.2,115.2 60.5,115.6 60.8,115.9 61.1,116.3 61.5,116.6 61.9,117 62.4,117.3 63,117.5 
	63.6,117.8 64.2,118 64.9,118.1 65.6,118.2 66.3,118.3 66.9,118.4 67.6,118.4 68.1,118.4 68.7,118.4 69.2,118.4 69.6,118.3 
	70,118.2 70.4,118.1 70.8,118 71.2,117.8 71.5,117.6 71.7,117.5 72,117.3 72.2,117.1 72.4,116.9 72.6,116.7 72.8,116.4 72.9,116.2 
	73,116 73.1,115.8 73.1,115.5 73.2,115.3 73.2,115.1 73.2,114.9 73.2,114.7 73.2,114.5 73.2,114.3 73.1,114.2 73,114 73,113.9 
	72.8,113.6 72.7,113.4 72.6,113.2 72.5,113.1 72.4,112.9 72.3,112.7 72.3,112.7 72.2,112.6 72.1,112.5 72.1,112.4 72,112.4 
	71.9,112.3 71.8,112.2 71.7,112.1 71.6,112.1 71.4,112 71.3,111.9 71.1,111.8 70.8,111.6 70.3,111.5 69.8,111.2 69.1,111 69.2,111 
	69.6,110.9 69.8,110.9 70.1,110.9 70.3,110.9 70.4,110.9 70.6,110.9 70.8,110.9 71,110.9 71.1,110.9 71.3,110.9 71.5,111 71.7,111 
	71.9,111.1 72.1,111.2 72.3,111.2 72.5,111.3 72.7,111.4 72.8,111.5 73,111.7 73.2,111.8 73.4,112 73.5,112.2 73.7,112.3 
	73.8,112.5 74,112.8 74.1,113 74.2,113.2 74.4,113.4 74.5,113.6 74.6,113.9 74.7,114.1 74.7,114.3 74.8,114.6 74.9,114.8 74.9,115 
	74.9,115.3 75,115.5 75,115.8 75,116 75,116.2 74.9,116.5 74.9,116.7 74.8,116.9 74.8,117.1 74.7,117.3 74.6,117.6 74.5,117.8 
	74.3,117.9 74.2,118.1 74,118.3 73.8,118.5 73.7,118.7 73.4,118.8 73.2,119 73,119.1 72.5,119.3 72,119.6 71.7,119.7 71.5,119.8 
	71.3,119.9 71,120 70.8,120.1 70.5,120.1 70.3,120.2 70.1,120.3 69.8,120.4 69.6,120.4 69.3,120.4 69.1,120.5 68.8,120.5 
	68.6,120.5 68.3,120.5 68,120.5 67.8,120.5 67.5,120.4 67.2,120.4 66.9,120.3 66.5,120.3 66.2,120.2 65.9,120.1 65.5,119.9 
	65.2,119.8 64.8,119.6 64.4,119.5 64,119.3 63.6,119.1 63.2,118.9 62.8,118.6 62.4,118.4 62,118.1 61.6,117.9 61.2,117.6 
	60.8,117.3 60.5,117 60.1,116.7 59.8,116.4 59.5,116 59.2,115.7 59,115.4 58.7,115 58.5,114.7 58.3,114.3 58.1,113.9 58,113.5 
	57.9,113.2 57.8,112.8 57.8,112.4 57.8,112 57.8,111.6 57.9,111.2 58,110.8 58.2,110.4 58.3,110 58.6,109.5 58.9,109.1 59.2,108.7 
	59.6,108.3 "/>
<polygon fill-rule="evenodd" clip-rule="evenodd" fill="#E3A7AA" points="34.1,72.1 33.8,73 33.5,73.9 33.2,74.9 32.9,75.8 
	32.6,76.8 32.3,77.8 32,78.8 31.8,79.8 31.6,80.3 31.5,80.8 31.4,81.3 31.3,81.8 31.2,82.3 31.1,82.8 31,83.3 30.9,83.8 30.8,84.3 
	30.7,84.8 30.6,85.2 30.6,85.7 30.5,86.2 30.5,86.7 30.5,87.1 30.4,87.6 30.4,88.1 30.5,88.5 30.5,89 30.5,89.4 30.6,89.9 
	30.6,90.3 30.7,90.8 30.8,91.3 30.9,91.7 31,92.2 31.1,92.6 31.3,93.1 31.4,93.5 31.6,93.9 31.7,94.1 31.8,94.4 31.9,94.6 32,94.8 
	32.1,95 32.2,95.2 32.3,95.4 32.4,95.6 32.7,96 32.9,96.4 33,96.7 33.1,96.9 33.1,97 33.2,97.1 33.2,97.2 33.2,97.3 33.3,97.4 
	33.3,97.5 33.3,97.7 33.3,97.8 33.3,97.9 33.3,98 33.3,98.2 33.3,98.3 33.3,98.5 33.2,98.7 33.2,98.9 33.1,99.2 33,99.3 32.9,99.5 
	32.8,99.7 32.7,99.9 32.6,100 32.5,100.2 32.4,100.3 32.2,100.5 32.1,100.6 31.9,100.7 31.8,100.8 31.6,100.9 31.4,101 31.2,101.1 
	31.1,101.2 30.9,101.3 30.7,101.3 30.5,101.4 30.3,101.4 30.1,101.5 29.9,101.5 29.7,101.5 29.5,101.6 29.3,101.6 29,101.6 
	28.8,101.6 28.6,101.6 28.4,101.6 27.6,101.5 26.8,101.3 26.1,101.1 25.5,100.9 24.9,100.6 24.3,100.2 23.8,99.9 23.4,99.5 23,99 
	22.7,98.5 22.4,98 22.1,97.5 21.9,96.9 21.7,96.3 21.6,95.7 21.5,95.1 21.4,94.5 21.4,93.8 21.3,93.2 21.4,92.5 21.4,91.8 
	21.5,91.1 21.5,90.5 21.6,89.8 21.8,89.1 21.9,88.4 22.1,87.8 22.2,87.1 22.4,86.5 22.6,85.8 22.7,85.2 22.9,84.6 23,84.4 23.1,84 
	23.3,83.7 23.5,83.3 23.7,82.8 23.9,82.3 24.1,81.8 24.4,81.2 24.7,80.6 25,80 25.3,79.4 25.6,78.8 26,78.2 26.4,77.6 26.8,77 
	27.1,76.4 27.5,75.8 28,75.2 28.4,74.7 28.8,74.2 29.2,73.7 29.7,73.3 30.1,72.9 30.6,72.5 31,72.2 31.5,72 31.9,71.8 32.4,71.7 
	32.8,71.7 33.2,71.7 33.7,71.9 34.1,72.1 "/>
<polygon fill-rule="evenodd" clip-rule="evenodd" fill="#512422" points="32.9,72.9 32.9,72.8 32.8,72.8 32.7,72.8 32.6,72.7 
	32.5,72.7 32.4,72.7 32.3,72.7 32.1,72.6 32,72.6 31.8,72.6 31.6,72.6 31.4,72.6 31.2,72.7 31,72.7 30.8,72.8 30.5,72.9 30.3,73 
	30,73.1 29.8,73.2 29.5,73.4 29.3,73.6 29,73.8 28.7,74.1 28.4,74.4 28.1,74.7 27.8,75 27.5,75.4 27.2,75.9 26.9,76.3 26.6,76.8 
	26.3,77.4 26,78 25.7,78.6 25.3,79.3 25,80 24.7,80.7 24.4,81.4 24.1,82.2 23.8,82.9 23.5,83.7 23.2,84.5 22.9,85.3 22.6,86.2 
	22.4,87 22.2,87.8 22,88.6 21.8,89.5 21.7,90.3 21.5,91.1 21.5,91.9 21.4,92.7 21.4,93.4 21.4,94.2 21.5,94.9 21.6,95.6 21.7,96.2 
	21.9,96.9 22.1,97.5 22.4,98.1 22.7,98.6 23.1,99.1 23.5,99.5 24,99.9 24.5,100.3 25,100.6 25.4,100.8 25.9,101.1 26.4,101.3 
	26.8,101.4 27.3,101.5 27.7,101.6 28.2,101.7 28.6,101.7 29,101.7 29.4,101.7 29.8,101.6 30.2,101.5 30.6,101.4 30.9,101.3 
	31.2,101.2 31.5,101 31.8,100.8 32.1,100.6 32.3,100.4 32.5,100.1 32.7,99.9 32.8,99.6 33,99.4 33,99.1 33.1,98.8 33.1,98.5 
	33.1,98.3 33.1,98 33,97.7 32.8,97.1 32.5,96.4 32.2,95.6 31.8,94.8 31.7,94.3 31.5,93.8 31.3,93.4 31.2,92.9 31,92.4 30.9,91.8 
	30.7,91.3 30.6,90.7 30.5,90.1 30.4,89.6 30.3,89 30.2,88.3 30.1,87.7 30.1,87.1 30.1,86.4 30.1,85.7 30.1,85 30.1,84.3 30.2,83.6 
	30.3,82.9 30.5,82.2 30.6,81.5 30.8,80.7 31,79.9 31,80 31,80.3 30.9,80.7 30.9,81.3 30.8,81.6 30.8,82 30.8,82.4 30.8,82.8 
	30.7,83.2 30.7,83.6 30.7,84.1 30.7,84.6 30.7,85.1 30.7,85.6 30.8,86.1 30.8,86.6 30.9,87.1 30.9,87.7 31,88.2 31.1,88.7 
	31.2,89.3 31.3,89.8 31.5,90.3 31.6,90.8 31.8,91.3 32,91.8 32.2,92.2 32.5,92.6 32.7,93.1 33,93.5 33.2,94 33.4,94.4 33.6,94.9 
	33.8,95.3 34,95.8 34.1,96.2 34.3,96.7 34.4,97.1 34.5,97.6 34.5,98 34.6,98.4 34.6,98.9 34.6,99.3 34.6,99.7 34.5,100.1 
	34.5,100.5 34.4,100.8 34.3,101.2 34.1,101.5 33.9,101.8 33.7,102.1 33.5,102.4 33.2,102.7 32.9,102.9 32.5,103.1 32.2,103.3 
	31.8,103.4 31.3,103.6 30.8,103.7 30.3,103.8 29.9,103.8 29.5,103.8 29.2,103.8 28.8,103.7 28.4,103.7 28,103.6 27.6,103.5 
	27.2,103.4 26.8,103.2 26.5,103.1 26.1,102.9 25.7,102.7 25.3,102.5 25,102.3 24.6,102.1 24.3,101.8 23.9,101.6 23.6,101.3 
	23.2,101 22.9,100.7 22.6,100.4 22.3,100.1 22,99.8 21.7,99.5 21.5,99.2 21.2,98.8 21,98.5 20.7,98.2 20.5,97.8 20.3,97.5 
	20.1,97.1 20,96.8 19.7,96.3 19.6,95.7 19.4,95.2 19.3,94.7 19.2,94.2 19.2,93.6 19.2,93.1 19.2,92.6 19.2,92.1 19.3,91.6 19.3,91 
	19.4,90.5 19.6,90 19.7,89.5 19.8,89 20,88.4 20.2,87.9 20.4,87.4 20.6,86.9 20.8,86.4 21.2,85.4 21.7,84.3 22.2,83.3 22.6,82.3 
	22.8,81.8 23,81.3 23.2,80.8 23.4,80.3 23.5,80 23.7,79.6 23.8,79.2 24,78.8 24.1,78.4 24.3,78 24.5,77.5 24.7,77.1 24.9,76.7 
	25.2,76.3 25.4,75.9 25.6,75.5 25.9,75.1 26.2,74.8 26.5,74.4 26.8,74.1 27,73.8 27.4,73.5 27.7,73.2 28,72.9 28.4,72.7 28.7,72.5 
	29.1,72.4 29.5,72.3 29.9,72.2 30.3,72.2 30.7,72.2 31.1,72.2 31.5,72.3 32,72.4 32.4,72.6 32.9,72.9 "/>
<polygon fill-rule="evenodd" clip-rule="evenodd" fill="#E3A7AA" points="63.7,71.8 63.9,72.8 64.1,73.7 64.3,74.7 64.5,75.7 
	64.7,76.7 64.9,77.7 65.1,78.7 65.3,79.7 65.4,80.3 65.5,80.8 65.5,81.3 65.6,81.8 65.7,82.3 65.7,82.8 65.8,83.3 65.8,83.9 
	65.9,84.3 65.9,84.8 65.9,85.3 65.9,85.8 65.9,86.3 65.9,86.8 65.9,87.3 65.9,87.7 65.9,88.2 65.8,88.6 65.8,89.1 65.7,89.5 
	65.6,90 65.5,90.4 65.4,90.9 65.2,91.4 65.1,91.8 65,92.2 64.8,92.7 64.6,93.1 64.4,93.5 64.2,94 64,94.4 63.8,94.7 63.7,95 
	63.5,95.2 63.4,95.4 63.3,95.6 63,95.9 62.7,96.3 62.6,96.5 62.5,96.7 62.4,96.8 62.4,96.9 62.4,97.1 62.3,97.2 62.3,97.3 
	62.2,97.4 62.2,97.5 62.2,97.6 62.2,97.8 62.2,97.9 62.2,98 62.2,98.1 62.2,98.4 62.2,98.6 62.2,98.8 62.3,99 62.3,99.2 62.4,99.4 
	62.5,99.6 62.6,99.8 62.7,99.9 62.8,100.1 62.9,100.2 63,100.4 63.2,100.5 63.3,100.7 63.5,100.8 63.6,100.9 63.8,101 64,101.1 
	64.2,101.2 64.3,101.3 64.5,101.4 64.7,101.5 64.9,101.5 65.1,101.6 65.3,101.6 65.5,101.7 65.7,101.7 65.9,101.8 66.1,101.8 
	66.3,101.8 66.5,101.8 66.7,101.8 67.6,101.8 68.4,101.7 69.1,101.6 69.8,101.4 70.4,101.1 70.9,100.8 71.5,100.5 71.9,100.1 
	72.4,99.7 72.7,99.3 73.1,98.8 73.4,98.3 73.6,97.7 73.9,97.2 74.1,96.6 74.2,96 74.3,95.3 74.4,94.7 74.5,94 74.6,93.4 74.6,92.7 
	74.6,92 74.5,91.3 74.5,90.6 74.4,90 74.4,89.3 74.3,88.6 74.1,87.9 74,87.3 73.9,86.6 73.8,86 73.6,85.4 73.6,85.1 73.5,84.8 
	73.4,84.4 73.2,84 73.1,83.5 72.9,83 72.7,82.4 72.5,81.8 72.3,81.2 72,80.6 71.8,80 71.5,79.3 71.2,78.7 70.9,78 70.5,77.4 
	70.2,76.7 69.9,76.1 69.5,75.5 69.1,74.9 68.8,74.4 68.4,73.9 68,73.4 67.6,73 67.2,72.6 66.8,72.2 66.3,72 65.9,71.8 65.5,71.6 
	65,71.6 64.6,71.6 64.2,71.7 63.7,71.8 "/>
<polygon fill-rule="evenodd" clip-rule="evenodd" fill="#512422" points="79.3,19.6 79.4,19.7 79.7,20 80.2,20.5 80.9,21.1 
	81.8,21.9 82.7,22.7 83.7,23.7 84.8,24.7 85.9,25.7 87.1,26.8 88.2,27.8 89.2,28.8 90.2,29.7 91,30.5 91.8,31.2 92.4,31.8 92.6,32 
	92.9,32.3 93.1,32.7 93.4,33.1 93.6,33.6 93.9,34.1 94.1,34.6 94.4,35.2 94.6,35.8 94.9,36.4 95.1,37.1 95.3,37.8 95.5,38.4 
	95.8,39.1 96,39.8 96.2,40.6 96.3,41.3 96.5,42 96.7,42.7 96.8,43.3 96.9,44 97.1,44.7 97.2,45.3 97.3,45.9 97.3,46.5 97.4,47.1 
	97.4,47.6 97.4,48.1 97.4,48.5 97.4,48.9 97.3,49.2 97.2,49.5 97.2,49.8 97,50 96.9,50.3 96.7,50.5 96.6,50.7 96.4,50.9 96.2,51.1 
	95.9,51.3 95.7,51.5 95.4,51.6 95.1,51.7 94.8,51.8 94.5,51.9 94.2,51.9 93.8,52 93.5,52 93.1,51.9 92.7,51.8 92.3,51.7 91.9,51.6 
	91.5,51.4 91.1,51.1 90.7,50.9 90.2,50.5 89.7,50.2 89.3,49.8 88.8,49.3 88.3,48.8 87.8,48.2 87.3,47.6 86.8,46.9 86.3,46.2 
	85.8,45.4 85.3,44.5 84.8,43.6 84.4,42.7 84,41.7 83.6,40.7 83.2,39.6 82.8,38.5 82.5,37.4 82.2,36.3 81.9,35.2 81.6,34.1 81.4,33 
	81.1,31.9 80.9,30.8 80.7,29.8 80.5,28.7 80.3,27.7 80.2,26.7 80,25.8 79.9,24.9 79.8,24.1 79.7,23.3 79.6,22.6 79.4,21.3 
	79.3,20.4 79.3,19.8 79.3,19.6 "/>
<polygon fill-rule="evenodd" clip-rule="evenodd" fill="#E09095" points="77.5,19.3 77.6,19.4 78,19.7 78.5,20.2 79.3,20.9 
	80.1,21.7 81.1,22.6 82.2,23.6 83.3,24.6 84.5,25.7 85.7,26.8 86.8,27.8 87.9,28.9 88.9,29.8 89.8,30.6 90.6,31.3 91.2,31.9 
	91.4,32.2 91.7,32.5 91.9,32.8 92.2,33.3 92.4,33.7 92.6,34.2 92.9,34.7 93.1,35.3 93.3,35.9 93.5,36.5 93.7,37.1 93.9,37.8 
	94.1,38.4 94.3,39.1 94.5,39.8 94.7,40.5 94.8,41.2 95,41.8 95.1,42.5 95.2,43.2 95.3,43.9 95.4,44.5 95.5,45.1 95.6,45.7 
	95.6,46.3 95.6,46.8 95.7,47.3 95.7,47.8 95.6,48.2 95.6,48.6 95.5,48.9 95.5,49.2 95.4,49.5 95.3,49.7 95.1,49.9 95,50 94.8,50.2 
	94.6,50.3 94.3,50.3 94.1,50.4 93.9,50.4 93.6,50.4 93.3,50.3 93,50.3 92.7,50.2 92.3,50 92,49.9 91.6,49.7 91.2,49.4 90.9,49.2 
	90.5,48.9 90,48.6 89.6,48.2 89.2,47.8 88.7,47.4 88.3,46.9 87.8,46.4 87.3,45.9 86.8,45.3 86.3,44.7 85.8,44 85.3,43.4 84.8,42.6 
	84.3,41.9 83.8,41.1 83.3,40.3 82.9,39.4 82.4,38.6 82,37.7 81.6,36.8 81.2,35.8 80.9,34.9 80.6,33.9 80.3,33 80,32.1 79.7,31.1 
	79.5,30.2 79.2,29.3 79,28.4 78.8,27.5 78.6,26.6 78.5,25.8 78.3,25 78.2,24.3 78.1,23.5 77.9,22.9 77.9,22.2 77.8,21.6 77.6,20.7 
	77.6,19.9 77.5,19.4 77.5,19.3 "/>
<polygon fill-rule="evenodd" clip-rule="evenodd" fill="#512422" points="84.2,31.2 84.3,31.2 84.5,31.4 84.7,31.6 85,31.9 
	85.4,32.3 85.9,32.8 86.3,33.3 86.8,33.8 87.4,34.3 87.9,34.9 88.1,35.2 88.4,35.5 88.6,35.8 88.9,36 89.1,36.3 89.3,36.6 
	89.5,36.9 89.7,37.1 89.9,37.4 90,37.6 90.2,37.8 90.3,38 90.4,38.3 90.5,38.5 90.6,38.7 90.6,38.9 90.7,39.2 90.8,39.4 90.9,39.7 
	91,39.9 91,40.1 91.1,40.4 91.2,40.6 91.2,40.8 91.3,41.1 91.3,41.3 91.4,41.5 91.4,41.8 91.5,42 91.5,42.2 91.5,42.4 91.5,42.6 
	91.5,42.8 91.5,43 91.5,43.1 91.5,43.3 91.5,43.4 91.5,43.6 91.4,43.7 91.4,43.8 91.3,43.9 91.3,44 91.2,44 91.2,44.1 91.1,44.1 
	91,44.1 90.9,44 90.7,43.9 90.6,43.8 90.4,43.7 90.2,43.5 90,43.3 89.8,43.1 89.6,42.9 89.4,42.6 89.2,42.3 89,41.9 88.7,41.6 
	88.5,41.2 88.2,40.8 88,40.3 87.7,39.9 87.4,39.4 87.2,38.9 86.9,38.4 86.7,37.8 86.4,37.2 86.1,36.7 85.9,36 85.6,35.4 85.4,34.7 
	85.1,34.1 84.9,33.4 84.7,32.7 84.5,31.9 84.2,31.2 "/>
<polygon fill-rule="evenodd" clip-rule="evenodd" fill="#512422" points="19.6,16.5 19.4,16.6 19.1,16.9 18.5,17.4 17.8,18 17,18.7 
	16,19.6 14.9,20.5 13.8,21.4 12.6,22.4 11.4,23.4 10.3,24.3 9.2,25.3 8.2,26.1 7.3,26.9 6.5,27.5 5.9,28.1 5.6,28.3 5.3,28.6 
	5.1,29 4.8,29.4 4.5,29.8 4.2,30.3 4,30.8 3.7,31.4 3.4,32 3.1,32.6 2.9,33.3 2.6,33.9 2.4,34.6 2.1,35.3 1.9,36 1.6,36.7 1.4,37.4 
	1.2,38 1,38.7 0.8,39.4 0.7,40.1 0.5,40.7 0.4,41.4 0.3,42 0.2,42.6 0.1,43.1 0,43.6 0,44.1 0,44.5 0,44.9 0,45.3 0.1,45.5 
	0.2,45.8 0.3,46.1 0.4,46.3 0.6,46.5 0.7,46.8 0.9,47 1.1,47.2 1.3,47.4 1.6,47.6 1.8,47.7 2.1,47.9 2.4,48 2.7,48.1 3,48.1 
	3.4,48.2 3.7,48.2 4.1,48.2 4.5,48.1 4.9,48 5.3,47.9 5.7,47.7 6.2,47.5 6.6,47.2 7.1,46.9 7.6,46.6 8.1,46.2 8.6,45.8 9.1,45.3 
	9.6,44.7 10.1,44.1 10.7,43.5 11.2,42.8 11.8,42 12.3,41.2 12.8,40.3 13.3,39.4 13.8,38.4 14.2,37.4 14.6,36.4 15,35.3 15.4,34.2 
	15.8,33.2 16.2,32.1 16.5,31 16.8,29.9 17.1,28.8 17.4,27.7 17.6,26.7 17.9,25.6 18.1,24.6 18.3,23.7 18.5,22.7 18.7,21.9 18.8,21 
	19,20.2 19.1,19.5 19.3,18.3 19.5,17.3 19.5,16.8 19.6,16.5 "/>
<polygon fill-rule="evenodd" clip-rule="evenodd" fill="#E09095" points="21.4,16.3 21.2,16.4 20.9,16.8 20.3,17.2 19.5,17.9 
	18.6,18.6 17.6,19.5 16.4,20.4 15.3,21.4 14,22.4 12.8,23.4 11.6,24.4 10.5,25.4 9.4,26.3 8.5,27.1 7.7,27.7 7.1,28.3 6.8,28.5 
	6.5,28.8 6.3,29.2 6,29.6 5.7,30 5.5,30.5 5.2,31 5,31.5 4.7,32.1 4.5,32.7 4.2,33.3 4,34 3.8,34.6 3.5,35.3 3.3,36 3.1,36.7 
	2.9,37.3 2.8,38 2.6,38.7 2.4,39.3 2.3,40 2.2,40.6 2.1,41.2 2,41.8 1.9,42.4 1.8,42.9 1.8,43.4 1.8,43.9 1.8,44.3 1.8,44.7 
	1.8,45.1 1.9,45.3 2,45.6 2.1,45.8 2.2,46 2.4,46.2 2.5,46.3 2.7,46.4 3,46.5 3.2,46.6 3.4,46.6 3.7,46.6 4,46.6 4.3,46.5 4.6,46.4 
	5,46.3 5.3,46.2 5.7,46 6.1,45.8 6.5,45.5 6.9,45.3 7.4,45 7.8,44.6 8.3,44.2 8.7,43.8 9.2,43.4 9.7,42.9 10.2,42.4 10.7,41.9 
	11.2,41.3 11.8,40.7 12.3,40 12.9,39.3 13.4,38.6 14,37.8 14.5,37 15,36.2 15.5,35.4 15.9,34.5 16.4,33.6 16.8,32.7 17.2,31.8 
	17.5,30.8 17.9,29.9 18.2,29 18.5,28.1 18.8,27.1 19.1,26.2 19.4,25.4 19.6,24.5 19.8,23.6 20.1,22.8 20.2,22 20.4,21.3 20.6,20.6 
	20.7,19.9 20.8,19.3 21,18.7 21.1,17.7 21.3,17 21.3,16.5 21.4,16.3 "/>
<polygon fill-rule="evenodd" clip-rule="evenodd" fill="#512422" points="16.6,66 16.4,65.9 15.9,65.6 15.5,65.3 15.1,65 14.6,64.7 
	14.1,64.3 13.5,63.8 12.9,63.3 12.3,62.7 11.7,62.1 11.1,61.4 10.5,60.6 9.9,59.8 9.3,59 8.7,58.1 8.2,57.1 7.7,56.1 7.2,55 
	6.9,53.8 6.6,52.6 6.3,51.4 6.2,50.1 6.1,48.7 6.1,47.2 6.3,45.7 6.5,44.2 6.9,42.6 7.4,40.9 8.1,39.2 8.8,37.4 10.4,34 11.8,31.1 
	13,28.7 14,26.6 14.4,25.7 14.8,24.8 15.2,24.1 15.5,23.4 15.9,22.7 16.2,22.1 16.5,21.5 16.8,21 17.1,20.5 17.4,20 17.6,19.5 
	17.9,19 18.2,18.6 18.5,18.1 18.9,17.6 19.2,17.1 20,15.9 20.9,14.7 21.9,13.2 23.1,11.4 23.9,10.4 24.6,9.5 25.5,8.6 26.4,7.8 
	27.3,6.9 28.3,6.1 29.4,5.4 30.5,4.7 31.7,4 32.9,3.4 34.2,2.8 35.5,2.3 36.9,1.8 38.3,1.4 39.7,1 41.2,0.7 42.7,0.4 44.2,0.2 
	45.7,0.1 47.3,0 48.9,0 50.5,0.1 52.1,0.2 53.8,0.4 55.4,0.6 57.1,0.9 58.8,1.4 60.4,1.8 62.1,2.4 63.8,3 65.4,3.8 67.1,4.6 
	68.7,5.5 70.2,6.4 71.6,7.4 72.9,8.5 74.1,9.7 75.3,10.8 76.4,12 77.3,13.3 78.3,14.6 79.1,15.8 79.9,17.1 80.6,18.5 81.2,19.8 
	81.8,21.1 82.3,22.3 82.8,23.6 83.2,24.8 83.6,26 83.9,27.2 84.2,28.3 84.4,29.4 84.6,30.4 84.8,31.3 85,32.2 85.1,33 85.1,33.7 
	85.2,34.3 85.3,34.8 85.3,35.6 85.3,35.8 85.4,36.1 85.8,36.8 86,37.3 86.3,37.9 86.6,38.6 86.9,39.4 87.2,40.3 87.5,41.2 
	87.9,42.2 88.2,43.3 88.5,44.4 88.7,45.6 89,46.8 89.2,48 89.4,49.3 89.5,50.6 89.5,51.9 89.5,53.2 89.4,54.5 89.3,55.8 89,57.1 
	88.7,58.4 88.2,59.7 87.7,60.9 87,62.1 86.2,63.3 85.3,64.4 84.3,65.4 83.1,66.4 81.7,67.3 80.3,68.2 78.7,69 77,69.7 75.2,70.4 
	73.4,71.1 71.4,71.6 69.4,72.1 67.3,72.6 65.2,73 63,73.3 60.8,73.6 58.5,73.8 56.2,74 53.9,74.1 51.5,74.1 49.2,74.1 46.8,74 
	44.5,73.9 42.2,73.7 39.9,73.5 37.6,73.2 35.4,72.8 33.2,72.4 31,71.9 28.9,71.4 26.9,70.8 25,70.1 23.1,69.4 21.3,68.6 19.6,67.8 
	18.1,66.9 16.6,66 "/>
<polygon fill-rule="evenodd" clip-rule="evenodd" fill="#E3A7AA" points="17.8,64.8 17.6,64.7 17.1,64.3 16.8,64.1 16.4,63.7 
	15.9,63.4 15.4,62.9 14.9,62.4 14.4,61.8 13.8,61.2 13.2,60.6 12.6,59.8 12.1,59 11.5,58.2 10.9,57.3 10.4,56.4 9.9,55.4 9.5,54.3 
	9.1,53.2 8.7,52 8.4,50.8 8.2,49.5 8.1,48.2 8,46.8 8,45.4 8.2,43.9 8.4,42.4 8.8,40.8 9.3,39.2 9.9,37.5 10.6,35.8 12.1,32.6 
	13.4,29.9 14.5,27.6 15.4,25.7 15.8,24.9 16.2,24.1 16.5,23.4 16.8,22.8 17.1,22.2 17.4,21.7 17.7,21.3 17.9,20.8 18.2,20.4 
	18.4,20 18.7,19.6 18.9,19.2 19.5,18.5 20.1,17.6 20.8,16.6 21.6,15.5 22.1,14.8 22.6,14.1 23.1,13.3 23.7,12.4 24.4,11.5 
	25.2,10.6 26,9.7 26.8,8.9 27.8,8.1 28.7,7.3 29.8,6.6 30.9,5.9 32,5.3 33.2,4.6 34.5,4.1 35.8,3.6 37.1,3.1 38.4,2.7 39.8,2.3 
	41.3,2 42.7,1.7 44.2,1.5 45.7,1.4 47.2,1.3 48.8,1.3 50.4,1.3 51.9,1.4 53.5,1.6 55.1,1.8 56.7,2.1 58.3,2.5 59.9,3 61.5,3.5 
	63.1,4.1 64.7,4.8 66.3,5.6 67.8,6.5 69.2,7.4 70.5,8.4 71.8,9.4 73,10.5 74.1,11.7 75.1,12.8 76.1,14 77,15.2 77.8,16.5 78.6,17.7 
	79.2,19 79.9,20.3 80.5,21.5 81,22.8 81.5,24 81.9,25.2 82.2,26.4 82.6,27.5 82.9,28.6 83.1,29.6 83.3,30.6 83.5,31.5 83.7,32.3 
	83.8,33.1 83.9,33.8 84,34.4 84,34.9 84.1,35.6 84.1,35.8 84.2,36 84.5,36.7 84.8,37.2 85,37.8 85.2,38.5 85.5,39.2 85.8,40.1 
	86.1,41 86.4,41.9 86.6,43 86.9,44 87.1,45.1 87.3,46.3 87.5,47.5 87.6,48.7 87.7,49.9 87.7,51.2 87.7,52.4 87.6,53.7 87.4,55 
	87.2,56.2 86.8,57.4 86.4,58.6 85.8,59.8 85.2,61 84.4,62.1 83.6,63.1 82.6,64.2 81.4,65.1 80.2,66 78.8,66.8 77.3,67.6 75.7,68.3 
	74,69 72.2,69.6 70.3,70.1 68.4,70.6 66.4,71.1 64.3,71.5 62.2,71.8 60.1,72 57.9,72.3 55.7,72.4 53.5,72.5 51.2,72.6 49,72.6 
	46.7,72.5 44.5,72.4 42.2,72.2 40,72 37.9,71.7 35.7,71.3 33.6,70.9 31.6,70.5 29.6,70 27.6,69.4 25.8,68.8 24,68.1 22.3,67.4 
	20.7,66.6 19.2,65.7 17.8,64.8 "/>
<polygon fill-rule="evenodd" clip-rule="evenodd" fill="#E0959A" points="84.1,35.8 84.1,35.6 84,34.9 84,34.4 83.9,33.8 83.8,33.1 
	83.7,32.3 83.5,31.5 83.3,30.6 83.1,29.6 82.9,28.6 82.6,27.5 82.2,26.4 81.9,25.2 81.5,24 81,22.8 80.5,21.5 79.9,20.3 79.2,19 
	78.6,17.7 77.8,16.5 77,15.2 76.1,14 75.1,12.8 74.1,11.7 73,10.5 71.8,9.4 70.5,8.4 69.2,7.4 67.8,6.5 66.3,5.6 65.9,5.4 65.6,5.3 
	65.2,5.1 64.9,4.9 64.2,4.6 63.4,4.3 62.7,4 62,3.7 61.3,3.5 60.6,3.2 59.9,3 59.2,2.8 58.5,2.6 57.8,2.4 57.1,2.3 56.3,2.1 55.6,2 
	54.9,1.8 55.1,1.9 55.3,2 55.5,2.1 55.7,2.2 57.2,3 58.6,4 60,4.9 61.2,6 62.4,7.1 63.5,8.2 64.5,9.4 65.5,10.6 66.4,11.8 67.2,13 
	68,14.3 68.7,15.6 69.3,16.8 69.9,18.1 70.4,19.3 70.9,20.6 71.3,21.7 71.7,22.9 72,24 72.3,25.1 72.5,26.1 72.8,27.1 72.9,28 
	73.1,28.9 73.2,29.6 73.3,30.3 73.4,30.9 73.5,31.4 73.5,32.1 73.5,32.4 73.7,32.6 74,33.3 74.2,33.8 74.4,34.4 74.7,35 74.9,35.8 
	75.2,36.6 75.5,37.5 75.8,38.5 76,39.5 76.3,40.6 76.5,41.7 76.7,42.9 76.9,44 77,45.2 77.1,46.5 77.1,47.7 77.1,49 77,50.3 
	76.8,51.5 76.6,52.8 76.2,54 75.8,55.2 75.2,56.4 74.6,57.5 73.8,58.6 73,59.7 72,60.7 70.8,61.7 69.6,62.6 68.6,63.2 67.5,63.8 
	66.4,64.3 65.2,64.8 64,65.3 62.7,65.8 61.4,66.2 60,66.6 58.6,67 57.2,67.3 55.7,67.6 54.2,67.9 52.7,68.2 51.2,68.4 49.6,68.6 
	48,68.7 46.4,68.9 44.8,69 43.2,69.1 41.5,69.1 39.9,69.1 38.3,69.1 36.6,69 35,69 33.3,68.9 31.7,68.7 30.1,68.6 28.5,68.4 
	26.9,68.2 25.4,67.9 23.8,67.6 22.3,67.3 23.8,68 25.4,68.6 27.1,69.2 28.8,69.7 30.6,70.2 32.4,70.6 34.3,71 36.2,71.4 38.2,71.7 
	40.2,72 42.2,72.2 44.2,72.3 46.2,72.5 48.3,72.5 50.3,72.6 52.3,72.5 54.4,72.5 56.4,72.4 58.4,72.2 60.4,72 62.3,71.8 64.2,71.5 
	66.1,71.1 67.9,70.8 69.7,70.3 71.4,69.8 73,69.3 74.6,68.7 76.1,68.1 77.5,67.5 78.9,66.8 80.2,66 81.4,65.1 82.6,64.2 83.6,63.1 
	84.4,62.1 85.2,61 85.8,59.8 86.4,58.6 86.8,57.4 87.2,56.2 87.4,55 87.6,53.7 87.7,52.4 87.7,51.2 87.7,49.9 87.6,48.7 87.5,47.5 
	87.3,46.3 87.1,45.1 86.9,44 86.6,43 86.4,41.9 86.1,41 85.8,40.1 85.5,39.2 85.2,38.5 85,37.8 84.8,37.2 84.5,36.7 84.2,36 
	84.1,35.8 "/>
<polygon fill-rule="evenodd" clip-rule="evenodd" fill="#512422" points="59.7,41.9 60.1,41.4 60.5,40.8 60.7,40.2 60.9,39.6 61,39 
	61.1,38.4 61.1,37.8 61,37.2 60.9,36.5 60.8,35.9 60.6,35.2 60.3,34.6 60,34 59.7,33.3 59.3,32.7 58.9,32.1 58.5,31.4 58.1,30.8 
	57.6,30.2 57.1,29.7 56.6,29.1 56.1,28.6 55.6,28.1 55,27.6 54.5,27.1 54,26.6 53.4,26.2 52.9,25.9 52.4,25.5 51.9,25.2 51.4,24.9 
	51,24.7 50.3,24.4 49.6,24.2 49,24 48.3,23.9 47.7,23.8 47.1,23.8 46.4,23.8 45.8,23.9 45.2,24 44.5,24.2 43.9,24.4 43.3,24.6 
	42.7,24.9 42.1,25.2 41.5,25.5 41,25.9 40.4,26.3 39.8,26.7 39.3,27.1 38.8,27.5 38.2,28 37.7,28.5 37.2,29 36.7,29.5 36.3,30 
	35.8,30.5 35.4,31.1 34.9,31.6 34.5,32.1 34.1,32.7 33.8,33.2 33.4,33.7 32.9,34.4 32.5,35.1 32.2,35.8 32,36.5 31.8,37.1 
	31.7,37.7 31.7,38.3 31.8,38.8 31.9,39.3 32,39.8 32.2,40.2 32.5,40.7 32.8,41.1 33.2,41.4 33.6,41.8 34,42.1 34.4,42.4 34.9,42.7 
	35.4,43 36,43.2 36.6,43.4 37.1,43.6 37.7,43.8 38.3,43.9 38.9,44 39.5,44.1 40.1,44.2 40.8,44.3 41.3,44.3 41.9,44.3 42.5,44.3 
	43.1,44.3 43.5,44.3 44,44.3 44.5,44.3 45,44.3 46.1,44.4 47.2,44.4 48.3,44.5 49.5,44.6 50.1,44.6 50.7,44.6 51.3,44.6 51.8,44.6 
	52.4,44.6 53,44.6 53.6,44.5 54.1,44.5 54.7,44.4 55.2,44.3 55.8,44.2 56.3,44 56.8,43.9 57.3,43.7 57.7,43.5 58.2,43.2 58.6,42.9 
	59,42.6 59.4,42.3 59.7,41.9 "/>
<polygon fill-rule="evenodd" clip-rule="evenodd" fill="#EBC5CB" points="58.8,40.8 59.2,40.3 59.5,39.8 59.8,39.3 59.9,38.7 
	60,38.2 60.1,37.6 60.1,37.1 60,36.5 60,35.9 59.8,35.4 59.6,34.8 59.4,34.2 59.1,33.6 58.8,33 58.5,32.5 58.1,31.9 57.7,31.4 
	57.3,30.8 56.9,30.3 56.4,29.8 56,29.3 55.5,28.8 55,28.3 54.5,27.9 54,27.4 53.6,27 53.1,26.7 52.6,26.3 52.1,26 51.6,25.7 
	51.2,25.5 50.8,25.3 50.2,25 49.6,24.8 49,24.7 48.4,24.5 47.8,24.5 47.2,24.5 46.6,24.5 46,24.6 45.5,24.7 44.9,24.8 44.3,25 
	43.8,25.2 43.2,25.5 42.7,25.7 42.1,26 41.6,26.3 41.1,26.7 40.6,27.1 40.1,27.4 39.6,27.9 39.1,28.3 38.6,28.7 38.2,29.2 
	37.7,29.6 37.3,30.1 36.9,30.6 36.5,31 36.1,31.5 35.7,32 35.3,32.5 35,32.9 34.6,33.4 34.2,34.1 33.9,34.7 33.6,35.3 33.4,35.9 
	33.2,36.5 33.1,37 33.1,37.5 33.2,38 33.2,38.4 33.4,38.9 33.6,39.3 33.8,39.7 34.1,40 34.4,40.4 34.8,40.7 35.2,41 35.6,41.3 
	36.1,41.5 36.5,41.7 37,41.9 37.6,42.1 38.1,42.3 38.6,42.5 39.2,42.6 39.7,42.7 40.3,42.8 40.9,42.9 41.4,42.9 42,42.9 42.5,43 
	43,43 43.5,43 44,42.9 44.4,42.9 44.9,42.9 45.3,43 46.3,43 47.3,43.1 48.4,43.1 49.4,43.2 50,43.2 50.5,43.2 51.1,43.2 51.6,43.2 
	52.1,43.2 52.7,43.2 53.2,43.2 53.7,43.1 54.2,43 54.7,42.9 55.2,42.8 55.7,42.7 56.1,42.6 56.6,42.4 57,42.2 57.4,42 57.8,41.7 
	58.2,41.4 58.5,41.1 58.8,40.8 "/>
<polygon fill-rule="evenodd" clip-rule="evenodd" fill="#E09095" points="59.7,26.1 59.7,26.7 59.8,27.3 59.8,27.8 59.9,28.4 
	60.1,28.9 60.2,29.4 60.4,29.9 60.6,30.4 60.8,30.9 61.1,31.4 61.3,31.9 61.6,32.3 61.9,32.8 62.3,33.2 62.6,33.6 63,34 63.4,34.3 
	63.8,34.7 64.2,35 64.6,35.3 65.1,35.6 65.5,35.9 66,36.1 66.5,36.3 67,36.6 67.5,36.7 68,36.9 68.6,37 69.1,37.1 69.7,37.2 
	70.3,37.2 70.8,37.2 71.4,37.2 72,37.2 72.5,37.1 73.1,37 73.6,36.9 74.1,36.7 74.7,36.6 75.2,36.3 75.6,36.1 76.1,35.9 76.6,35.6 
	77,35.3 77.5,35 77.9,34.7 78.3,34.3 78.7,34 79.1,33.6 79.4,33.2 79.7,32.8 80,32.3 80.3,31.9 80.6,31.4 80.8,30.9 81.1,30.4 
	81.3,29.9 81.4,29.4 81.6,28.9 81.7,28.4 81.8,27.8 81.9,27.3 81.9,26.7 81.9,26.1 81.9,25.5 81.9,25 81.8,24.4 81.7,23.9 
	81.6,23.3 81.4,22.8 81.3,22.3 81.1,21.8 80.8,21.3 80.6,20.8 80.3,20.4 80,19.9 79.7,19.5 79.4,19 79.1,18.6 78.7,18.3 78.3,17.9 
	77.9,17.5 77.5,17.2 77,16.9 76.6,16.6 76.1,16.3 75.6,16.1 75.2,15.9 74.7,15.7 74.1,15.5 73.6,15.4 73.1,15.2 72.5,15.1 72,15.1 
	71.4,15 70.8,15 70.3,15 69.7,15.1 69.1,15.1 68.6,15.2 68,15.4 67.5,15.5 67,15.7 66.5,15.9 66,16.1 65.5,16.3 65.1,16.6 
	64.6,16.9 64.2,17.2 63.8,17.5 63.4,17.9 63,18.3 62.6,18.6 62.3,19 61.9,19.5 61.6,19.9 61.3,20.4 61.1,20.8 60.8,21.3 60.6,21.8 
	60.4,22.3 60.2,22.8 60.1,23.3 59.9,23.9 59.8,24.4 59.8,25 59.7,25.5 59.7,26.1 "/>
<polygon fill-rule="evenodd" clip-rule="evenodd" fill="#512422" points="57.6,23.3 57.6,23.9 57.7,24.5 57.7,25.1 57.8,25.7 
	58,26.2 58.1,26.8 58.3,27.4 58.6,27.9 58.8,28.4 59.1,29 59.4,29.5 59.7,29.9 60,30.4 60.4,30.8 60.8,31.3 61.2,31.7 61.6,32.1 
	62,32.5 62.5,32.8 63,33.2 63.5,33.5 64,33.8 64.5,34 65.1,34.2 65.6,34.5 66.2,34.6 66.8,34.8 67.4,34.9 68,35 68.6,35.1 
	69.2,35.2 69.8,35.2 70.5,35.2 71.1,35.1 71.7,35 72.3,34.9 72.9,34.8 73.5,34.6 74,34.5 74.6,34.2 75.1,34 75.6,33.8 76.2,33.5 
	76.7,33.2 77.1,32.8 77.6,32.5 78,32.1 78.5,31.7 78.9,31.3 79.3,30.8 79.6,30.4 80,29.9 80.3,29.5 80.6,29 80.8,28.4 81.1,27.9 
	81.3,27.4 81.5,26.8 81.7,26.2 81.8,25.7 81.9,25.1 82,24.5 82,23.9 82,23.3 82,22.7 82,22 81.9,21.4 81.8,20.9 81.7,20.3 
	81.5,19.7 81.3,19.2 81.1,18.6 80.8,18.1 80.6,17.6 80.3,17.1 80,16.6 79.6,16.1 79.3,15.7 78.9,15.3 78.5,14.8 78,14.4 77.6,14.1 
	77.1,13.7 76.7,13.4 76.2,13.1 75.6,12.8 75.1,12.5 74.6,12.3 74,12.1 73.5,11.9 72.9,11.7 72.3,11.6 71.7,11.5 71.1,11.4 
	70.5,11.4 69.8,11.3 69.2,11.4 68.6,11.4 68,11.5 67.4,11.6 66.8,11.7 66.2,11.9 65.6,12.1 65.1,12.3 64.5,12.5 64,12.8 63.5,13.1 
	63,13.4 62.5,13.7 62,14.1 61.6,14.4 61.2,14.8 60.8,15.3 60.4,15.7 60,16.1 59.7,16.6 59.4,17.1 59.1,17.6 58.8,18.1 58.6,18.6 
	58.3,19.2 58.1,19.7 58,20.3 57.8,20.9 57.7,21.4 57.7,22 57.6,22.7 57.6,23.3 "/>
<polygon fill-rule="evenodd" clip-rule="evenodd" fill="#FFFFFF" points="58.7,23.1 58.7,23.7 58.8,24.2 58.8,24.8 58.9,25.3 
	59.1,25.9 59.2,26.4 59.4,26.9 59.6,27.4 59.8,27.9 60,28.4 60.3,28.8 60.6,29.3 60.9,29.7 61.2,30.2 61.6,30.6 62,30.9 62.3,31.3 
	62.8,31.7 63.2,32 63.6,32.3 64.1,32.6 64.5,32.9 65,33.1 65.5,33.3 66,33.5 66.5,33.7 67,33.8 67.6,34 68.1,34.1 68.7,34.1 
	69.2,34.2 69.8,34.2 70.4,34.2 71,34.1 71.5,34.1 72.1,34 72.6,33.8 73.1,33.7 73.6,33.5 74.1,33.3 74.6,33.1 75.1,32.9 75.6,32.6 
	76,32.3 76.5,32 76.9,31.7 77.3,31.3 77.7,30.9 78,30.6 78.4,30.2 78.7,29.7 79,29.3 79.3,28.8 79.6,28.4 79.8,27.9 80.1,27.4 
	80.3,26.9 80.4,26.4 80.6,25.9 80.7,25.3 80.8,24.8 80.9,24.2 80.9,23.7 80.9,23.1 80.9,22.5 80.9,21.9 80.8,21.4 80.7,20.8 
	80.6,20.3 80.4,19.8 80.3,19.3 80.1,18.8 79.8,18.3 79.6,17.8 79.3,17.3 79,16.9 78.7,16.4 78.4,16 78,15.6 77.7,15.2 77.3,14.9 
	76.9,14.5 76.5,14.2 76,13.9 75.6,13.6 75.1,13.3 74.6,13.1 74.1,12.8 73.6,12.6 73.1,12.5 72.6,12.3 72.1,12.2 71.5,12.1 71,12 
	70.4,12 69.8,12 69.2,12 68.7,12 68.1,12.1 67.6,12.2 67,12.3 66.5,12.5 66,12.6 65.5,12.8 65,13.1 64.5,13.3 64.1,13.6 63.6,13.9 
	63.2,14.2 62.8,14.5 62.3,14.9 62,15.2 61.6,15.6 61.2,16 60.9,16.4 60.6,16.9 60.3,17.3 60,17.8 59.8,18.3 59.6,18.8 59.4,19.3 
	59.2,19.8 59.1,20.3 58.9,20.8 58.8,21.4 58.8,21.9 58.7,22.5 58.7,23.1 "/>
<polygon fill-rule="evenodd" clip-rule="evenodd" fill="#D0D5DF" points="74.7,13.1 74.8,13.3 74.9,13.5 75.1,13.7 75.2,13.8 
	75.3,14 75.4,14.2 75.5,14.4 75.6,14.6 75.7,14.8 75.8,15 75.9,15.2 76,15.4 76.1,15.6 76.2,15.8 76.2,16 76.3,16.2 76.4,16.4 
	76.4,16.6 76.5,16.8 76.6,17 76.6,17.2 76.7,17.5 76.7,17.7 76.7,17.9 76.8,18.1 76.8,18.4 76.8,18.6 76.9,18.8 76.9,19 76.9,19.3 
	76.9,19.5 76.9,19.7 76.9,20.3 76.8,20.9 76.8,21.4 76.7,22 76.5,22.5 76.4,23 76.2,23.5 76,24 75.8,24.5 75.6,25 75.3,25.5 
	75,25.9 74.7,26.4 74.4,26.8 74,27.2 73.6,27.6 73.2,27.9 72.8,28.3 72.4,28.6 72,28.9 71.5,29.2 71.1,29.5 70.6,29.7 70.1,30 
	69.6,30.2 69.1,30.3 68.6,30.5 68,30.6 67.5,30.7 66.9,30.8 66.3,30.8 65.8,30.8 65.5,30.8 65.1,30.8 64.8,30.8 64.5,30.8 
	64.2,30.7 63.8,30.7 63.5,30.6 63.2,30.5 62.9,30.4 62.6,30.4 62.3,30.3 62,30.1 61.7,30 61.5,29.9 61.2,29.8 60.9,29.7 61.1,29.9 
	61.3,30.2 61.5,30.4 61.7,30.6 61.9,30.9 62.2,31.1 62.4,31.3 62.6,31.5 62.9,31.7 63.1,31.9 63.4,32.1 63.6,32.3 63.9,32.5 
	64.2,32.6 64.5,32.8 64.7,33 65,33.1 65.3,33.2 65.6,33.4 65.9,33.5 66.2,33.6 66.5,33.7 66.8,33.8 67.2,33.9 67.5,33.9 67.8,34 
	68.1,34.1 68.5,34.1 68.8,34.2 69.1,34.2 69.5,34.2 69.8,34.2 70.4,34.2 71,34.1 71.5,34.1 72.1,34 72.6,33.8 73.1,33.7 73.6,33.5 
	74.1,33.3 74.6,33.1 75.1,32.9 75.6,32.6 76,32.3 76.5,32 76.9,31.7 77.3,31.3 77.7,30.9 78,30.6 78.4,30.2 78.7,29.7 79,29.3 
	79.3,28.8 79.6,28.4 79.8,27.9 80.1,27.4 80.3,26.9 80.4,26.4 80.6,25.9 80.7,25.3 80.8,24.8 80.9,24.2 80.9,23.7 80.9,23.1 
	80.9,22.7 80.9,22.3 80.9,21.9 80.8,21.5 80.7,21.1 80.7,20.7 80.6,20.3 80.5,19.9 80.4,19.6 80.2,19.2 80.1,18.8 79.9,18.5 
	79.8,18.1 79.6,17.8 79.4,17.5 79.2,17.2 79,16.8 78.8,16.5 78.5,16.2 78.3,15.9 78,15.6 77.8,15.4 77.5,15.1 77.2,14.8 76.9,14.6 
	76.6,14.4 76.3,14.1 76,13.9 75.7,13.7 75.4,13.5 75,13.3 74.7,13.1 "/>
<polygon fill-rule="evenodd" clip-rule="evenodd" fill="#512422" points="69.9,22.9 69.9,23 69.9,23.1 69.8,23.3 69.8,23.4 
	69.8,23.5 69.8,23.6 69.8,23.7 69.7,23.8 69.7,23.9 69.6,24 69.6,24.1 69.6,24.2 69.5,24.3 69.4,24.4 69.4,24.5 69.3,24.6 
	69.3,24.6 69.2,24.7 69.1,24.8 69,24.8 69,24.9 68.9,25 68.8,25 68.7,25.1 68.6,25.1 68.5,25.1 68.5,25.2 68.4,25.2 68.3,25.2 
	68.2,25.2 68.1,25.2 68,25.3 67.9,25.3 67.8,25.2 67.7,25.2 67.6,25.2 67.5,25.2 67.4,25.2 67.3,25.1 67.2,25.1 67.2,25 67.1,25 
	67,24.9 66.9,24.9 66.8,24.8 66.8,24.7 66.7,24.7 66.6,24.6 66.6,24.5 66.5,24.4 66.5,24.3 66.4,24.2 66.3,24.1 66.3,24 66.3,23.9 
	66.2,23.8 66.2,23.7 66.2,23.6 66.1,23.5 66.1,23.4 66.1,23.3 66.1,23.2 66.1,23 66.1,22.9 66.1,22.8 66.1,22.7 66.1,22.6 
	66.1,22.5 66.1,22.3 66.1,22.2 66.2,22.1 66.2,22 66.3,21.9 66.3,21.8 66.3,21.7 66.4,21.6 66.4,21.5 66.5,21.4 66.5,21.4 
	66.6,21.3 66.7,21.2 66.7,21.1 66.8,21 66.9,21 67,20.9 67,20.9 67.1,20.8 67.2,20.8 67.3,20.7 67.4,20.7 67.5,20.7 67.6,20.6 
	67.7,20.6 67.8,20.6 67.9,20.6 68,20.6 68,20.6 68.1,20.6 68.2,20.6 68.3,20.6 68.4,20.6 68.5,20.7 68.6,20.7 68.7,20.8 68.8,20.8 
	68.9,20.9 68.9,20.9 69,21 69.1,21 69.2,21.1 69.2,21.2 69.3,21.3 69.4,21.3 69.4,21.4 69.5,21.5 69.5,21.6 69.6,21.7 69.6,21.8 
	69.7,21.9 69.7,22 69.7,22.1 69.8,22.2 69.8,22.3 69.8,22.4 69.8,22.6 69.9,22.7 69.9,22.8 69.9,22.9 "/>
<polygon fill-rule="evenodd" clip-rule="evenodd" fill="#E09095" points="22.6,36.6 23.1,36.6 23.7,36.6 24.3,36.5 24.8,36.4 
	25.4,36.3 25.9,36.2 26.4,36 26.9,35.8 27.4,35.6 27.9,35.4 28.4,35.1 28.8,34.8 29.3,34.5 29.7,34.2 30.1,33.9 30.5,33.5 
	30.9,33.1 31.2,32.8 31.6,32.3 31.9,31.9 32.2,31.5 32.5,31 32.7,30.5 33,30 33.2,29.5 33.4,29 33.5,28.5 33.7,28 33.8,27.4 
	33.9,26.9 33.9,26.3 34,25.7 34,25.2 33.9,24.6 33.9,24 33.8,23.5 33.7,23 33.5,22.4 33.4,21.9 33.2,21.4 33,20.9 32.8,20.4 
	32.5,19.9 32.2,19.5 31.9,19 31.6,18.6 31.3,18.2 30.9,17.8 30.5,17.4 30.1,17.1 29.7,16.7 29.3,16.4 28.8,16.1 28.4,15.8 
	27.9,15.6 27.4,15.3 26.9,15.1 26.4,14.9 25.9,14.8 25.4,14.6 24.8,14.5 24.3,14.4 23.7,14.4 23.1,14.4 22.9,14.4 22.7,14.4 
	22.5,14.4 22.3,14.4 21.6,15.5 20.9,16.5 20.3,17.3 19.8,18 19.3,18.7 18.9,19.3 18.7,19.7 18.4,20 18.2,20.3 18,20.6 17.8,21 
	17.6,21.4 17.4,21.7 17.2,22.2 16.9,22.6 16.7,23.1 16.4,23.6 16.2,24.2 15.5,25.4 14.8,26.9 14,28.6 13.1,30.6 13.2,31 13.4,31.3 
	13.6,31.6 13.8,31.9 14,32.2 14.3,32.5 14.5,32.7 14.7,33 15,33.3 15.2,33.5 15.5,33.8 15.8,34 16.1,34.2 16.3,34.5 16.6,34.7 
	16.9,34.9 17.2,35 17.6,35.2 17.9,35.4 18.2,35.6 18.5,35.7 18.9,35.9 19.2,36 19.6,36.1 19.9,36.2 20.3,36.3 20.7,36.4 21,36.4 
	21.4,36.5 21.8,36.5 22.2,36.6 22.6,36.6 "/>
<polygon fill-rule="evenodd" clip-rule="evenodd" fill="#512422" points="36.1,23 36.1,23.6 36.1,24.2 36,24.8 35.8,25.3 35.7,25.9 
	35.5,26.5 35.3,27 35.1,27.6 34.8,28.1 34.5,28.6 34.2,29.1 33.9,29.6 33.5,30 33.2,30.5 32.8,30.9 32.4,31.3 31.9,31.7 31.5,32 
	31,32.4 30.5,32.7 30,33 29.5,33.3 29,33.5 28.4,33.7 27.9,33.9 27.3,34.1 26.7,34.3 26.1,34.4 25.5,34.5 24.9,34.5 24.3,34.6 
	23.6,34.6 23,34.5 22.4,34.5 21.8,34.4 21.2,34.3 20.6,34.1 20,33.9 19.4,33.7 18.9,33.5 18.4,33.3 17.8,33 17.3,32.7 16.8,32.4 
	16.4,32 15.9,31.6 15.5,31.3 15.1,30.9 14.7,30.4 14.3,30 14,29.5 13.6,29.1 13.3,28.6 13,28.1 12.8,27.5 12.5,27 12.3,26.5 
	12.2,25.9 12,25.3 11.9,24.8 11.8,24.2 11.7,23.6 11.7,23 11.7,22.3 11.7,21.7 11.8,21.1 11.9,20.5 12,20 12.2,19.4 12.3,18.8 
	12.5,18.3 12.8,17.7 13,17.2 13.3,16.7 13.6,16.2 14,15.7 14.3,15.3 14.7,14.8 15.1,14.4 15.5,14 15.9,13.6 16.4,13.3 16.8,12.9 
	17.3,12.6 17.8,12.3 18.4,12 18.9,11.8 19.4,11.6 20,11.4 20.6,11.2 21.2,11 21.8,10.9 22.4,10.8 23,10.8 23.6,10.7 24.2,10.7 
	24.8,10.8 25.5,10.8 26.1,10.9 26.7,11 27.3,11.2 27.8,11.4 28.4,11.6 29,11.8 29.5,12 30,12.3 30.5,12.6 31,12.9 31.5,13.3 
	31.9,13.6 32.4,14 32.8,14.4 33.2,14.9 33.5,15.3 33.9,15.8 34.2,16.2 34.5,16.7 34.8,17.2 35.1,17.8 35.3,18.3 35.5,18.8 
	35.7,19.4 35.8,20 36,20.5 36.1,21.1 36.1,21.7 36.1,22.3 36.1,23 "/>
<polygon fill-rule="evenodd" clip-rule="evenodd" fill="#FFFFFF" points="35,22.7 35,23.3 35,23.9 34.9,24.4 34.8,25 34.6,25.5 
	34.5,26 34.3,26.5 34.1,27 33.8,27.5 33.6,28 33.3,28.5 33,28.9 32.7,29.3 32.3,29.7 32,30.1 31.6,30.5 31.2,30.9 30.8,31.2 
	30.4,31.5 29.9,31.8 29.5,32.1 29,32.4 28.5,32.6 28,32.8 27.5,33 27,33.2 26.4,33.3 25.9,33.4 25.4,33.5 24.8,33.5 24.2,33.6 
	23.7,33.6 23.1,33.5 22.5,33.5 22,33.4 21.4,33.3 20.9,33.2 20.4,33 19.9,32.8 19.4,32.6 18.9,32.4 18.4,32.1 17.9,31.8 17.5,31.5 
	17.1,31.2 16.7,30.9 16.3,30.5 15.9,30.1 15.5,29.7 15.2,29.3 14.9,28.9 14.6,28.4 14.3,28 14,27.5 13.8,27 13.6,26.5 13.4,26 
	13.2,25.5 13.1,25 13,24.4 12.9,23.9 12.9,23.3 12.8,22.8 12.8,22.2 12.8,21.6 12.9,21.1 13,20.5 13.1,20 13.2,19.4 13.4,18.9 
	13.6,18.4 13.8,17.9 14,17.4 14.3,16.9 14.6,16.5 14.9,16 15.2,15.6 15.5,15.2 15.9,14.8 16.3,14.4 16.7,14.1 17.1,13.7 17.5,13.4 
	17.9,13.1 18.4,12.8 18.9,12.6 19.4,12.3 19.9,12.1 20.4,11.9 20.9,11.8 21.4,11.6 22,11.5 22.5,11.4 23.1,11.4 23.6,11.4 
	24.2,11.4 24.8,11.4 25.3,11.4 25.9,11.5 26.4,11.6 27,11.8 27.5,11.9 28,12.1 28.5,12.3 29,12.6 29.5,12.8 29.9,13.1 30.4,13.4 
	30.8,13.7 31.2,14.1 31.6,14.4 32,14.8 32.3,15.2 32.7,15.6 33,16 33.3,16.5 33.6,16.9 33.8,17.4 34.1,17.9 34.3,18.4 34.5,18.9 
	34.6,19.4 34.8,20 34.9,20.5 35,21 35,21.6 35,22.2 35,22.7 "/>
<polygon fill-rule="evenodd" clip-rule="evenodd" fill="#D0D5DF" points="19.3,12.4 19.2,12.6 19,12.8 18.9,12.9 18.8,13.1 
	18.7,13.3 18.6,13.5 18.5,13.7 18.3,13.8 18.2,14 18.1,14.2 18,14.4 18,14.6 17.9,14.8 17.8,15 17.7,15.2 17.6,15.4 17.5,15.6 
	17.5,15.8 17.4,16 17.3,16.3 17.3,16.5 17.2,16.7 17.2,16.9 17.1,17.1 17.1,17.3 17.1,17.6 17,17.8 17,18 17,18.2 17,18.5 17,18.7 
	16.9,18.9 16.9,19.5 17,20.1 17,20.6 17.1,21.2 17.2,21.7 17.4,22.2 17.5,22.8 17.7,23.3 17.9,23.8 18.2,24.3 18.4,24.7 18.7,25.2 
	19,25.6 19.3,26.1 19.6,26.5 20,26.9 20.4,27.2 20.8,27.6 21.2,27.9 21.6,28.3 22.1,28.6 22.5,28.8 23,29.1 23.5,29.3 24,29.5 
	24.5,29.7 25,29.9 25.6,30 26.1,30.1 26.6,30.2 27.2,30.3 27.8,30.3 28.1,30.3 28.4,30.3 28.8,30.3 29.1,30.3 29.4,30.2 29.7,30.2 
	30,30.1 30.3,30.1 30.6,30 30.9,29.9 31.2,29.8 31.5,29.7 31.8,29.6 32.1,29.5 32.4,29.4 32.7,29.3 32.5,29.5 32.3,29.8 32.1,30 
	31.8,30.2 31.6,30.4 31.4,30.7 31.1,30.9 30.9,31.1 30.7,31.3 30.4,31.5 30.1,31.7 29.9,31.8 29.6,32 29.3,32.2 29,32.3 28.8,32.5 
	28.5,32.6 28.2,32.7 27.9,32.9 27.6,33 27.3,33.1 27,33.2 26.6,33.2 26.3,33.3 26,33.4 25.7,33.4 25.3,33.5 25,33.5 24.7,33.6 
	24.3,33.6 24,33.6 23.7,33.6 23.1,33.5 22.5,33.5 22,33.4 21.4,33.3 20.9,33.2 20.4,33 19.9,32.8 19.4,32.6 18.9,32.4 18.4,32.1 
	17.9,31.8 17.5,31.5 17.1,31.2 16.7,30.9 16.3,30.5 15.9,30.1 15.5,29.7 15.2,29.3 14.9,28.9 14.6,28.4 14.3,28 14,27.5 13.8,27 
	13.6,26.5 13.4,26 13.2,25.5 13.1,25 13,24.4 12.9,23.9 12.9,23.3 12.8,22.8 12.8,22.2 12.8,21.8 12.9,21.4 12.9,21 13,20.6 
	13,20.2 13.1,19.8 13.2,19.4 13.4,19.1 13.5,18.7 13.6,18.3 13.8,18 13.9,17.6 14.1,17.3 14.3,16.9 14.5,16.6 14.7,16.3 14.9,16 
	15.2,15.7 15.4,15.4 15.6,15.1 15.9,14.8 16.2,14.6 16.4,14.3 16.7,14 17,13.8 17.3,13.6 17.6,13.4 18,13.1 18.3,12.9 18.6,12.8 
	19,12.6 19.3,12.4 "/>
<polygon fill-rule="evenodd" clip-rule="evenodd" fill="#512422" points="23.9,22.3 23.9,22.4 23.9,22.5 23.9,22.6 23.9,22.8 
	23.9,22.9 23.9,23 24,23.1 24,23.2 24,23.3 24.1,23.4 24.1,23.5 24.2,23.6 24.2,23.7 24.3,23.8 24.3,23.9 24.4,24 24.5,24 
	24.5,24.1 24.6,24.2 24.7,24.2 24.7,24.3 24.8,24.4 24.9,24.4 25,24.5 25.1,24.5 25.2,24.6 25.2,24.6 25.3,24.6 25.4,24.6 
	25.5,24.7 25.6,24.7 25.7,24.7 25.8,24.7 25.9,24.7 26,24.7 26.1,24.6 26.2,24.6 26.3,24.6 26.4,24.6 26.5,24.5 26.5,24.5 
	26.6,24.4 26.7,24.4 26.8,24.3 26.9,24.3 26.9,24.2 27,24.1 27.1,24 27.1,24 27.2,23.9 27.3,23.8 27.3,23.7 27.4,23.6 27.4,23.5 
	27.5,23.4 27.5,23.3 27.5,23.2 27.6,23.1 27.6,23 27.6,22.9 27.7,22.8 27.7,22.6 27.7,22.5 27.7,22.4 27.7,22.3 27.7,22.2 27.7,22 
	27.7,21.9 27.6,21.8 27.6,21.7 27.6,21.6 27.6,21.5 27.5,21.4 27.5,21.3 27.4,21.2 27.4,21.1 27.3,21 27.3,20.9 27.2,20.8 
	27.2,20.7 27.1,20.7 27.1,20.6 27,20.5 26.9,20.4 26.8,20.4 26.8,20.3 26.7,20.3 26.6,20.2 26.5,20.2 26.4,20.1 26.3,20.1 
	26.2,20.1 26.1,20 26.1,20 26,20 25.9,20 25.8,20 25.7,20 25.6,20 25.5,20 25.4,20.1 25.3,20.1 25.2,20.1 25.1,20.2 25,20.2 
	24.9,20.3 24.9,20.3 24.8,20.4 24.7,20.4 24.6,20.5 24.6,20.6 24.5,20.7 24.4,20.7 24.4,20.8 24.3,20.9 24.3,21 24.2,21.1 
	24.2,21.2 24.1,21.3 24.1,21.4 24,21.5 24,21.6 24,21.7 23.9,21.8 23.9,21.9 23.9,22 23.9,22.2 23.9,22.3 "/>
<polygon fill-rule="evenodd" clip-rule="evenodd" fill="#512422" points="43.6,29.5 43.5,29.5 43.3,29.8 42.9,30.1 42.4,30.6 
	41.8,31.2 41.2,31.8 40.9,32.1 40.6,32.5 40.3,32.9 39.9,33.2 39.6,33.6 39.3,34 39,34.4 38.8,34.7 38.5,35.1 38.3,35.5 38.1,35.8 
	37.9,36.2 37.8,36.5 37.7,36.8 37.6,37.1 37.6,37.4 37.6,37.6 37.7,37.8 37.9,38 38,38.2 38.3,38.3 38.5,38.4 38.7,38.3 39,38.3 
	39.2,38.2 39.4,38 39.7,37.8 39.9,37.5 40.2,37.2 40.4,36.9 40.6,36.5 40.9,36.1 41.1,35.7 41.3,35.3 41.5,34.9 41.7,34.4 41.9,34 
	42.1,33.5 42.3,33.1 42.5,32.6 42.8,31.8 43.1,31 43.3,30.4 43.5,29.9 43.6,29.6 43.6,29.5 "/>
<polygon fill-rule="evenodd" clip-rule="evenodd" fill="#512422" points="49.8,29.6 49.9,29.7 50.2,30 50.5,30.4 50.9,30.9 
	51.5,31.5 52,32.2 52.3,32.6 52.6,32.9 52.9,33.3 53.2,33.7 53.4,34.1 53.7,34.5 54,34.9 54.2,35.3 54.4,35.7 54.6,36.1 54.8,36.5 
	54.9,36.8 55,37.2 55.1,37.5 55.1,37.8 55.1,38.1 55.1,38.3 55,38.5 54.8,38.7 54.6,38.8 54.4,38.9 54.1,39 53.9,38.9 53.7,38.8 
	53.5,38.7 53.2,38.5 53,38.3 52.8,38 52.6,37.7 52.4,37.3 52.2,36.9 52,36.5 51.8,36.1 51.6,35.7 51.5,35.2 51.3,34.8 51.1,34.3 
	51,33.8 50.8,33.4 50.7,32.9 50.4,32.1 50.2,31.3 50.1,30.6 49.9,30.1 49.9,29.8 49.8,29.6 "/>
<polygon fill-rule="evenodd" clip-rule="evenodd" fill="#512422" points="30.9,7.6 30.7,7.5 30.4,7.4 30.2,7.3 29.9,7.2 29.6,7.1 
	29.4,7.1 29.1,7 28.8,7 28.6,6.9 28.3,6.9 28,6.9 27.8,6.9 27.5,6.9 27.3,6.9 27,7 26.7,7 26.5,7.1 26.2,7.1 26,7.2 25.8,7.3 
	25.6,7.4 25.4,7.5 25.2,7.7 25,7.8 24.8,8 24.6,8.2 24.4,8.4 24.3,8.6 24.2,8.8 24.1,9.1 24,9.3 23.9,9.6 24,9.4 24.2,9.3 24.4,9.1 
	24.6,9 24.8,8.8 25,8.7 25.2,8.5 25.4,8.4 25.6,8.3 25.9,8.1 26.1,8 26.3,7.9 26.5,7.8 26.8,7.7 27,7.6 27.3,7.5 27.5,7.4 27.7,7.3 
	28,7.3 28.2,7.3 28.4,7.2 28.7,7.2 28.9,7.2 29.1,7.2 29.4,7.3 29.6,7.3 29.8,7.4 30,7.5 30.3,7.6 30.5,7.7 30.7,7.8 30.9,8 
	30.9,7.6 "/>
<polygon fill-rule="evenodd" clip-rule="evenodd" fill="#512422" points="64.3,7.6 64.4,7.3 64.6,7.1 64.8,6.8 65,6.6 65.2,6.4 
	65.5,6.3 65.7,6.1 65.9,6 66.2,5.9 66.4,5.8 66.7,5.7 66.9,5.7 67.2,5.7 67.4,5.6 67.7,5.7 67.9,5.7 68.2,5.7 68.4,5.8 68.6,5.9 
	68.9,6 69.1,6.1 69.3,6.3 69.5,6.4 69.7,6.6 69.9,6.8 70,7 70.2,7.2 70.3,7.5 70.4,7.7 70.5,8 70.6,8.3 70.6,8.6 70.5,8.4 70.4,8.3 
	70.3,8.1 70.1,8 69.9,7.8 69.8,7.7 69.6,7.6 69.4,7.5 69.2,7.4 68.9,7.3 68.7,7.2 68.5,7.1 68.3,7 68,7 67.8,6.9 67.6,6.9 67.3,6.8 
	67.1,6.8 66.8,6.8 66.6,6.8 66.4,6.8 66.1,6.9 65.9,6.9 65.7,7 65.5,7 65.3,7.1 65.1,7.2 64.9,7.4 64.7,7.5 64.6,7.6 64.4,7.8 
	64.3,8 64.3,7.6 "/>
<polygon fill-rule="evenodd" clip-rule="evenodd" fill="#E2959B" points="86,50 86.3,49 86.5,48.1 86.5,47.2 86.4,46.4 86.1,45.6 
	85.8,44.8 85.4,44.1 84.9,43.4 84.3,42.8 83.6,42.2 82.9,41.7 82.1,41.3 81.2,40.9 80.3,40.5 79.4,40.2 78.4,40 77.5,39.9 
	76.5,39.8 75.5,39.7 74.5,39.8 73.5,39.9 72.5,40 71.6,40.3 70.6,40.6 69.8,41 68.9,41.4 68.2,42 67.5,42.6 66.8,43.3 66.3,44.1 
	65.8,44.9 65.4,45.9 65.2,46.4 65.1,47 65,47.5 64.9,48 64.8,48.5 64.8,49 64.8,49.5 64.9,50 65,50.4 65,50.9 65.2,51.3 65.3,51.8 
	65.5,52.2 65.7,52.6 65.9,52.9 66.2,53.3 66.5,53.7 66.8,54 67.1,54.3 67.4,54.6 67.8,54.9 68.2,55.1 68.6,55.3 69,55.6 69.4,55.8 
	69.9,55.9 70.4,56.1 70.9,56.2 71.4,56.3 71.9,56.4 72.5,56.4 73.1,56.5 73.5,56.5 74,56.5 74.5,56.5 74.9,56.5 75.4,56.4 
	75.9,56.4 76.4,56.3 76.9,56.3 77.4,56.2 77.9,56.1 78.4,56 78.8,55.9 79.3,55.8 79.8,55.6 80.2,55.4 80.7,55.3 81.1,55.1 
	81.6,54.9 82,54.7 82.4,54.4 82.8,54.2 83.2,53.9 83.6,53.6 83.9,53.3 84.3,52.9 84.6,52.6 84.9,52.2 85.2,51.8 85.4,51.4 85.6,51 
	85.8,50.5 86,50 "/>
<polygon fill-rule="evenodd" clip-rule="evenodd" fill="#DD878B" points="86,50 86.2,49.5 86.3,48.9 86.4,48.4 86.5,47.8 86.5,47.3 
	86.4,46.8 86.4,46.4 86.2,45.9 86.1,45.4 85.9,45 85.7,44.6 85.4,44.2 85.2,43.8 84.9,43.4 84.5,43.1 84.2,42.7 83.8,42.4 
	83.4,42.1 82.9,41.8 82.5,41.5 82,41.3 81.5,41 81.1,40.8 80.5,40.6 80,40.4 79.5,40.3 78.9,40.1 78.4,40 77.8,39.9 77.3,39.9 
	76.7,39.8 76.1,39.8 76.2,40.2 76.3,40.7 76.4,41.2 76.5,41.7 76.6,42.2 76.7,42.7 76.8,43.2 76.9,43.7 76.9,44.2 77,44.7 77,45.2 
	77.1,45.8 77.1,46.3 77.1,46.8 77.1,47.4 77.1,47.9 77.1,48.5 77.1,49 77.1,49.5 77,50.1 76.9,50.6 76.9,51.2 76.8,51.7 76.7,52.2 
	76.6,52.8 76.4,53.3 76.3,53.8 76.1,54.4 75.9,54.9 75.7,55.4 75.5,55.9 75.2,56.4 75.6,56.4 76,56.4 76.5,56.3 76.9,56.3 
	77.3,56.2 77.7,56.1 78.1,56 78.6,55.9 79,55.8 79.4,55.7 79.8,55.6 80.2,55.5 80.6,55.3 81,55.2 81.3,55 81.7,54.8 82.1,54.6 
	82.4,54.4 82.8,54.2 83.1,54 83.4,53.7 83.7,53.4 84,53.2 84.3,52.9 84.6,52.6 84.8,52.3 85.1,51.9 85.3,51.6 85.5,51.2 85.7,50.8 
	85.9,50.4 86,50 "/>
<polygon fill-rule="evenodd" clip-rule="evenodd" fill="#E2959B" points="32.8,49.2 33.1,48.2 33.2,47.3 33.2,46.4 33.1,45.6 
	32.9,44.8 32.6,44 32.1,43.3 31.6,42.6 31,42 30.4,41.4 29.6,40.9 28.8,40.5 28,40.1 27.1,39.7 26.2,39.5 25.2,39.2 24.2,39.1 
	23.2,39 22.2,38.9 21.2,39 20.2,39.1 19.3,39.2 18.3,39.5 17.4,39.8 16.5,40.2 15.7,40.6 14.9,41.2 14.2,41.8 13.6,42.5 13,43.3 
	12.5,44.1 12.2,45.1 12,45.6 11.8,46.2 11.7,46.7 11.7,47.2 11.6,47.7 11.6,48.2 11.6,48.7 11.6,49.2 11.7,49.7 11.8,50.1 
	11.9,50.5 12.1,51 12.3,51.4 12.5,51.8 12.7,52.1 12.9,52.5 13.2,52.9 13.5,53.2 13.8,53.5 14.2,53.8 14.5,54.1 14.9,54.3 
	15.3,54.6 15.8,54.8 16.2,55 16.7,55.1 17.2,55.3 17.7,55.4 18.2,55.5 18.7,55.6 19.3,55.6 19.8,55.7 20.3,55.7 20.8,55.7 
	21.2,55.7 21.7,55.7 22.2,55.6 22.7,55.6 23.2,55.5 23.7,55.5 24.1,55.4 24.6,55.3 25.1,55.2 25.6,55.1 26.1,55 26.5,54.8 27,54.7 
	27.5,54.5 27.9,54.3 28.3,54.1 28.8,53.9 29.2,53.6 29.6,53.4 30,53.1 30.3,52.8 30.7,52.5 31,52.1 31.3,51.8 31.6,51.4 31.9,51 
	32.2,50.6 32.4,50.2 32.6,49.7 32.8,49.2 "/>
<polygon fill-rule="evenodd" clip-rule="evenodd" fill="#512422" points="13.2,27.9 13.2,27.9 13,28.1 12.7,28.3 12.4,28.6 12,28.9 
	11.5,29.4 11,29.8 10.5,30.3 9.9,30.8 9.4,31.4 9.1,31.7 8.9,31.9 8.6,32.2 8.4,32.5 8.1,32.7 7.9,33 7.7,33.3 7.5,33.5 7.3,33.8 
	7.1,34 7,34.2 6.9,34.4 6.7,34.6 6.6,34.8 6.5,35.1 6.4,35.3 6.3,35.5 6.2,35.7 6.1,36 6.1,36.2 6,36.5 5.9,36.7 5.8,36.9 5.7,37.2 
	5.7,37.4 5.6,37.6 5.6,37.8 5.5,38.1 5.5,38.3 5.4,38.5 5.4,38.7 5.4,38.9 5.4,39.1 5.3,39.3 5.3,39.4 5.3,39.6 5.4,39.7 5.4,39.9 
	5.4,40 5.4,40.1 5.5,40.2 5.5,40.3 5.6,40.3 5.7,40.4 5.7,40.4 5.9,40.4 6,40.4 6.1,40.3 6.3,40.2 6.4,40.1 6.6,39.9 6.8,39.7 
	7,39.5 7.2,39.3 7.5,39 7.7,38.7 8,38.4 8.2,38 8.5,37.6 8.8,37.2 9,36.8 9.3,36.4 9.6,35.9 9.9,35.4 10.2,34.9 10.5,34.4 
	10.8,33.8 11.1,33.2 11.3,32.6 11.6,32 11.9,31.4 12.2,30.7 12.5,30 12.7,29.3 13,28.6 13.2,27.9 "/>
<polygon fill-rule="evenodd" clip-rule="evenodd" fill="#E0959A" points="65.9,72.6 66.8,72.8 66.7,72.7 66.7,72.6 66.6,72.5 
	66.5,72.5 66.4,72.4 66.4,72.4 66.3,72.4 66.2,72.4 66.2,72.4 66.1,72.4 66.1,72.4 66,72.4 66,72.4 65.9,72.5 65.9,72.5 65.9,72.6 
	"/>
<polygon fill-rule="evenodd" clip-rule="evenodd" fill="#E0959A" points="73.6,85.4 73.5,85 73.4,84.4 73.2,83.8 72.9,83.1 
	72.8,82.7 72.6,82.3 72.5,81.8 72.3,81.4 72.1,81 72,80.5 71.8,80 71.6,79.6 71.4,79.1 71.1,78.6 70.9,78.1 70.7,77.7 70.4,77.2 
	70.2,76.7 69.9,76.3 69.7,75.8 69.4,75.4 69.2,75 68.9,74.6 68.6,74.2 68.3,73.8 68,73.5 67.7,73.2 67.4,72.9 66.8,72.8 66.9,72.9 
	67,73 67.2,73.2 67.3,73.3 67.5,73.6 67.7,74 67.9,74.3 68.1,74.6 68.3,74.9 68.4,75.2 68.8,75.7 69.1,76.2 69.4,76.7 69.7,77.3 
	69.9,77.5 70,77.8 70.1,78.1 70.3,78.4 70.4,78.6 70.5,78.9 70.6,79.2 70.7,79.5 70.8,79.7 70.8,79.9 70.9,80.2 71,80.4 71,80.7 
	71.1,81 71.1,81.2 71.1,81.5 71.2,81.7 71.2,82 71.2,82.3 71.2,82.5 71.2,82.8 71.2,83.1 71.2,83.3 71.2,83.6 71.2,83.9 71.2,84.1 
	71.2,84.4 71.1,84.7 71.1,84.9 71.1,85.2 71.1,85.4 71,85.7 70.9,86.2 70.8,86.7 70.7,87.2 70.6,87.7 70.4,88.2 70.3,88.7 
	70.1,89.2 69.9,89.8 69.7,90.3 69.5,90.9 69.4,91.1 69.2,91.4 69.1,91.7 69,92 68.8,92.2 68.7,92.5 68.5,92.8 68.4,93 68.2,93.3 
	68,93.5 67.9,93.8 67.7,94 67.5,94.2 67.3,94.4 67.2,94.6 67,94.8 66.8,95 66.6,95.1 66.3,95.3 66.1,95.4 65.9,95.5 65.7,95.6 
	65.5,95.7 65.3,95.8 65.1,95.8 64.9,95.9 64.7,95.9 64.5,96 64.2,96 64,96 63.8,96.1 63.6,96.1 63.2,96.1 62.9,96.1 62.7,96.4 
	62.6,96.6 62.5,96.7 62.5,96.8 62.4,96.9 62.4,97.1 62.3,97.2 62.3,97.3 62.2,97.4 62.2,97.6 62.2,97.7 62.2,97.9 62.2,98 
	62.2,98.1 62.2,98.4 62.2,98.6 62.2,98.8 62.3,99 62.3,99.2 62.4,99.4 62.5,99.6 62.6,99.8 62.7,99.9 62.8,100.1 62.9,100.2 
	63,100.4 63.2,100.5 63.3,100.7 63.5,100.8 63.6,100.9 63.8,101 64,101.1 64.2,101.2 64.3,101.3 64.5,101.4 64.7,101.5 64.9,101.5 
	65.1,101.6 65.3,101.6 65.5,101.7 65.7,101.7 65.9,101.8 66.1,101.8 66.3,101.8 66.5,101.8 66.7,101.8 67.6,101.8 68.4,101.7 
	69.1,101.6 69.8,101.4 70.4,101.1 70.9,100.8 71.5,100.5 71.9,100.1 72.4,99.7 72.7,99.3 73.1,98.8 73.4,98.3 73.6,97.7 73.9,97.2 
	74.1,96.6 74.2,96 74.3,95.3 74.4,94.7 74.5,94 74.6,93.4 74.6,92.7 74.6,92 74.5,91.3 74.5,90.6 74.4,90 74.4,89.3 74.3,88.6 
	74.1,87.9 74,87.3 73.9,86.6 73.8,86 73.6,85.4 "/>
<polygon fill-rule="evenodd" clip-rule="evenodd" fill="#512422" points="64.7,72.8 64.7,72.8 64.8,72.8 64.9,72.8 65,72.7 
	65.1,72.7 65.2,72.7 65.3,72.7 65.5,72.7 65.7,72.7 65.8,72.7 66,72.7 66.2,72.7 66.4,72.8 66.6,72.8 66.8,72.9 67.1,73 67.3,73.1 
	67.5,73.3 67.8,73.4 68,73.6 68.3,73.9 68.5,74.1 68.8,74.4 69,74.7 69.3,75 69.6,75.4 69.8,75.8 70.1,76.3 70.4,76.8 70.6,77.3 
	70.9,77.9 71.1,78.5 71.4,79.2 71.7,79.8 71.9,80.6 72.2,81.3 72.5,82.1 72.7,82.8 73,83.6 73.2,84.4 73.4,85.3 73.6,86.1 
	73.8,86.9 74,87.8 74.1,88.6 74.2,89.5 74.4,90.3 74.4,91.1 74.5,91.9 74.5,92.7 74.5,93.5 74.4,94.3 74.4,95 74.2,95.7 74.1,96.4 
	73.9,97.1 73.7,97.7 73.4,98.3 73.1,98.8 72.7,99.3 72.2,99.8 71.8,100.2 71.3,100.5 70.8,100.8 70.3,101.1 69.8,101.3 69.3,101.5 
	68.8,101.7 68.3,101.8 67.9,101.9 67.4,101.9 67,102 66.6,101.9 66.1,101.9 65.7,101.8 65.4,101.8 65,101.6 64.6,101.5 64.3,101.3 
	64,101.2 63.7,101 63.4,100.8 63.2,100.5 63,100.3 62.8,100 62.6,99.8 62.5,99.5 62.4,99.3 62.4,99 62.3,98.7 62.3,98.4 62.4,98.1 
	62.4,97.8 62.5,97.6 62.8,97 63.1,96.3 63.5,95.6 63.9,94.7 64.1,94.3 64.3,93.9 64.5,93.4 64.7,92.9 64.9,92.4 65.1,91.9 
	65.3,91.4 65.5,90.8 65.6,90.3 65.8,89.7 65.9,89.1 66.1,88.5 66.2,87.8 66.3,87.2 66.4,86.6 66.4,85.9 66.5,85.2 66.5,84.5 
	66.5,83.8 66.4,83.1 66.3,82.3 66.3,81.6 66.1,80.8 66,80 66,80.1 66,80.4 66,80.8 66,81.4 66,81.7 66,82.1 66,82.5 66,82.9 
	66,83.3 66,83.7 65.9,84.2 65.9,84.7 65.8,85.2 65.8,85.7 65.7,86.2 65.6,86.7 65.5,87.2 65.4,87.8 65.3,88.3 65.2,88.8 65,89.3 
	64.9,89.8 64.7,90.3 64.5,90.8 64.2,91.3 64,91.7 63.7,92.2 63.5,92.6 63.2,93 62.9,93.4 62.6,93.8 62.3,94.3 62.1,94.7 61.9,95.1 
	61.6,95.6 61.4,96 61.2,96.5 61.1,96.9 60.9,97.4 60.8,97.8 60.6,98.2 60.5,98.7 60.5,99.1 60.4,99.5 60.4,99.9 60.4,100.3 
	60.5,100.6 60.5,101 60.6,101.4 60.8,101.7 60.9,102 61.1,102.3 61.3,102.6 61.6,102.9 61.9,103.1 62.3,103.3 62.7,103.5 
	63.1,103.7 63.6,103.8 64.1,103.9 64.4,104 64.8,104.1 65.2,104.1 65.6,104.1 66,104.1 66.4,104.1 66.8,104 67.2,104 67.6,103.9 
	68,103.8 68.4,103.7 68.8,103.6 69.2,103.4 69.6,103.3 70,103.1 70.4,103 70.7,102.8 71.1,102.6 71.5,102.4 71.8,102.2 72.2,101.9 
	72.5,101.7 72.9,101.4 73.2,101.2 73.5,100.9 73.8,100.6 74,100.3 74.3,100 74.6,99.7 74.8,99.4 75,99.1 75.2,98.8 75.5,98.3 
	75.7,97.8 75.9,97.2 76,96.7 76.2,96.2 76.3,95.6 76.4,95.1 76.4,94.5 76.4,93.9 76.4,93.4 76.4,92.8 76.4,92.2 76.3,91.7 
	76.2,91.1 76.1,90.5 76,89.9 75.9,89.4 75.8,88.8 75.6,88.2 75.5,87.6 75.3,87.1 75.2,86.5 75,85.9 74.8,85.4 74.5,84.3 74.2,83.2 
	74,82.6 73.8,82.1 73.7,81.6 73.6,81.1 73.5,80.7 73.3,80.3 73.2,79.9 73.1,79.5 73,79.1 72.8,78.6 72.7,78.2 72.5,77.8 72.3,77.4 
	72.1,76.9 71.9,76.5 71.7,76.1 71.5,75.7 71.2,75.3 71,74.9 70.7,74.6 70.5,74.2 70.2,73.9 69.9,73.6 69.5,73.3 69.2,73.1 
	68.9,72.9 68.5,72.7 68.2,72.5 67.8,72.4 67.4,72.3 67,72.3 66.5,72.3 66.1,72.4 65.6,72.5 65.2,72.6 64.7,72.8 "/>
<polygon fill-rule="evenodd" clip-rule="evenodd" fill="#E0959A" points="38,108.6 38.1,108.9 38.2,109.1 38.2,109.4 38.2,109.6 
	38.2,109.9 38.2,110.1 38.1,110.4 38,110.7 37.9,110.9 37.7,111.2 37.5,111.5 37.4,111.7 37.2,112 37,112.3 36.7,112.5 36.5,112.8 
	36.3,113 36,113.3 35.8,113.5 35.5,113.7 35.2,113.9 35,114.1 34.7,114.3 34.4,114.5 34.2,114.7 33.9,114.9 33.6,115 33.4,115.1 
	33.1,115.2 32.9,115.3 32.7,115.4 32.5,115.5 32.2,115.6 31.9,115.6 31.6,115.7 31.3,115.7 31.1,115.7 30.8,115.7 30.6,115.7 
	30.3,115.7 30.1,115.7 29.8,115.7 29.6,115.6 29.4,115.6 29.1,115.5 28.9,115.5 28.7,115.4 28.5,115.3 28.3,115.2 28.1,115.1 
	27.9,115 27.7,114.9 27.5,114.8 27.3,114.6 27.1,114.5 26.9,114.4 26.7,114.2 26.5,114.1 26.3,113.9 26.1,113.8 25.8,113.4 
	25.4,113.1 25.3,113.3 25.3,113.5 25.2,113.7 25.3,114 25.3,114.2 25.3,114.5 25.4,114.7 25.5,114.9 25.6,115.2 25.8,115.4 
	25.9,115.7 26.1,115.9 26.3,116.2 26.5,116.4 26.7,116.7 26.9,116.9 27.2,117.1 27.4,117.3 27.7,117.5 27.9,117.7 28.2,117.9 
	28.5,118.1 28.8,118.2 29.1,118.4 29.4,118.5 29.7,118.6 30,118.7 30.3,118.8 30.7,118.8 31,118.8 31.3,118.8 31.6,118.8 32,118.8 
	32.3,118.7 32.7,118.7 33.1,118.6 33.5,118.5 33.9,118.4 34.3,118.2 34.7,118.1 35.1,117.9 35.5,117.7 35.9,117.5 36.3,117.3 
	36.7,117.1 37.1,116.9 37.4,116.6 37.8,116.4 38.1,116.1 38.4,115.8 38.7,115.5 39,115.2 39.3,114.9 39.5,114.5 39.7,114.2 
	39.9,113.8 40,113.4 40.2,113 40.3,112.6 40.3,112.2 40.3,111.8 40.3,111.3 40.3,110.9 40.2,110.4 39.8,109.2 38,108.6 "/>
<polygon fill-rule="evenodd" clip-rule="evenodd" fill="#E0959A" points="32,94.8 31.8,94.5 31.7,94.3 31.6,94.1 31.6,93.8 
	31.5,93.6 31.4,93.3 31.3,93.1 31.2,92.8 31.1,92.8 31,92.7 30.8,92.6 30.7,92.6 30.9,92.9 31,93.3 31,93.6 31,93.9 31,94.2 
	31,94.5 30.9,94.7 30.8,95 30.7,95.2 30.5,95.4 30.3,95.6 30.1,95.7 29.9,95.9 29.7,96 29.5,96.1 29.2,96.2 28.9,96.3 28.6,96.3 
	28.3,96.3 28.1,96.3 27.8,96.3 27.5,96.3 27.2,96.3 26.9,96.2 26.6,96.1 26.3,96 26,95.9 25.7,95.7 25.5,95.6 25.2,95.4 25,95.2 
	24.8,94.9 24.7,94.8 24.5,94.6 24.4,94.4 24.3,94.2 24.2,94.1 24.1,93.9 24,93.7 24,93.5 23.9,93.3 23.9,93.1 23.8,92.9 23.8,92.7 
	23.7,92.5 23.7,92.3 23.7,92.1 23.7,91.9 23.7,91.7 23.7,91.5 23.7,91.3 23.7,91.1 23.7,90.6 23.7,90.2 23.7,89.8 23.7,89.3 
	23.7,88.9 23.7,88.5 23.8,87.9 23.8,87.4 23.8,86.9 23.9,86.4 23.9,85.9 24,85.3 24.1,84.8 24.2,84.3 24.3,83.8 24.4,83.3 
	24.6,82.7 24.7,82.2 24.9,81.7 25.1,81.2 25.2,80.7 25.4,80.2 25.7,79.7 25.9,79.2 26.1,78.8 26.4,78.3 26.6,77.8 26.9,77.3 
	27.1,76.9 27.4,76.4 27.7,76 28,75.6 28.4,75.1 28.7,74.7 29,74.3 29.4,73.9 29.7,73.5 30.1,73.2 29.7,73.2 29.4,73.5 29.1,73.8 
	28.8,74.2 28.5,74.5 28.2,74.9 27.9,75.2 27.7,75.6 27.4,76 27.1,76.4 26.8,76.9 26.6,77.3 26.3,77.7 26.1,78.1 25.8,78.5 25.6,79 
	25.3,79.4 25.1,79.8 24.9,80.2 24.7,80.6 24.5,81 24.1,81.8 23.8,82.5 23.5,83.2 23.3,83.8 23.1,84.3 22.9,84.6 22.7,85.2 
	22.6,85.8 22.4,86.5 22.2,87.1 22.1,87.8 21.9,88.4 21.8,89.1 21.6,89.8 21.5,90.5 21.5,91.1 21.4,91.8 21.4,92.5 21.3,93.2 
	21.4,93.8 21.4,94.5 21.5,95.1 21.6,95.7 21.7,96.3 21.9,96.9 22.1,97.5 22.4,98 22.7,98.5 23,99 23.4,99.5 23.8,99.9 24.3,100.2 
	24.9,100.6 25.5,100.9 26.1,101.1 26.8,101.3 27.6,101.5 28.4,101.6 28.6,101.6 28.8,101.6 29,101.6 29.3,101.6 29.5,101.6 
	29.7,101.5 29.9,101.5 30.1,101.5 30.3,101.4 30.5,101.4 30.7,101.3 30.9,101.3 31.1,101.2 31.2,101.1 31.4,101 31.6,100.9 
	31.8,100.8 31.9,100.7 32.1,100.6 32.2,100.5 32.4,100.3 32.5,100.2 32.6,100 32.7,99.9 32.8,99.7 32.9,99.5 33,99.3 33.1,99.2 
	33.2,98.9 33.2,98.7 33.3,98.5 33.3,98.3 33.3,98.2 33.3,98 33.3,97.9 33.3,97.8 33.3,97.7 33.3,97.5 33.3,97.4 33.2,97.3 
	33.2,97.2 33.2,97.1 33.1,97 33.1,96.9 33,96.7 32.9,96.4 32.7,96 32.4,95.6 32.3,95.4 32.2,95.2 32.1,95 32,94.8 "/>
<polygon fill-rule="evenodd" clip-rule="evenodd" fill="#E8B8BD" points="34,13.4 34.2,13.2 34.3,13 34.5,12.8 34.6,12.5 34.8,12.3 
	34.9,12.1 35.1,11.9 35.2,11.6 35.4,11.2 35.7,10.7 35.9,10.2 36.1,9.8 36.4,9.3 36.6,8.9 36.7,8.7 36.9,8.4 37,8.2 37.2,8 
	37.3,7.8 37.5,7.6 37.6,7.4 37.8,7.2 38,7 38.2,6.8 38.4,6.6 38.6,6.4 38.9,6.2 39.1,6 39.5,5.7 39.8,5.4 40.2,5.2 40.6,4.8 
	41.1,4.5 41.5,4.2 42,3.9 42.4,3.6 42.6,3.5 42.8,3.4 43,3.3 43.2,3.2 43.4,3.1 43.6,3 43.8,2.9 43.9,2.8 44,2.8 44.2,2.8 44.3,2.7 
	44.4,2.7 44.1,2.7 43.8,2.7 43.4,2.7 43.1,2.7 42.8,2.7 42.5,2.7 42.2,2.8 41.9,2.8 41.6,2.8 41.3,2.9 41,2.9 40.7,3 40.4,3.1 
	40.1,3.1 39.8,3.2 39.5,3.3 39.2,3.4 39,3.5 38.7,3.6 38.4,3.7 38.1,3.8 37.8,3.9 37.5,4.1 37.3,4.2 37,4.3 36.7,4.5 36.4,4.6 
	36.2,4.7 35.6,5 35.1,5.3 34.6,5.6 34.2,5.9 33.7,6.2 33.2,6.5 32.8,6.8 32.3,7.1 31.8,7.4 31.4,7.8 31.1,7.9 30.9,8.1 30.7,8.3 
	30.5,8.5 30.3,8.7 30.1,8.8 29.9,9 29.7,9.2 29.5,9.4 29.3,9.6 29.1,9.8 29,10 28.8,10.2 28.6,10.4 28.5,10.7 28.3,10.9 28.6,10.9 
	28.8,10.8 29,10.9 29.2,10.9 29.4,10.9 29.6,10.9 29.8,11 30,11 30.2,11.1 30.4,11.1 30.5,11.2 30.7,11.3 30.9,11.4 31.1,11.5 
	31.2,11.6 31.4,11.7 31.7,11.9 32,12.1 32.4,12.3 32.7,12.5 33,12.8 33.3,13 33.5,13.1 33.7,13.2 33.8,13.3 34,13.4 "/>
<polygon fill-rule="evenodd" clip-rule="evenodd" fill="#E8B8BD" points="52,87.3 52.1,87.1 52.2,87 52.2,86.9 52.1,86.8 52.1,86.7 
	52,86.6 51.9,86.5 51.8,86.4 51.6,86.3 51.5,86.2 51.3,86.1 51.1,86 50.9,85.9 50.7,85.9 50.5,85.8 50.2,85.7 49.8,85.6 49.3,85.5 
	48.9,85.4 48.4,85.3 48.1,85.2 47.8,85.2 47.6,85.2 47.5,85.2 47.2,85.2 47,85.2 46.8,85.2 46.5,85.2 46.3,85.3 46.1,85.3 
	45.8,85.3 45.6,85.4 45.4,85.4 45.1,85.5 44.9,85.5 44.7,85.6 44.4,85.7 44.2,85.7 44,85.8 43.8,85.9 43.5,86 43.3,86 43.1,86.1 
	42.9,86.2 42.7,86.3 42.4,86.4 42.2,86.5 42,86.7 41.8,86.8 41.6,86.9 41.4,87 41.2,87.2 41,87.3 40.9,87.4 40.7,87.6 40.5,87.7 
	40.3,87.8 40.2,88 40,88.1 39.9,88.3 39.7,88.4 39.6,88.6 39.4,88.7 39.3,88.9 39.2,89.1 39,89.2 38.9,89.4 38.8,89.5 38.7,89.7 
	38.6,89.8 38.5,90 38.5,90.1 38.4,90.2 38.4,90.4 38.4,90.5 38.4,90.6 38.4,90.7 38.4,90.8 38.5,90.9 38.5,91 38.6,91 38.7,91.1 
	38.9,91.1 39,91.2 39.2,91.2 39.4,91.2 39.6,91.2 39.9,91.2 40.1,91.1 40.3,91.1 40.5,91.1 40.7,91 40.9,90.9 41.1,90.9 41.3,90.8 
	41.6,90.7 42,90.5 42.4,90.3 42.8,90.1 43.3,89.9 43.7,89.7 44.1,89.5 44.6,89.3 45,89.1 45.2,89 45.4,88.9 45.7,88.8 45.9,88.7 
	46.1,88.6 46.3,88.6 46.5,88.5 46.7,88.5 46.9,88.4 47,88.4 47.2,88.4 47.3,88.4 47.7,88.3 48,88.3 48.8,88.2 49.6,88.2 50,88.1 
	50.3,88.1 50.5,88 50.7,88 50.9,87.9 51,87.9 51.2,87.8 51.3,87.8 51.5,87.7 51.6,87.6 51.7,87.6 51.8,87.5 51.9,87.4 52,87.3 "/>
<polygon fill-rule="evenodd" clip-rule="evenodd" fill="#512422" points="37.8,108.9 37.9,109 38.2,109.2 38.4,109.4 38.7,109.6 
	39,109.8 39.4,110 39.8,110.3 40.2,110.5 40.7,110.8 41.3,111 41.9,111.2 42.5,111.5 43.2,111.7 43.9,111.9 44.6,112 45.4,112.2 
	46.3,112.3 47.1,112.4 48,112.4 49,112.4 49.9,112.3 51,112.2 52,112 53.1,111.7 54.2,111.4 55.3,111 56.5,110.6 57.7,110 59,109.4 
	60.2,108.6 60.1,108.7 59.6,108.8 59.3,108.9 58.9,109 58.5,109.2 58,109.3 57.4,109.4 56.8,109.6 56.2,109.7 55.5,109.9 54.8,110 
	54,110.2 53.2,110.3 52.4,110.4 51.5,110.5 50.7,110.6 49.8,110.7 48.9,110.7 47.9,110.8 47,110.8 46.1,110.8 45.1,110.7 
	44.2,110.6 43.2,110.5 42.3,110.4 41.3,110.2 40.4,109.9 39.5,109.6 38.7,109.3 37.8,108.9 "/>
</svg>
